<svg width="204" height="42" viewBox="0 0 204 42" fill="none" xmlns="http://www.w3.org/2000/svg">
<g clip-path="url(#clip0_1_2)">
<path d="M52.391 35L45.1296 8.81818H49.2844L54.3853 29.0938H54.6282L59.9336 8.81818H64.0501L69.3555 29.1065H69.5984L74.6864 8.81818H78.854L71.5799 35H67.604L62.0941 15.3892H61.8895L56.3796 35H52.391ZM81.916 35V8.81818H98.3307V12.2188H85.8662V20.196H97.4742V23.5838H85.8662V31.5994H98.4841V35H81.916ZM103.067 35V8.81818H112.655C114.513 8.81818 116.052 9.125 117.27 9.73864C118.489 10.3437 119.401 11.1662 120.006 12.206C120.611 13.2372 120.914 14.4006 120.914 15.696C120.914 16.7869 120.714 17.7074 120.313 18.4574C119.913 19.1989 119.376 19.7955 118.702 20.2472C118.038 20.6903 117.305 21.0142 116.503 21.2188V21.4744C117.373 21.517 118.221 21.7983 119.047 22.3182C119.883 22.8295 120.573 23.5582 121.118 24.5043C121.664 25.4503 121.937 26.6009 121.937 27.956C121.937 29.294 121.621 30.4957 120.991 31.5611C120.368 32.6179 119.405 33.4574 118.101 34.0795C116.797 34.6932 115.131 35 113.103 35H103.067ZM107.018 31.6122H112.719C114.611 31.6122 115.967 31.2457 116.785 30.5128C117.603 29.7798 118.012 28.8636 118.012 27.7642C118.012 26.9375 117.803 26.179 117.386 25.4886C116.968 24.7983 116.371 24.2486 115.596 23.8395C114.829 23.4304 113.917 23.2259 112.86 23.2259H107.018V31.6122ZM107.018 20.1449H112.31C113.197 20.1449 113.993 19.9744 114.701 19.6335C115.417 19.2926 115.984 18.8153 116.401 18.2017C116.827 17.5795 117.04 16.8466 117.04 16.0028C117.04 14.9205 116.661 14.0128 115.903 13.2798C115.144 12.5469 113.981 12.1804 112.413 12.1804H107.018V20.1449Z" fill="#353744"/>
<path id="xxx" d="M141.406 24.56L145.766 31.32C147.126 33.44 147.886 34.8 148.646 36.24H159.246C157.566 34.2 156.446 32.76 155.166 30.96L146.326 18.56L153.846 8C155.246 6 156.206 4.76 157.646 2.96H147.366C146.726 4.48 146.046 5.68 144.446 8.2L141.446 12.88L138.406 8.24C136.966 6.04 136.086 4.44 135.446 2.96H125.086C126.566 4.72 127.766 6.28 129.006 8.08L136.486 18.6L127.686 30.96C126.526 32.56 125.726 33.6 123.566 36.24H134.166C135.166 34.4 136.006 33 137.086 31.32L141.406 24.56Z" fill="#EB5953"/>

</g>
<defs>
	<style>
		#xxx{
		transition: 1s;
		}
		#xxx:hover{
		fill:#353744;
		transition: .5s;
		}
	</style>
<clipPath id="clip0_1_2">
<rect width="204" height="42" fill="white"/>
</clipPath>
</defs>
</svg>
