<svg width="200" height="144" viewBox="0 0 200 144" fill="none" xmlns="http://www.w3.org/2000/svg">
<g filter="url(#filter0_d_4_16)">
<rect x="15" y="16" width="170" height="113" rx="13" fill="#F2F2F2"/>
</g>
<path d="M55.0954 32L52.675 23.2727H54.0599L55.7602 30.0312H55.8412L57.6096 23.2727H58.9818L60.7503 30.0355H60.8312L62.5272 23.2727H63.9164L61.4917 32H60.1664L58.3298 25.4631H58.2616L56.425 32H55.0954ZM64.9371 32V23.2727H70.4087V24.4062H66.2538V27.0653H70.1232V28.1946H66.2538V30.8665H70.4598V32H64.9371ZM71.9876 32V23.2727H75.1836C75.8029 23.2727 76.3157 23.375 76.7219 23.5795C77.1282 23.7812 77.4322 24.0554 77.6339 24.402C77.8356 24.7457 77.9364 25.1335 77.9364 25.5653C77.9364 25.929 77.8697 26.2358 77.7361 26.4858C77.6026 26.733 77.4236 26.9318 77.1992 27.0824C76.9776 27.2301 76.7333 27.3381 76.4662 27.4062V27.4915C76.756 27.5057 77.0387 27.5994 77.3143 27.7727C77.5927 27.9432 77.8228 28.1861 78.0046 28.5014C78.1864 28.8168 78.2773 29.2003 78.2773 29.652C78.2773 30.098 78.1722 30.4986 77.962 30.8537C77.7546 31.206 77.4336 31.4858 76.9989 31.6932C76.5643 31.8977 76.0089 32 75.3327 32H71.9876ZM73.3043 30.8707H75.2049C75.8356 30.8707 76.2873 30.7486 76.56 30.5043C76.8327 30.2599 76.9691 29.9545 76.9691 29.5881C76.9691 29.3125 76.8995 29.0597 76.7603 28.8295C76.6211 28.5994 76.4222 28.4162 76.1637 28.2798C75.908 28.1435 75.604 28.0753 75.2518 28.0753H73.3043V30.8707ZM73.3043 27.0483H75.0685C75.364 27.0483 75.6296 26.9915 75.8654 26.8778C76.104 26.7642 76.293 26.6051 76.4322 26.4006C76.5742 26.1932 76.6452 25.9489 76.6452 25.6676C76.6452 25.3068 76.5188 25.0043 76.266 24.7599C76.0131 24.5156 75.6253 24.3935 75.1026 24.3935H73.3043V27.0483ZM82.5526 34.4545V25.4545H83.7969V26.5156H83.9035C83.9773 26.3793 84.0839 26.2216 84.2231 26.0426C84.3623 25.8636 84.5555 25.7074 84.8026 25.5739C85.0498 25.4375 85.3765 25.3693 85.7827 25.3693C86.3111 25.3693 86.7827 25.5028 87.1975 25.7699C87.6123 26.0369 87.9376 26.4219 88.1734 26.9247C88.412 27.4276 88.5313 28.0327 88.5313 28.7401C88.5313 29.4474 88.4134 30.054 88.1776 30.5597C87.9418 31.0625 87.618 31.4503 87.206 31.723C86.7941 31.9929 86.3239 32.1278 85.7955 32.1278C85.3978 32.1278 85.0725 32.0611 84.8197 31.9276C84.5697 31.794 84.3736 31.6378 84.2316 31.4588C84.0896 31.2798 83.9802 31.1207 83.9035 30.9815H83.8268V34.4545H82.5526ZM83.8012 28.7273C83.8012 29.1875 83.868 29.5909 84.0015 29.9375C84.135 30.2841 84.3282 30.5554 84.581 30.7514C84.8339 30.9446 85.1435 31.0412 85.51 31.0412C85.8907 31.0412 86.2089 30.9403 86.4646 30.7386C86.7202 30.5341 86.9134 30.2571 87.0441 29.9077C87.1776 29.5582 87.2444 29.1648 87.2444 28.7273C87.2444 28.2955 87.179 27.9077 87.0484 27.5639C86.9205 27.2202 86.7273 26.9489 86.4688 26.75C86.2131 26.5511 85.8935 26.4517 85.51 26.4517C85.1407 26.4517 84.8282 26.5469 84.5725 26.7372C84.3197 26.9276 84.1279 27.1932 83.9972 27.5341C83.8665 27.875 83.8012 28.2727 83.8012 28.7273ZM91.6837 32.1449C91.2689 32.1449 90.8939 32.0682 90.5587 31.9148C90.2235 31.7585 89.9579 31.5327 89.7618 31.2372C89.5686 30.9418 89.4721 30.5795 89.4721 30.1506C89.4721 29.7812 89.5431 29.4773 89.6851 29.2386C89.8272 29 90.0189 28.8111 90.2604 28.6719C90.5019 28.5327 90.7718 28.4276 91.0701 28.3565C91.3684 28.2855 91.6723 28.2315 91.982 28.1946C92.374 28.1491 92.6922 28.1122 92.9365 28.0838C93.1809 28.0526 93.3584 28.0028 93.4692 27.9347C93.58 27.8665 93.6354 27.7557 93.6354 27.6023V27.5724C93.6354 27.2003 93.5303 26.9119 93.3201 26.7074C93.1127 26.5028 92.803 26.4006 92.3911 26.4006C91.9621 26.4006 91.624 26.4957 91.3769 26.6861C91.1326 26.8736 90.9635 27.0824 90.8698 27.3125L89.6723 27.0398C89.8144 26.642 90.0218 26.321 90.2945 26.0767C90.5701 25.8295 90.8868 25.6506 91.2448 25.5398C91.6027 25.4261 91.9792 25.3693 92.374 25.3693C92.6354 25.3693 92.9124 25.4006 93.205 25.4631C93.5005 25.5227 93.776 25.6335 94.0317 25.7955C94.2902 25.9574 94.5019 26.1889 94.6667 26.4901C94.8314 26.7884 94.9138 27.1761 94.9138 27.6534V32H93.6695V31.1051H93.6184C93.536 31.2699 93.4124 31.4318 93.2476 31.5909C93.0829 31.75 92.8712 31.8821 92.6127 31.9872C92.3542 32.0923 92.0445 32.1449 91.6837 32.1449ZM91.9607 31.1222C92.313 31.1222 92.6141 31.0526 92.8641 30.9134C93.1169 30.7741 93.3087 30.5923 93.4394 30.3679C93.5729 30.1406 93.6397 29.8977 93.6397 29.6392V28.7955C93.5942 28.8409 93.5061 28.8835 93.3755 28.9233C93.2476 28.9602 93.1013 28.9929 92.9365 29.0213C92.7718 29.0469 92.6113 29.071 92.455 29.0938C92.2988 29.1136 92.1681 29.1307 92.063 29.1449C91.8158 29.1761 91.59 29.2287 91.3854 29.3026C91.1837 29.3764 91.0218 29.483 90.8996 29.6222C90.7803 29.7585 90.7206 29.9403 90.7206 30.1676C90.7206 30.483 90.8371 30.7216 91.0701 30.8835C91.303 31.0426 91.5999 31.1222 91.9607 31.1222ZM96.0431 30.2699H97.3471C97.3641 30.5369 97.4849 30.7429 97.7093 30.8878C97.9366 31.0327 98.2306 31.1051 98.5914 31.1051C98.9579 31.1051 99.2704 31.027 99.5289 30.8707C99.7874 30.7116 99.9167 30.4659 99.9167 30.1335C99.9167 29.9347 99.867 29.7614 99.7676 29.6136C99.671 29.4631 99.5332 29.3466 99.3542 29.2642C99.1781 29.1818 98.9693 29.1406 98.7278 29.1406H97.6624V28.1392H98.7278C99.0886 28.1392 99.3585 28.0568 99.5374 27.892C99.7164 27.7273 99.8059 27.5213 99.8059 27.2741C99.8059 27.0071 99.7093 26.7926 99.5161 26.6307C99.3258 26.4659 99.0602 26.3835 98.7193 26.3835C98.3727 26.3835 98.0843 26.4616 97.8542 26.6179C97.6241 26.7713 97.5033 26.9702 97.492 27.2145H96.2051C96.2136 26.848 96.3244 26.527 96.5374 26.2514C96.7533 25.973 97.0431 25.7571 97.4068 25.6037C97.7732 25.4474 98.1894 25.3693 98.6553 25.3693C99.1411 25.3693 99.5616 25.4474 99.9167 25.6037C100.272 25.7599 100.546 25.9759 100.739 26.2514C100.935 26.527 101.033 26.8437 101.033 27.2017C101.033 27.5625 100.925 27.858 100.709 28.0881C100.496 28.3153 100.218 28.4787 99.8741 28.5781V28.6463C100.127 28.6634 100.351 28.7401 100.547 28.8764C100.743 29.0128 100.897 29.1932 101.008 29.4176C101.118 29.642 101.174 29.8963 101.174 30.1804C101.174 30.581 101.063 30.9276 100.841 31.2202C100.623 31.5128 100.319 31.7386 99.9295 31.8977C99.5431 32.054 99.1014 32.1321 98.6042 32.1321C98.1212 32.1321 97.688 32.0568 97.3045 31.9062C96.9238 31.7528 96.6212 31.5369 96.3968 31.2585C96.1752 30.9801 96.0573 30.6506 96.0431 30.2699ZM102.31 34.4545V25.4545H103.554V26.5156H103.66C103.734 26.3793 103.841 26.2216 103.98 26.0426C104.119 25.8636 104.312 25.7074 104.56 25.5739C104.807 25.4375 105.133 25.3693 105.54 25.3693C106.068 25.3693 106.54 25.5028 106.954 25.7699C107.369 26.0369 107.694 26.4219 107.93 26.9247C108.169 27.4276 108.288 28.0327 108.288 28.7401C108.288 29.4474 108.17 30.054 107.935 30.5597C107.699 31.0625 107.375 31.4503 106.963 31.723C106.551 31.9929 106.081 32.1278 105.552 32.1278C105.155 32.1278 104.829 32.0611 104.577 31.9276C104.327 31.794 104.131 31.6378 103.988 31.4588C103.846 31.2798 103.737 31.1207 103.66 30.9815H103.584V34.4545H102.31ZM103.558 28.7273C103.558 29.1875 103.625 29.5909 103.758 29.9375C103.892 30.2841 104.085 30.5554 104.338 30.7514C104.591 30.9446 104.9 31.0412 105.267 31.0412C105.648 31.0412 105.966 30.9403 106.221 30.7386C106.477 30.5341 106.67 30.2571 106.801 29.9077C106.935 29.5582 107.001 29.1648 107.001 28.7273C107.001 28.2955 106.936 27.9077 106.805 27.5639C106.677 27.2202 106.484 26.9489 106.226 26.75C105.97 26.5511 105.65 26.4517 105.267 26.4517C104.898 26.4517 104.585 26.5469 104.329 26.7372C104.077 26.9276 103.885 27.1932 103.754 27.5341C103.623 27.875 103.558 28.2727 103.558 28.7273ZM111.441 32.1449C111.026 32.1449 110.651 32.0682 110.316 31.9148C109.98 31.7585 109.715 31.5327 109.519 31.2372C109.326 30.9418 109.229 30.5795 109.229 30.1506C109.229 29.7812 109.3 29.4773 109.442 29.2386C109.584 29 109.776 28.8111 110.017 28.6719C110.259 28.5327 110.529 28.4276 110.827 28.3565C111.125 28.2855 111.429 28.2315 111.739 28.1946C112.131 28.1491 112.449 28.1122 112.693 28.0838C112.938 28.0526 113.115 28.0028 113.226 27.9347C113.337 27.8665 113.392 27.7557 113.392 27.6023V27.5724C113.392 27.2003 113.287 26.9119 113.077 26.7074C112.87 26.5028 112.56 26.4006 112.148 26.4006C111.719 26.4006 111.381 26.4957 111.134 26.6861C110.889 26.8736 110.72 27.0824 110.627 27.3125L109.429 27.0398C109.571 26.642 109.779 26.321 110.051 26.0767C110.327 25.8295 110.644 25.6506 111.002 25.5398C111.36 25.4261 111.736 25.3693 112.131 25.3693C112.392 25.3693 112.669 25.4006 112.962 25.4631C113.257 25.5227 113.533 25.6335 113.789 25.7955C114.047 25.9574 114.259 26.1889 114.424 26.4901C114.588 26.7884 114.671 27.1761 114.671 27.6534V32H113.426V31.1051H113.375C113.293 31.2699 113.169 31.4318 113.004 31.5909C112.84 31.75 112.628 31.8821 112.37 31.9872C112.111 32.0923 111.801 32.1449 111.441 32.1449ZM111.718 31.1222C112.07 31.1222 112.371 31.0526 112.621 30.9134C112.874 30.7741 113.066 30.5923 113.196 30.3679C113.33 30.1406 113.397 29.8977 113.397 29.6392V28.7955C113.351 28.8409 113.263 28.8835 113.132 28.9233C113.004 28.9602 112.858 28.9929 112.693 29.0213C112.529 29.0469 112.368 29.071 112.212 29.0938C112.056 29.1136 111.925 29.1307 111.82 29.1449C111.573 29.1761 111.347 29.2287 111.142 29.3026C110.941 29.3764 110.779 29.483 110.656 29.6222C110.537 29.7585 110.478 29.9403 110.478 30.1676C110.478 30.483 110.594 30.7216 110.827 30.8835C111.06 31.0426 111.357 31.1222 111.718 31.1222ZM121.238 23.017L121.766 23.8224C121.57 24.0014 121.347 24.1293 121.097 24.206C120.85 24.2798 120.564 24.3267 120.24 24.3466C119.916 24.3636 119.546 24.3793 119.128 24.3935C118.657 24.4077 118.269 24.5099 117.965 24.7003C117.661 24.8878 117.426 25.1662 117.262 25.5355C117.1 25.902 116.995 26.3622 116.946 26.9162H117.027C117.24 26.5099 117.536 26.206 117.914 26.0043C118.294 25.8026 118.722 25.7017 119.196 25.7017C119.725 25.7017 120.195 25.8224 120.607 26.0639C121.019 26.3054 121.343 26.6591 121.578 27.125C121.817 27.5881 121.936 28.1548 121.936 28.8253C121.936 29.5043 121.811 30.0909 121.561 30.5852C121.314 31.0795 120.965 31.4616 120.513 31.7315C120.064 31.9986 119.534 32.1321 118.924 32.1321C118.313 32.1321 117.78 31.9943 117.326 31.7188C116.874 31.4403 116.523 31.0284 116.273 30.483C116.026 29.9375 115.902 29.2642 115.902 28.4631V27.8153C115.902 26.3182 116.169 25.1918 116.703 24.4361C117.238 23.6804 118.036 23.2926 119.098 23.2727C119.442 23.2642 119.749 23.2628 120.019 23.2685C120.289 23.2713 120.524 23.2585 120.726 23.2301C120.931 23.1989 121.101 23.1278 121.238 23.017ZM118.928 31.0625C119.283 31.0625 119.588 30.973 119.844 30.794C120.103 30.6122 120.301 30.3551 120.441 30.0227C120.58 29.6903 120.649 29.2983 120.649 28.8466C120.649 28.4034 120.58 28.027 120.441 27.7173C120.301 27.4077 120.103 27.1719 119.844 27.0099C119.586 26.8452 119.276 26.7628 118.915 26.7628C118.648 26.7628 118.409 26.8097 118.199 26.9034C117.989 26.9943 117.809 27.1293 117.658 27.3082C117.51 27.4872 117.395 27.706 117.313 27.9645C117.233 28.2202 117.191 28.5142 117.185 28.8466C117.185 29.5227 117.34 30.0611 117.649 30.4616C117.962 30.8622 118.388 31.0625 118.928 31.0625ZM125.937 32.1321C125.323 32.1321 124.788 31.9915 124.33 31.7102C123.873 31.429 123.518 31.0355 123.265 30.5298C123.012 30.0241 122.886 29.4332 122.886 28.7571C122.886 28.0781 123.012 27.4844 123.265 26.9759C123.518 26.4673 123.873 26.0724 124.33 25.7912C124.788 25.5099 125.323 25.3693 125.937 25.3693C126.55 25.3693 127.086 25.5099 127.543 25.7912C128.001 26.0724 128.356 26.4673 128.609 26.9759C128.861 27.4844 128.988 28.0781 128.988 28.7571C128.988 29.4332 128.861 30.0241 128.609 30.5298C128.356 31.0355 128.001 31.429 127.543 31.7102C127.086 31.9915 126.55 32.1321 125.937 32.1321ZM125.941 31.0625C126.339 31.0625 126.668 30.9574 126.93 30.7472C127.191 30.5369 127.384 30.2571 127.509 29.9077C127.637 29.5582 127.701 29.1733 127.701 28.7528C127.701 28.3352 127.637 27.9517 127.509 27.6023C127.384 27.25 127.191 26.9673 126.93 26.7543C126.668 26.5412 126.339 26.4347 125.941 26.4347C125.54 26.4347 125.208 26.5412 124.944 26.7543C124.682 26.9673 124.488 27.25 124.36 27.6023C124.235 27.9517 124.173 28.3352 124.173 28.7528C124.173 29.1733 124.235 29.5582 124.36 29.9077C124.488 30.2571 124.682 30.5369 124.944 30.7472C125.208 30.9574 125.54 31.0625 125.941 31.0625ZM129.442 26.554V25.4545H134.964V26.554H132.83V32H131.585V26.554H129.442ZM136.132 32V25.4545H137.406V28.1989H138.02L140.18 25.4545H141.757L139.222 28.6378L141.787 32H140.206L138.233 29.3835H137.406V32H136.132ZM144.502 32.1449C144.087 32.1449 143.712 32.0682 143.377 31.9148C143.041 31.7585 142.776 31.5327 142.58 31.2372C142.386 30.9418 142.29 30.5795 142.29 30.1506C142.29 29.7812 142.361 29.4773 142.503 29.2386C142.645 29 142.837 28.8111 143.078 28.6719C143.32 28.5327 143.59 28.4276 143.888 28.3565C144.186 28.2855 144.49 28.2315 144.8 28.1946C145.192 28.1491 145.51 28.1122 145.754 28.0838C145.999 28.0526 146.176 28.0028 146.287 27.9347C146.398 27.8665 146.453 27.7557 146.453 27.6023V27.5724C146.453 27.2003 146.348 26.9119 146.138 26.7074C145.93 26.5028 145.621 26.4006 145.209 26.4006C144.78 26.4006 144.442 26.4957 144.195 26.6861C143.95 26.8736 143.781 27.0824 143.688 27.3125L142.49 27.0398C142.632 26.642 142.84 26.321 143.112 26.0767C143.388 25.8295 143.705 25.6506 144.063 25.5398C144.421 25.4261 144.797 25.3693 145.192 25.3693C145.453 25.3693 145.73 25.4006 146.023 25.4631C146.318 25.5227 146.594 25.6335 146.85 25.7955C147.108 25.9574 147.32 26.1889 147.484 26.4901C147.649 26.7884 147.732 27.1761 147.732 27.6534V32H146.487V31.1051H146.436C146.354 31.2699 146.23 31.4318 146.065 31.5909C145.901 31.75 145.689 31.8821 145.43 31.9872C145.172 32.0923 144.862 32.1449 144.502 32.1449ZM144.779 31.1222C145.131 31.1222 145.432 31.0526 145.682 30.9134C145.935 30.7741 146.127 30.5923 146.257 30.3679C146.391 30.1406 146.457 29.8977 146.457 29.6392V28.7955C146.412 28.8409 146.324 28.8835 146.193 28.9233C146.065 28.9602 145.919 28.9929 145.754 29.0213C145.59 29.0469 145.429 29.071 145.273 29.0938C145.117 29.1136 144.986 29.1307 144.881 29.1449C144.634 29.1761 144.408 29.2287 144.203 29.3026C144.002 29.3764 143.84 29.483 143.717 29.6222C143.598 29.7585 143.538 29.9403 143.538 30.1676C143.538 30.483 143.655 30.7216 143.888 30.8835C144.121 31.0426 144.418 31.1222 144.779 31.1222Z" fill="#353744"/>
<path d="M21 60.9318C20.7708 60.9318 20.5616 60.8759 20.3722 60.7642C20.1828 60.6506 20.0313 60.4991 19.9176 60.3097C19.8059 60.1203 19.75 59.911 19.75 59.6818C19.75 59.4508 19.8059 59.2415 19.9176 59.054C20.0313 58.8646 20.1828 58.714 20.3722 58.6023C20.5616 58.4886 20.7708 58.4318 21 58.4318C21.2311 58.4318 21.4403 58.4886 21.6278 58.6023C21.8172 58.714 21.9678 58.8646 22.0795 59.054C22.1932 59.2415 22.25 59.4508 22.25 59.6818C22.25 59.911 22.1932 60.1203 22.0795 60.3097C21.9678 60.4991 21.8172 60.6506 21.6278 60.7642C21.4403 60.8759 21.2311 60.9318 21 60.9318ZM27.7045 62V56.1818H29.6705C30.1269 56.1818 30.5 56.2642 30.7898 56.429C31.0814 56.5919 31.2973 56.8125 31.4375 57.0909C31.5777 57.3693 31.6477 57.6799 31.6477 58.0227C31.6477 58.3655 31.5777 58.6771 31.4375 58.9574C31.2992 59.2377 31.0852 59.4612 30.7955 59.6278C30.5057 59.7926 30.1345 59.875 29.6818 59.875H28.2727V59.25H29.6591C29.9716 59.25 30.2225 59.196 30.4119 59.0881C30.6013 58.9801 30.7386 58.8343 30.8239 58.6506C30.911 58.465 30.9545 58.2557 30.9545 58.0227C30.9545 57.7898 30.911 57.5814 30.8239 57.3977C30.7386 57.214 30.6004 57.0701 30.4091 56.9659C30.2178 56.8598 29.964 56.8068 29.6477 56.8068H28.4091V62H27.7045ZM33.8559 62.1023C33.5793 62.1023 33.3284 62.0502 33.103 61.946C32.8776 61.84 32.6987 61.6875 32.5661 61.4886C32.4335 61.2879 32.3672 61.0455 32.3672 60.7614C32.3672 60.5114 32.4165 60.3087 32.5149 60.1534C32.6134 59.9962 32.7451 59.8731 32.9098 59.7841C33.0746 59.6951 33.2564 59.6288 33.4553 59.5852C33.656 59.5398 33.8577 59.5038 34.0604 59.4773C34.3255 59.4432 34.5405 59.4176 34.7053 59.4006C34.872 59.3816 34.9932 59.3504 35.0689 59.3068C35.1466 59.2633 35.1854 59.1875 35.1854 59.0795V59.0568C35.1854 58.7765 35.1087 58.5587 34.9553 58.4034C34.8038 58.2481 34.5737 58.1705 34.2649 58.1705C33.9449 58.1705 33.6939 58.2405 33.5121 58.3807C33.3303 58.5208 33.2024 58.6705 33.1286 58.8295L32.4922 58.6023C32.6059 58.3371 32.7574 58.1307 32.9468 57.983C33.138 57.8333 33.3464 57.7292 33.5718 57.6705C33.799 57.6098 34.0225 57.5795 34.2422 57.5795C34.3824 57.5795 34.5434 57.5966 34.7252 57.6307C34.9089 57.6629 35.086 57.7301 35.2564 57.8324C35.4288 57.9347 35.5718 58.089 35.6854 58.2955C35.799 58.5019 35.8559 58.7784 35.8559 59.125V62H35.1854V61.4091H35.1513C35.1059 61.5038 35.0301 61.6051 34.924 61.7131C34.818 61.821 34.6769 61.9129 34.5007 61.9886C34.3246 62.0644 34.1096 62.1023 33.8559 62.1023ZM33.9581 61.5C34.2233 61.5 34.4468 61.4479 34.6286 61.3438C34.8123 61.2396 34.9505 61.1051 35.0434 60.9403C35.138 60.7756 35.1854 60.6023 35.1854 60.4205V59.8068C35.157 59.8409 35.0945 59.8722 34.9979 59.9006C34.9032 59.9271 34.7934 59.9508 34.6684 59.9716C34.5452 59.9905 34.425 60.0076 34.3076 60.0227C34.192 60.036 34.0983 60.0473 34.0263 60.0568C33.8521 60.0795 33.6892 60.1165 33.5377 60.1676C33.388 60.2169 33.2668 60.2917 33.174 60.392C33.0831 60.4905 33.0377 60.625 33.0377 60.7955C33.0377 61.0284 33.1238 61.2045 33.2962 61.3239C33.4704 61.4413 33.6911 61.5 33.9581 61.5ZM36.6868 60.8864H37.4028C37.4179 61.0833 37.5069 61.233 37.6698 61.3352C37.8346 61.4375 38.0486 61.4886 38.3118 61.4886C38.5808 61.4886 38.8109 61.4337 39.0022 61.3239C39.1935 61.2121 39.2891 61.0322 39.2891 60.7841C39.2891 60.6383 39.2531 60.5114 39.1812 60.4034C39.1092 60.2936 39.0079 60.2083 38.8772 60.1477C38.7465 60.0871 38.5921 60.0568 38.4141 60.0568H37.6641V59.4545H38.4141C38.6812 59.4545 38.8781 59.3939 39.005 59.2727C39.1338 59.1515 39.1982 59 39.1982 58.8182C39.1982 58.6231 39.1291 58.4669 38.9908 58.3494C38.8526 58.2301 38.6565 58.1705 38.4028 58.1705C38.1471 58.1705 37.934 58.2282 37.7636 58.3438C37.5931 58.4574 37.5031 58.6042 37.4937 58.7841H36.7891C36.7967 58.5492 36.8687 58.3419 37.005 58.1619C37.1414 57.9801 37.327 57.8381 37.5618 57.7358C37.7967 57.6316 38.0656 57.5795 38.3687 57.5795C38.6755 57.5795 38.9416 57.6335 39.167 57.7415C39.3942 57.8475 39.5694 57.9924 39.6925 58.1761C39.8175 58.358 39.88 58.5644 39.88 58.7955C39.88 59.0417 39.8109 59.2405 39.6726 59.392C39.5344 59.5436 39.3611 59.6515 39.1528 59.7159V59.7614C39.3175 59.7727 39.4605 59.8258 39.5817 59.9205C39.7048 60.0133 39.8005 60.1354 39.8687 60.2869C39.9368 60.4366 39.9709 60.6023 39.9709 60.7841C39.9709 61.0492 39.8999 61.2803 39.7579 61.4773C39.6158 61.6723 39.4207 61.8239 39.1726 61.9318C38.9245 62.0379 38.6414 62.0909 38.3232 62.0909C38.0145 62.0909 37.738 62.0407 37.4937 61.9403C37.2493 61.8381 37.0552 61.697 36.9113 61.517C36.7692 61.3352 36.6944 61.125 36.6868 60.8864ZM40.7927 63.6364V57.6364H41.4404V58.3295H41.52C41.5692 58.2538 41.6374 58.1572 41.7245 58.0398C41.8135 57.9205 41.9404 57.8144 42.1052 57.7216C42.2719 57.6269 42.4972 57.5795 42.7813 57.5795C43.1488 57.5795 43.4726 57.6714 43.7529 57.8551C44.0332 58.0388 44.252 58.2992 44.4092 58.6364C44.5664 58.9735 44.645 59.3712 44.645 59.8295C44.645 60.2917 44.5664 60.6922 44.4092 61.0312C44.252 61.3684 44.0342 61.6297 43.7558 61.8153C43.4774 61.9991 43.1563 62.0909 42.7927 62.0909C42.5124 62.0909 42.288 62.0445 42.1194 61.9517C41.9508 61.857 41.8211 61.75 41.7302 61.6307C41.6393 61.5095 41.5692 61.4091 41.52 61.3295H41.4632V63.6364H40.7927ZM41.4518 59.8182C41.4518 60.1477 41.5001 60.4384 41.5967 60.6903C41.6933 60.9403 41.8344 61.1364 42.02 61.2784C42.2056 61.4186 42.4328 61.4886 42.7018 61.4886C42.9821 61.4886 43.216 61.4148 43.4035 61.267C43.5929 61.1174 43.7349 60.9167 43.8296 60.6648C43.9262 60.411 43.9745 60.1288 43.9745 59.8182C43.9745 59.5114 43.9272 59.2348 43.8325 58.9886C43.7397 58.7405 43.5986 58.5445 43.4092 58.4006C43.2217 58.2547 42.9859 58.1818 42.7018 58.1818C42.4291 58.1818 42.1999 58.2509 42.0143 58.3892C41.8287 58.5256 41.6885 58.7169 41.5938 58.9631C41.4991 59.2074 41.4518 59.4924 41.4518 59.8182ZM46.8318 62.1023C46.5553 62.1023 46.3043 62.0502 46.0789 61.946C45.8536 61.84 45.6746 61.6875 45.542 61.4886C45.4094 61.2879 45.3432 61.0455 45.3432 60.7614C45.3432 60.5114 45.3924 60.3087 45.4909 60.1534C45.5894 59.9962 45.721 59.8731 45.8858 59.7841C46.0505 59.6951 46.2324 59.6288 46.4312 59.5852C46.632 59.5398 46.8337 59.5038 47.0363 59.4773C47.3015 59.4432 47.5164 59.4176 47.6812 59.4006C47.8479 59.3816 47.9691 59.3504 48.0449 59.3068C48.1225 59.2633 48.1613 59.1875 48.1613 59.0795V59.0568C48.1613 58.7765 48.0846 58.5587 47.9312 58.4034C47.7797 58.2481 47.5496 58.1705 47.2409 58.1705C46.9208 58.1705 46.6699 58.2405 46.488 58.3807C46.3062 58.5208 46.1784 58.6705 46.1045 58.8295L45.4682 58.6023C45.5818 58.3371 45.7333 58.1307 45.9227 57.983C46.114 57.8333 46.3223 57.7292 46.5477 57.6705C46.775 57.6098 46.9985 57.5795 47.2182 57.5795C47.3583 57.5795 47.5193 57.5966 47.7011 57.6307C47.8848 57.6629 48.0619 57.7301 48.2324 57.8324C48.4047 57.9347 48.5477 58.089 48.6613 58.2955C48.775 58.5019 48.8318 58.7784 48.8318 59.125V62H48.1613V61.4091H48.1272C48.0818 61.5038 48.006 61.6051 47.9 61.7131C47.7939 61.821 47.6528 61.9129 47.4767 61.9886C47.3005 62.0644 47.0856 62.1023 46.8318 62.1023ZM46.9341 61.5C47.1992 61.5 47.4227 61.4479 47.6045 61.3438C47.7882 61.2396 47.9265 61.1051 48.0193 60.9403C48.114 60.7756 48.1613 60.6023 48.1613 60.4205V59.8068C48.1329 59.8409 48.0704 59.8722 47.9738 59.9006C47.8791 59.9271 47.7693 59.9508 47.6443 59.9716C47.5212 59.9905 47.4009 60.0076 47.2835 60.0227C47.168 60.036 47.0742 60.0473 47.0022 60.0568C46.828 60.0795 46.6651 60.1165 46.5136 60.1676C46.364 60.2169 46.2428 60.2917 46.15 60.392C46.0591 60.4905 46.0136 60.625 46.0136 60.7955C46.0136 61.0284 46.0998 61.2045 46.2721 61.3239C46.4464 61.4413 46.667 61.5 46.9341 61.5ZM53.1741 56L53.5151 56.4091C53.3825 56.5379 53.2291 56.6278 53.0548 56.679C52.8806 56.7301 52.6836 56.7614 52.4639 56.7727C52.2442 56.7841 51.9999 56.7955 51.731 56.8068C51.4279 56.8182 51.177 56.892 50.9781 57.0284C50.7793 57.1648 50.6259 57.3617 50.5179 57.6193C50.4099 57.8769 50.3408 58.1932 50.3105 58.5682H50.3673C50.5151 58.2955 50.7196 58.0947 50.981 57.9659C51.2423 57.8371 51.5226 57.7727 51.8219 57.7727C52.1628 57.7727 52.4696 57.8523 52.7423 58.0114C53.0151 58.1705 53.231 58.4062 53.3901 58.7188C53.5491 59.0312 53.6287 59.4167 53.6287 59.875C53.6287 60.3314 53.5473 60.7254 53.3844 61.0568C53.2234 61.3883 52.9971 61.6439 52.7054 61.8239C52.4156 62.0019 52.0757 62.0909 51.6855 62.0909C51.2954 62.0909 50.9535 61.9991 50.6599 61.8153C50.3664 61.6297 50.1382 61.3551 49.9753 60.9915C49.8124 60.6259 49.731 60.1742 49.731 59.6364V59.1705C49.731 58.1989 49.8957 57.4621 50.2253 56.9602C50.5567 56.4583 51.0548 56.1989 51.7196 56.1818C51.9545 56.1742 52.1637 56.1723 52.3474 56.1761C52.5312 56.1799 52.6912 56.1714 52.8276 56.1506C52.9639 56.1297 53.0795 56.0795 53.1741 56ZM51.6855 61.4886C51.9488 61.4886 52.1751 61.4223 52.3645 61.2898C52.5558 61.1572 52.7026 60.9706 52.8048 60.7301C52.9071 60.4877 52.9582 60.2027 52.9582 59.875C52.9582 59.5568 52.9062 59.286 52.802 59.0625C52.6997 58.839 52.5529 58.6686 52.3616 58.5511C52.1704 58.4337 51.9412 58.375 51.6741 58.375C51.4791 58.375 51.3039 58.4081 51.1486 58.4744C50.9933 58.5407 50.8607 58.6383 50.7509 58.767C50.641 58.8958 50.5558 59.053 50.4952 59.2386C50.4365 59.4242 50.4052 59.6364 50.4014 59.875C50.4014 60.3636 50.516 60.7547 50.7452 61.0483C50.9743 61.3419 51.2878 61.4886 51.6855 61.4886ZM56.307 62.0909C55.913 62.0909 55.5674 61.9972 55.2701 61.8097C54.9746 61.6222 54.7435 61.3598 54.5769 61.0227C54.4121 60.6856 54.3297 60.2917 54.3297 59.8409C54.3297 59.3864 54.4121 58.9896 54.5769 58.6506C54.7435 58.3116 54.9746 58.0483 55.2701 57.8608C55.5674 57.6733 55.913 57.5795 56.307 57.5795C56.7009 57.5795 57.0456 57.6733 57.3411 57.8608C57.6384 58.0483 57.8695 58.3116 58.0343 58.6506C58.2009 58.9896 58.2843 59.3864 58.2843 59.8409C58.2843 60.2917 58.2009 60.6856 58.0343 61.0227C57.8695 61.3598 57.6384 61.6222 57.3411 61.8097C57.0456 61.9972 56.7009 62.0909 56.307 62.0909ZM56.307 61.4886C56.6062 61.4886 56.8524 61.4119 57.0456 61.2585C57.2388 61.1051 57.3818 60.9034 57.4746 60.6534C57.5674 60.4034 57.6138 60.1326 57.6138 59.8409C57.6138 59.5492 57.5674 59.2775 57.4746 59.0256C57.3818 58.7737 57.2388 58.5701 57.0456 58.4148C56.8524 58.2595 56.6062 58.1818 56.307 58.1818C56.0077 58.1818 55.7615 58.2595 55.5684 58.4148C55.3752 58.5701 55.2322 58.7737 55.1394 59.0256C55.0466 59.2775 55.0002 59.5492 55.0002 59.8409C55.0002 60.1326 55.0466 60.4034 55.1394 60.6534C55.2322 60.9034 55.3752 61.1051 55.5684 61.2585C55.7615 61.4119 56.0077 61.4886 56.307 61.4886ZM58.6174 58.2614V57.6364H62.1628V58.2614H60.731V62H60.0606V58.2614H58.6174ZM63.0208 62V57.6364H63.6913V59.5341H64.1345L65.7026 57.6364H66.5663L64.8049 59.7386L66.589 62H65.7254L64.2936 60.1591H63.6913V62H63.0208ZM68.4818 62.1023C68.2053 62.1023 67.9543 62.0502 67.7289 61.946C67.5036 61.84 67.3246 61.6875 67.192 61.4886C67.0594 61.2879 66.9932 61.0455 66.9932 60.7614C66.9932 60.5114 67.0424 60.3087 67.1409 60.1534C67.2394 59.9962 67.371 59.8731 67.5358 59.7841C67.7005 59.6951 67.8824 59.6288 68.0812 59.5852C68.282 59.5398 68.4837 59.5038 68.6863 59.4773C68.9515 59.4432 69.1664 59.4176 69.3312 59.4006C69.4979 59.3816 69.6191 59.3504 69.6949 59.3068C69.7725 59.2633 69.8113 59.1875 69.8113 59.0795V59.0568C69.8113 58.7765 69.7346 58.5587 69.5812 58.4034C69.4297 58.2481 69.1996 58.1705 68.8909 58.1705C68.5708 58.1705 68.3199 58.2405 68.138 58.3807C67.9562 58.5208 67.8284 58.6705 67.7545 58.8295L67.1182 58.6023C67.2318 58.3371 67.3833 58.1307 67.5727 57.983C67.764 57.8333 67.9723 57.7292 68.1977 57.6705C68.425 57.6098 68.6485 57.5795 68.8682 57.5795C69.0083 57.5795 69.1693 57.5966 69.3511 57.6307C69.5348 57.6629 69.7119 57.7301 69.8824 57.8324C70.0547 57.9347 70.1977 58.089 70.3113 58.2955C70.425 58.5019 70.4818 58.7784 70.4818 59.125V62H69.8113V61.4091H69.7772C69.7318 61.5038 69.656 61.6051 69.55 61.7131C69.4439 61.821 69.3028 61.9129 69.1267 61.9886C68.9505 62.0644 68.7356 62.1023 68.4818 62.1023ZM68.5841 61.5C68.8492 61.5 69.0727 61.4479 69.2545 61.3438C69.4382 61.2396 69.5765 61.1051 69.6693 60.9403C69.764 60.7756 69.8113 60.6023 69.8113 60.4205V59.8068C69.7829 59.8409 69.7204 59.8722 69.6238 59.9006C69.5291 59.9271 69.4193 59.9508 69.2943 59.9716C69.1712 59.9905 69.0509 60.0076 68.9335 60.0227C68.818 60.036 68.7242 60.0473 68.6522 60.0568C68.478 60.0795 68.3151 60.1165 68.1636 60.1676C68.014 60.2169 67.8928 60.2917 67.8 60.392C67.7091 60.4905 67.6636 60.625 67.6636 60.7955C67.6636 61.0284 67.7498 61.2045 67.9221 61.3239C68.0964 61.4413 68.317 61.5 68.5841 61.5ZM29.3864 72.0909C28.9773 72.0909 28.625 71.9943 28.3295 71.8011C28.0341 71.608 27.8068 71.3419 27.6477 71.0028C27.4886 70.6638 27.4091 70.2765 27.4091 69.8409C27.4091 69.3977 27.4905 69.0066 27.6534 68.6676C27.8182 68.3267 28.0473 68.0606 28.3409 67.8693C28.6364 67.6761 28.9811 67.5795 29.375 67.5795C29.6818 67.5795 29.9583 67.6364 30.2045 67.75C30.4508 67.8636 30.6525 68.0227 30.8097 68.2273C30.9669 68.4318 31.0644 68.6705 31.1023 68.9432H30.4318C30.3807 68.7443 30.267 68.5682 30.0909 68.4148C29.9167 68.2595 29.6818 68.1818 29.3864 68.1818C29.125 68.1818 28.8958 68.25 28.6989 68.3864C28.5038 68.5208 28.3513 68.7112 28.2415 68.9574C28.1335 69.2017 28.0795 69.4886 28.0795 69.8182C28.0795 70.1553 28.1326 70.4489 28.2386 70.6989C28.3466 70.9489 28.4981 71.143 28.6932 71.2812C28.8902 71.4195 29.1212 71.4886 29.3864 71.4886C29.5606 71.4886 29.7188 71.4583 29.8608 71.3977C30.0028 71.3371 30.1231 71.25 30.2216 71.1364C30.3201 71.0227 30.3902 70.8864 30.4318 70.7273H31.1023C31.0644 70.9848 30.9706 71.2169 30.821 71.4233C30.6733 71.6278 30.4773 71.7907 30.233 71.9119C29.9905 72.0312 29.7083 72.0909 29.3864 72.0909ZM33.2465 72.1023C32.97 72.1023 32.719 72.0502 32.4936 71.946C32.2683 71.84 32.0893 71.6875 31.9567 71.4886C31.8241 71.2879 31.7578 71.0455 31.7578 70.7614C31.7578 70.5114 31.8071 70.3087 31.9056 70.1534C32.0041 69.9962 32.1357 69.8731 32.3005 69.7841C32.4652 69.6951 32.647 69.6288 32.8459 69.5852C33.0467 69.5398 33.2484 69.5038 33.451 69.4773C33.7162 69.4432 33.9311 69.4176 34.0959 69.4006C34.2626 69.3816 34.3838 69.3504 34.4595 69.3068C34.5372 69.2633 34.576 69.1875 34.576 69.0795V69.0568C34.576 68.7765 34.4993 68.5587 34.3459 68.4034C34.1944 68.2481 33.9643 68.1705 33.6556 68.1705C33.3355 68.1705 33.0845 68.2405 32.9027 68.3807C32.7209 68.5208 32.5931 68.6705 32.5192 68.8295L31.8828 68.6023C31.9965 68.3371 32.148 68.1307 32.3374 67.983C32.5287 67.8333 32.737 67.7292 32.9624 67.6705C33.1897 67.6098 33.4131 67.5795 33.6328 67.5795C33.773 67.5795 33.934 67.5966 34.1158 67.6307C34.2995 67.6629 34.4766 67.7301 34.647 67.8324C34.8194 67.9347 34.9624 68.089 35.076 68.2955C35.1897 68.5019 35.2465 68.7784 35.2465 69.125V72H34.576V71.4091H34.5419C34.4965 71.5038 34.4207 71.6051 34.3147 71.7131C34.2086 71.821 34.0675 71.9129 33.8914 71.9886C33.7152 72.0644 33.5003 72.1023 33.2465 72.1023ZM33.3487 71.5C33.6139 71.5 33.8374 71.4479 34.0192 71.3438C34.2029 71.2396 34.3412 71.1051 34.434 70.9403C34.5287 70.7756 34.576 70.6023 34.576 70.4205V69.8068C34.5476 69.8409 34.4851 69.8722 34.3885 69.9006C34.2938 69.9271 34.184 69.9508 34.059 69.9716C33.9359 69.9905 33.8156 70.0076 33.6982 70.0227C33.5827 70.036 33.4889 70.0473 33.4169 70.0568C33.2427 70.0795 33.0798 70.1165 32.9283 70.1676C32.7787 70.2169 32.6575 70.2917 32.5647 70.392C32.4737 70.4905 32.4283 70.625 32.4283 70.7955C32.4283 71.0284 32.5145 71.2045 32.6868 71.3239C32.8611 71.4413 33.0817 71.5 33.3487 71.5ZM37.0207 71.0114L39.1229 67.6364H39.8957V72H39.2252V68.625L37.1343 72H36.3502V67.6364H37.0207V71.0114ZM38.6797 66.1818H39.3047C39.3047 66.4886 39.1987 66.7396 38.9866 66.9347C38.7744 67.1297 38.4866 67.2273 38.1229 67.2273C37.765 67.2273 37.4799 67.1297 37.2678 66.9347C37.0576 66.7396 36.9525 66.4886 36.9525 66.1818H37.5775C37.5775 66.3295 37.6182 66.4593 37.6996 66.571C37.783 66.6828 37.9241 66.7386 38.1229 66.7386C38.3218 66.7386 38.4638 66.6828 38.5491 66.571C38.6362 66.4593 38.6797 66.3295 38.6797 66.1818ZM40.4099 68.2614V67.6364H43.9553V68.2614H42.5235V72H41.8531V68.2614H40.4099ZM46.3595 72.0909C45.9655 72.0909 45.6199 71.9972 45.3226 71.8097C45.0271 71.6222 44.796 71.3598 44.6294 71.0227C44.4646 70.6856 44.3822 70.2917 44.3822 69.8409C44.3822 69.3864 44.4646 68.9896 44.6294 68.6506C44.796 68.3116 45.0271 68.0483 45.3226 67.8608C45.6199 67.6733 45.9655 67.5795 46.3595 67.5795C46.7534 67.5795 47.0981 67.6733 47.3936 67.8608C47.6909 68.0483 47.922 68.3116 48.0868 68.6506C48.2534 68.9896 48.3368 69.3864 48.3368 69.8409C48.3368 70.2917 48.2534 70.6856 48.0868 71.0227C47.922 71.3598 47.6909 71.6222 47.3936 71.8097C47.0981 71.9972 46.7534 72.0909 46.3595 72.0909ZM46.3595 71.4886C46.6587 71.4886 46.9049 71.4119 47.0981 71.2585C47.2913 71.1051 47.4343 70.9034 47.5271 70.6534C47.6199 70.4034 47.6663 70.1326 47.6663 69.8409C47.6663 69.5492 47.6199 69.2775 47.5271 69.0256C47.4343 68.7737 47.2913 68.5701 47.0981 68.4148C46.9049 68.2595 46.6587 68.1818 46.3595 68.1818C46.0602 68.1818 45.814 68.2595 45.6209 68.4148C45.4277 68.5701 45.2847 68.7737 45.1919 69.0256C45.0991 69.2775 45.0527 69.5492 45.0527 69.8409C45.0527 70.1326 45.0991 70.4034 45.1919 70.6534C45.2847 70.9034 45.4277 71.1051 45.6209 71.2585C45.814 71.4119 46.0602 71.4886 46.3595 71.4886ZM49.2402 72V67.6364H51.0243C51.494 67.6364 51.8671 67.7424 52.1436 67.9545C52.4201 68.1667 52.5584 68.447 52.5584 68.7955C52.5584 69.0606 52.4798 69.2661 52.3226 69.4119C52.1654 69.5559 51.9637 69.6534 51.7175 69.7045C51.8785 69.7273 52.0347 69.7841 52.1862 69.875C52.3396 69.9659 52.4665 70.0909 52.5669 70.25C52.6673 70.4072 52.7175 70.6004 52.7175 70.8295C52.7175 71.053 52.6607 71.2528 52.547 71.429C52.4334 71.6051 52.2705 71.7443 52.0584 71.8466C51.8463 71.9489 51.5925 72 51.297 72H49.2402ZM49.8766 71.3864H51.297C51.5281 71.3864 51.709 71.3314 51.8396 71.2216C51.9703 71.1117 52.0357 70.9621 52.0357 70.7727C52.0357 70.5473 51.9703 70.3703 51.8396 70.2415C51.709 70.1108 51.5281 70.0455 51.297 70.0455H49.8766V71.3864ZM49.8766 69.4659H51.0243C51.2042 69.4659 51.3586 69.4413 51.4874 69.392C51.6161 69.3409 51.7146 69.2689 51.7828 69.1761C51.8529 69.0814 51.8879 68.9697 51.8879 68.8409C51.8879 68.6572 51.8112 68.5133 51.6578 68.4091C51.5044 68.303 51.2932 68.25 51.0243 68.25H49.8766V69.4659ZM56.4128 71.0114L58.5151 67.6364H59.2878V72H58.6174V68.625L56.5265 72H55.7424V67.6364H56.4128V71.0114ZM27.2273 82V81.375H27.3864C27.517 81.375 27.6259 81.3494 27.7131 81.2983C27.8002 81.2453 27.8703 81.1534 27.9233 81.0227C27.9782 80.8902 28.0199 80.7064 28.0483 80.4716C28.0786 80.2348 28.1004 79.9337 28.1136 79.5682L28.1932 77.6364H31.1023V82H30.4318V78.2614H28.8295L28.7614 79.8182C28.7462 80.1761 28.714 80.4915 28.6648 80.7642C28.6174 81.035 28.5445 81.2623 28.446 81.446C28.3494 81.6297 28.2206 81.768 28.0597 81.8608C27.8987 81.9536 27.697 82 27.4545 82H27.2273ZM34.0419 82.0909C33.6215 82.0909 33.2588 81.9981 32.9539 81.8125C32.6508 81.625 32.4169 81.3636 32.2522 81.0284C32.0893 80.6913 32.0078 80.2992 32.0078 79.8523C32.0078 79.4053 32.0893 79.0114 32.2522 78.6705C32.4169 78.3277 32.6461 78.0606 32.9397 77.8693C33.2351 77.6761 33.5798 77.5795 33.9737 77.5795C34.201 77.5795 34.4255 77.6174 34.647 77.6932C34.8686 77.7689 35.0703 77.892 35.2522 78.0625C35.434 78.2311 35.5789 78.4545 35.6868 78.733C35.7948 79.0114 35.8487 79.3542 35.8487 79.7614V80.0455H32.4851V79.4659H35.1669C35.1669 79.2197 35.1177 79 35.0192 78.8068C34.9226 78.6136 34.7844 78.4612 34.6044 78.3494C34.4264 78.2377 34.2162 78.1818 33.9737 78.1818C33.7067 78.1818 33.4756 78.2481 33.2806 78.3807C33.0874 78.5114 32.9387 78.6818 32.8345 78.892C32.7304 79.1023 32.6783 79.3277 32.6783 79.5682V79.9545C32.6783 80.2841 32.7351 80.5634 32.8487 80.7926C32.9643 81.0199 33.1243 81.1932 33.3289 81.3125C33.5334 81.4299 33.7711 81.4886 34.0419 81.4886C34.2181 81.4886 34.3772 81.464 34.5192 81.4148C34.6631 81.3636 34.7872 81.2879 34.8914 81.1875C34.9955 81.0852 35.076 80.9583 35.1328 80.8068L35.7806 80.9886C35.7124 81.2083 35.5978 81.4015 35.4368 81.5682C35.2758 81.733 35.077 81.8617 34.8402 81.9545C34.6035 82.0455 34.3374 82.0909 34.0419 82.0909ZM39.6691 79.5114V80.1364H37.26V79.5114H39.6691ZM37.4191 77.6364V82H36.7486V77.6364H37.4191ZM40.1805 77.6364V82H39.51V77.6364H40.1805ZM40.819 83.25V81.375H41.1826C41.2716 81.2822 41.3483 81.1818 41.4127 81.0739C41.4771 80.9659 41.533 80.8381 41.5803 80.6903C41.6296 80.5407 41.6712 80.3589 41.7053 80.1449C41.7394 79.929 41.7697 79.6686 41.7962 79.3636L41.944 77.6364H44.7167V81.375H45.3872V83.25H44.7167V82H41.4894V83.25H40.819ZM41.944 81.375H44.0462V78.2614H42.569L42.4553 79.3636C42.408 79.8201 42.3493 80.2187 42.2792 80.5597C42.2091 80.9006 42.0974 81.1723 41.944 81.375ZM46.8275 81.0114L48.9298 77.6364H49.7025V82H49.0321V78.625L46.9412 82H46.1571V77.6364H46.8275V81.0114ZM53.731 79.5114V80.1364H51.3219V79.5114H53.731ZM51.481 77.6364V82H50.8105V77.6364H51.481ZM54.2423 77.6364V82H53.5719V77.6364H54.2423ZM58.0399 77.6364V78.2614H56.0172V82H55.3468V77.6364H58.0399ZM60.4448 82.0909C60.0509 82.0909 59.7052 81.9972 59.4079 81.8097C59.1124 81.6222 58.8814 81.3598 58.7147 81.0227C58.5499 80.6856 58.4675 80.2917 58.4675 79.8409C58.4675 79.3864 58.5499 78.9896 58.7147 78.6506C58.8814 78.3116 59.1124 78.0483 59.4079 77.8608C59.7052 77.6733 60.0509 77.5795 60.4448 77.5795C60.8387 77.5795 61.1834 77.6733 61.4789 77.8608C61.7762 78.0483 62.0073 78.3116 62.1721 78.6506C62.3387 78.9896 62.4221 79.3864 62.4221 79.8409C62.4221 80.2917 62.3387 80.6856 62.1721 81.0227C62.0073 81.3598 61.7762 81.6222 61.4789 81.8097C61.1834 81.9972 60.8387 82.0909 60.4448 82.0909ZM60.4448 81.4886C60.744 81.4886 60.9903 81.4119 61.1834 81.2585C61.3766 81.1051 61.5196 80.9034 61.6124 80.6534C61.7052 80.4034 61.7516 80.1326 61.7516 79.8409C61.7516 79.5492 61.7052 79.2775 61.6124 79.0256C61.5196 78.7737 61.3766 78.5701 61.1834 78.4148C60.9903 78.2595 60.744 78.1818 60.4448 78.1818C60.1456 78.1818 59.8993 78.2595 59.7062 78.4148C59.513 78.5701 59.37 78.7737 59.2772 79.0256C59.1844 79.2775 59.138 79.5492 59.138 79.8409C59.138 80.1326 59.1844 80.4034 59.2772 80.6534C59.37 80.9034 59.513 81.1051 59.7062 81.2585C59.8993 81.4119 60.1456 81.4886 60.4448 81.4886ZM63.3255 82V77.6364H65.1096C65.5793 77.6364 65.9524 77.7424 66.2289 77.9545C66.5054 78.1667 66.6437 78.447 66.6437 78.7955C66.6437 79.0606 66.5651 79.2661 66.4079 79.4119C66.2507 79.5559 66.049 79.6534 65.8028 79.7045C65.9638 79.7273 66.12 79.7841 66.2715 79.875C66.4249 79.9659 66.5518 80.0909 66.6522 80.25C66.7526 80.4072 66.8028 80.6004 66.8028 80.8295C66.8028 81.053 66.746 81.2528 66.6323 81.429C66.5187 81.6051 66.3558 81.7443 66.1437 81.8466C65.9316 81.9489 65.6778 82 65.3823 82H63.3255ZM63.9619 81.3864H65.3823C65.6134 81.3864 65.7943 81.3314 65.9249 81.2216C66.0556 81.1117 66.121 80.9621 66.121 80.7727C66.121 80.5473 66.0556 80.3703 65.9249 80.2415C65.7943 80.1108 65.6134 80.0455 65.3823 80.0455H63.9619V81.3864ZM63.9619 79.4659H65.1096C65.2895 79.4659 65.4439 79.4413 65.5727 79.392C65.7015 79.3409 65.7999 79.2689 65.8681 79.1761C65.9382 79.0814 65.9732 78.9697 65.9732 78.8409C65.9732 78.6572 65.8965 78.5133 65.7431 78.4091C65.5897 78.303 65.3785 78.25 65.1096 78.25H63.9619V79.4659ZM27.1477 93.25V91.375H27.5114C27.6004 91.2822 27.6771 91.1818 27.7415 91.0739C27.8059 90.9659 27.8617 90.8381 27.9091 90.6903C27.9583 90.5407 28 90.3589 28.0341 90.1449C28.0682 89.929 28.0985 89.6686 28.125 89.3636L28.2727 87.6364H31.0455V91.375H31.7159V93.25H31.0455V92H27.8182V93.25H27.1477ZM28.2727 91.375H30.375V88.2614H28.8977L28.7841 89.3636C28.7367 89.8201 28.678 90.2187 28.608 90.5597C28.5379 90.9006 28.4261 91.1723 28.2727 91.375ZM32.0995 92V91.375H32.2586C32.3892 91.375 32.4981 91.3494 32.5853 91.2983C32.6724 91.2453 32.7425 91.1534 32.7955 91.0227C32.8504 90.8902 32.8921 90.7064 32.9205 90.4716C32.9508 90.2348 32.9726 89.9337 32.9858 89.5682L33.0654 87.6364H35.9745V92H35.304V88.2614H33.7017L33.6336 89.8182C33.6184 90.1761 33.5862 90.4915 33.537 90.7642C33.4896 91.035 33.4167 91.2623 33.3182 91.446C33.2216 91.6297 33.0928 91.768 32.9318 91.8608C32.7709 91.9536 32.5692 92 32.3267 92H32.0995ZM39.7096 92V88.25H38.5505C38.2891 88.25 38.0836 88.3106 37.934 88.4318C37.7844 88.553 37.7096 88.7197 37.7096 88.9318C37.7096 89.1402 37.7768 89.304 37.9113 89.4233C38.0476 89.5426 38.2342 89.6023 38.4709 89.6023H39.88V90.2273H38.4709C38.1755 90.2273 37.9207 90.1752 37.7067 90.071C37.4927 89.9669 37.3279 89.8182 37.2124 89.625C37.0969 89.4299 37.0391 89.1989 37.0391 88.9318C37.0391 88.6629 37.0997 88.4318 37.2209 88.2386C37.3421 88.0455 37.5154 87.8968 37.7408 87.7926C37.9681 87.6884 38.238 87.6364 38.5505 87.6364H40.3459V92H39.7096ZM36.8005 92L38.0391 89.8295H38.7664L37.5278 92H36.8005ZM43.5868 92V87.6364H45.3709C45.8405 87.6364 46.2137 87.7424 46.4902 87.9545C46.7667 88.1667 46.9049 88.447 46.9049 88.7955C46.9049 89.0606 46.8263 89.2661 46.6691 89.4119C46.512 89.5559 46.3102 89.6534 46.064 89.7045C46.225 89.7273 46.3813 89.7841 46.5328 89.875C46.6862 89.9659 46.8131 90.0909 46.9135 90.25C47.0138 90.4072 47.064 90.6004 47.064 90.8295C47.064 91.053 47.0072 91.2528 46.8936 91.429C46.7799 91.6051 46.6171 91.7443 46.4049 91.8466C46.1928 91.9489 45.939 92 45.6436 92H43.5868ZM44.2231 91.3864H45.6436C45.8746 91.3864 46.0555 91.3314 46.1862 91.2216C46.3169 91.1117 46.3822 90.9621 46.3822 90.7727C46.3822 90.5473 46.3169 90.3703 46.1862 90.2415C46.0555 90.1108 45.8746 90.0455 45.6436 90.0455H44.2231V91.3864ZM44.2231 89.4659H45.3709C45.5508 89.4659 45.7051 89.4413 45.8339 89.392C45.9627 89.3409 46.0612 89.2689 46.1294 89.1761C46.1995 89.0814 46.2345 88.9697 46.2345 88.8409C46.2345 88.6572 46.1578 88.5133 46.0044 88.4091C45.851 88.303 45.6398 88.25 45.3709 88.25H44.2231V89.4659ZM49.243 92.1023C48.9665 92.1023 48.7156 92.0502 48.4902 91.946C48.2648 91.84 48.0858 91.6875 47.9533 91.4886C47.8207 91.2879 47.7544 91.0455 47.7544 90.7614C47.7544 90.5114 47.8036 90.3087 47.9021 90.1534C48.0006 89.9962 48.1322 89.8731 48.297 89.7841C48.4618 89.6951 48.6436 89.6288 48.8425 89.5852C49.0432 89.5398 49.2449 89.5038 49.4476 89.4773C49.7127 89.4432 49.9277 89.4176 50.0925 89.4006C50.2591 89.3816 50.3804 89.3504 50.4561 89.3068C50.5338 89.2633 50.5726 89.1875 50.5726 89.0795V89.0568C50.5726 88.7765 50.4959 88.5587 50.3425 88.4034C50.191 88.2481 49.9608 88.1705 49.6521 88.1705C49.3321 88.1705 49.0811 88.2405 48.8993 88.3807C48.7175 88.5208 48.5896 88.6705 48.5158 88.8295L47.8794 88.6023C47.993 88.3371 48.1446 88.1307 48.334 87.983C48.5252 87.8333 48.7336 87.7292 48.959 87.6705C49.1862 87.6098 49.4097 87.5795 49.6294 87.5795C49.7696 87.5795 49.9305 87.5966 50.1124 87.6307C50.2961 87.6629 50.4732 87.7301 50.6436 87.8324C50.816 87.9347 50.959 88.089 51.0726 88.2955C51.1862 88.5019 51.243 88.7784 51.243 89.125V92H50.5726V91.4091H50.5385C50.493 91.5038 50.4173 91.6051 50.3112 91.7131C50.2052 91.821 50.0641 91.9129 49.8879 91.9886C49.7118 92.0644 49.4968 92.1023 49.243 92.1023ZM49.3453 91.5C49.6105 91.5 49.834 91.4479 50.0158 91.3438C50.1995 91.2396 50.3377 91.1051 50.4305 90.9403C50.5252 90.7756 50.5726 90.6023 50.5726 90.4205V89.8068C50.5442 89.8409 50.4817 89.8722 50.3851 89.9006C50.2904 89.9271 50.1805 89.9508 50.0555 89.9716C49.9324 89.9905 49.8122 90.0076 49.6947 90.0227C49.5792 90.036 49.4855 90.0473 49.4135 90.0568C49.2393 90.0795 49.0764 90.1165 48.9249 90.1676C48.7752 90.2169 48.654 90.2917 48.5612 90.392C48.4703 90.4905 48.4249 90.625 48.4249 90.7955C48.4249 91.0284 48.511 91.2045 48.6834 91.3239C48.8576 91.4413 49.0783 91.5 49.3453 91.5ZM52.3468 87.6364H53.0172V91.375H54.6649V87.6364H55.3354V91.375H56.9831V87.6364H57.6536V92H52.3468V87.6364ZM60.5876 92.0909C60.1671 92.0909 59.8044 91.9981 59.4995 91.8125C59.1965 91.625 58.9626 91.3636 58.7978 91.0284C58.6349 90.6913 58.5535 90.2992 58.5535 89.8523C58.5535 89.4053 58.6349 89.0114 58.7978 88.6705C58.9626 88.3277 59.1917 88.0606 59.4853 87.8693C59.7807 87.6761 60.1254 87.5795 60.5194 87.5795C60.7466 87.5795 60.9711 87.6174 61.1927 87.6932C61.4143 87.7689 61.616 87.892 61.7978 88.0625C61.9796 88.2311 62.1245 88.4545 62.2324 88.733C62.3404 89.0114 62.3944 89.3542 62.3944 89.7614V90.0455H59.0307V89.4659H61.7126C61.7126 89.2197 61.6633 89 61.5648 88.8068C61.4682 88.6136 61.33 88.4612 61.1501 88.3494C60.972 88.2377 60.7618 88.1818 60.5194 88.1818C60.2523 88.1818 60.0213 88.2481 59.8262 88.3807C59.633 88.5114 59.4843 88.6818 59.3802 88.892C59.276 89.1023 59.2239 89.3277 59.2239 89.5682V89.9545C59.2239 90.2841 59.2807 90.5634 59.3944 90.7926C59.5099 91.0199 59.6699 91.1932 59.8745 91.3125C60.079 91.4299 60.3167 91.4886 60.5876 91.4886C60.7637 91.4886 60.9228 91.464 61.0648 91.4148C61.2088 91.3636 61.3328 91.2879 61.437 91.1875C61.5412 91.0852 61.6216 90.9583 61.6785 90.8068L62.3262 90.9886C62.258 91.2083 62.1434 91.4015 61.9824 91.5682C61.8215 91.733 61.6226 91.8617 61.3859 91.9545C61.1491 92.0455 60.883 92.0909 60.5876 92.0909ZM65.9874 87.6364V88.2614H63.9647V92H63.2943V87.6364H65.9874ZM68.3923 92.0909C67.9984 92.0909 67.6527 91.9972 67.3554 91.8097C67.0599 91.6222 66.8289 91.3598 66.6622 91.0227C66.4974 90.6856 66.415 90.2917 66.415 89.8409C66.415 89.3864 66.4974 88.9896 66.6622 88.6506C66.8289 88.3116 67.0599 88.0483 67.3554 87.8608C67.6527 87.6733 67.9984 87.5795 68.3923 87.5795C68.7862 87.5795 69.1309 87.6733 69.4264 87.8608C69.7237 88.0483 69.9548 88.3116 70.1196 88.6506C70.2862 88.9896 70.3696 89.3864 70.3696 89.8409C70.3696 90.2917 70.2862 90.6856 70.1196 91.0227C69.9548 91.3598 69.7237 91.6222 69.4264 91.8097C69.1309 91.9972 68.7862 92.0909 68.3923 92.0909ZM68.3923 91.4886C68.6915 91.4886 68.9378 91.4119 69.1309 91.2585C69.3241 91.1051 69.4671 90.9034 69.5599 90.6534C69.6527 90.4034 69.6991 90.1326 69.6991 89.8409C69.6991 89.5492 69.6527 89.2775 69.5599 89.0256C69.4671 88.7737 69.3241 88.5701 69.1309 88.4148C68.9378 88.2595 68.6915 88.1818 68.3923 88.1818C68.0931 88.1818 67.8468 88.2595 67.6537 88.4148C67.4605 88.5701 67.3175 88.7737 67.2247 89.0256C67.1319 89.2775 67.0855 89.5492 67.0855 89.8409C67.0855 90.1326 67.1319 90.4034 67.2247 90.6534C67.3175 90.9034 67.4605 91.1051 67.6537 91.2585C67.8468 91.4119 68.0931 91.4886 68.3923 91.4886ZM30.8523 96L31.1932 96.4091C31.0606 96.5379 30.9072 96.6278 30.733 96.679C30.5587 96.7301 30.3617 96.7614 30.142 96.7727C29.9223 96.7841 29.678 96.7955 29.4091 96.8068C29.1061 96.8182 28.8551 96.892 28.6562 97.0284C28.4574 97.1648 28.304 97.3617 28.196 97.6193C28.0881 97.8769 28.0189 98.1932 27.9886 98.5682H28.0455C28.1932 98.2955 28.3977 98.0947 28.6591 97.9659C28.9205 97.8371 29.2008 97.7727 29.5 97.7727C29.8409 97.7727 30.1477 97.8523 30.4205 98.0114C30.6932 98.1705 30.9091 98.4062 31.0682 98.7188C31.2273 99.0312 31.3068 99.4167 31.3068 99.875C31.3068 100.331 31.2254 100.725 31.0625 101.057C30.9015 101.388 30.6752 101.644 30.3835 101.824C30.0938 102.002 29.7538 102.091 29.3636 102.091C28.9735 102.091 28.6316 101.999 28.3381 101.815C28.0445 101.63 27.8163 101.355 27.6534 100.991C27.4905 100.626 27.4091 100.174 27.4091 99.6364V99.1705C27.4091 98.1989 27.5739 97.4621 27.9034 96.9602C28.2348 96.4583 28.733 96.1989 29.3977 96.1818C29.6326 96.1742 29.8419 96.1723 30.0256 96.1761C30.2093 96.1799 30.3693 96.1714 30.5057 96.1506C30.642 96.1297 30.7576 96.0795 30.8523 96ZM29.3636 101.489C29.6269 101.489 29.8532 101.422 30.0426 101.29C30.2339 101.157 30.3807 100.971 30.483 100.73C30.5852 100.488 30.6364 100.203 30.6364 99.875C30.6364 99.5568 30.5843 99.286 30.4801 99.0625C30.3778 98.839 30.2311 98.6686 30.0398 98.5511C29.8485 98.4337 29.6193 98.375 29.3523 98.375C29.1572 98.375 28.982 98.4081 28.8267 98.4744C28.6714 98.5407 28.5388 98.6383 28.429 98.767C28.3191 98.8958 28.2339 99.053 28.1733 99.2386C28.1146 99.4242 28.0833 99.6364 28.0795 99.875C28.0795 100.364 28.1941 100.755 28.4233 101.048C28.6525 101.342 28.9659 101.489 29.3636 101.489ZM32.8828 101.011L34.9851 97.6364H35.7578V102H35.0874V98.625L32.9965 102H32.2124V97.6364H32.8828V101.011ZM36.5931 100.886H37.309C37.3242 101.083 37.4132 101.233 37.5761 101.335C37.7408 101.438 37.9548 101.489 38.2181 101.489C38.487 101.489 38.7171 101.434 38.9084 101.324C39.0997 101.212 39.1954 101.032 39.1954 100.784C39.1954 100.638 39.1594 100.511 39.0874 100.403C39.0154 100.294 38.9141 100.208 38.7834 100.148C38.6528 100.087 38.4984 100.057 38.3204 100.057H37.5704V99.4545H38.3204C38.5874 99.4545 38.7844 99.3939 38.9113 99.2727C39.0401 99.1515 39.1045 99 39.1045 98.8182C39.1045 98.6231 39.0353 98.4669 38.8971 98.3494C38.7588 98.2301 38.5628 98.1705 38.309 98.1705C38.0533 98.1705 37.8403 98.2282 37.6698 98.3438C37.4993 98.4574 37.4094 98.6042 37.3999 98.7841H36.6954C36.7029 98.5492 36.7749 98.3419 36.9113 98.1619C37.0476 97.9801 37.2332 97.8381 37.4681 97.7358C37.7029 97.6316 37.9719 97.5795 38.2749 97.5795C38.5817 97.5795 38.8478 97.6335 39.0732 97.7415C39.3005 97.8475 39.4757 97.9924 39.5988 98.1761C39.7238 98.358 39.7863 98.5644 39.7863 98.7955C39.7863 99.0417 39.7171 99.2405 39.5789 99.392C39.4406 99.5436 39.2673 99.6515 39.059 99.7159V99.7614C39.2238 99.7727 39.3668 99.8258 39.488 99.9205C39.6111 100.013 39.7067 100.135 39.7749 100.287C39.8431 100.437 39.8772 100.602 39.8772 100.784C39.8772 101.049 39.8062 101.28 39.6641 101.477C39.5221 101.672 39.327 101.824 39.0789 101.932C38.8308 102.038 38.5476 102.091 38.2295 102.091C37.9207 102.091 37.6442 102.041 37.3999 101.94C37.1556 101.838 36.9615 101.697 36.8175 101.517C36.6755 101.335 36.6007 101.125 36.5931 100.886ZM43.6194 99.5114V100.136H41.2103V99.5114H43.6194ZM41.3694 97.6364V102H40.6989V97.6364H41.3694ZM44.1308 97.6364V102H43.4603V97.6364H44.1308ZM47.0647 102.091C46.6443 102.091 46.2816 101.998 45.9767 101.812C45.6736 101.625 45.4397 101.364 45.275 101.028C45.1121 100.691 45.0307 100.299 45.0307 99.8523C45.0307 99.4053 45.1121 99.0114 45.275 98.6705C45.4397 98.3277 45.6689 98.0606 45.9625 97.8693C46.2579 97.6761 46.6026 97.5795 46.9966 97.5795C47.2238 97.5795 47.4483 97.6174 47.6699 97.6932C47.8914 97.7689 48.0932 97.892 48.275 98.0625C48.4568 98.2311 48.6017 98.4545 48.7096 98.733C48.8176 99.0114 48.8716 99.3542 48.8716 99.7614V100.045H45.5079V99.4659H48.1897C48.1897 99.2197 48.1405 99 48.042 98.8068C47.9454 98.6136 47.8072 98.4612 47.6272 98.3494C47.4492 98.2377 47.239 98.1818 46.9966 98.1818C46.7295 98.1818 46.4985 98.2481 46.3034 98.3807C46.1102 98.5114 45.9615 98.6818 45.8574 98.892C45.7532 99.1023 45.7011 99.3277 45.7011 99.5682V99.9545C45.7011 100.284 45.7579 100.563 45.8716 100.793C45.9871 101.02 46.1471 101.193 46.3517 101.312C46.5562 101.43 46.7939 101.489 47.0647 101.489C47.2409 101.489 47.4 101.464 47.542 101.415C47.686 101.364 47.81 101.288 47.9142 101.188C48.0183 101.085 48.0988 100.958 48.1557 100.807L48.8034 100.989C48.7352 101.208 48.6206 101.402 48.4596 101.568C48.2986 101.733 48.0998 101.862 47.863 101.955C47.6263 102.045 47.3602 102.091 47.0647 102.091ZM51.5442 102.091C51.1351 102.091 50.7828 101.994 50.4874 101.801C50.1919 101.608 49.9646 101.342 49.8055 101.003C49.6465 100.664 49.5669 100.277 49.5669 99.8409C49.5669 99.3977 49.6483 99.0066 49.8112 98.6676C49.976 98.3267 50.2052 98.0606 50.4987 97.8693C50.7942 97.6761 51.1389 97.5795 51.5328 97.5795C51.8396 97.5795 52.1161 97.6364 52.3624 97.75C52.6086 97.8636 52.8103 98.0227 52.9675 98.2273C53.1247 98.4318 53.2222 98.6705 53.2601 98.9432H52.5896C52.5385 98.7443 52.4249 98.5682 52.2487 98.4148C52.0745 98.2595 51.8396 98.1818 51.5442 98.1818C51.2828 98.1818 51.0536 98.25 50.8567 98.3864C50.6616 98.5208 50.5091 98.7112 50.3993 98.9574C50.2913 99.2017 50.2374 99.4886 50.2374 99.8182C50.2374 100.155 50.2904 100.449 50.3965 100.699C50.5044 100.949 50.6559 101.143 50.851 101.281C51.048 101.42 51.279 101.489 51.5442 101.489C51.7184 101.489 51.8766 101.458 52.0186 101.398C52.1607 101.337 52.2809 101.25 52.3794 101.136C52.4779 101.023 52.548 100.886 52.5896 100.727H53.2601C53.2222 100.985 53.1285 101.217 52.9788 101.423C52.8311 101.628 52.6351 101.791 52.3908 101.912C52.1483 102.031 51.8661 102.091 51.5442 102.091ZM55.4043 102.102C55.1278 102.102 54.8768 102.05 54.6514 101.946C54.4261 101.84 54.2471 101.688 54.1145 101.489C53.9819 101.288 53.9157 101.045 53.9157 100.761C53.9157 100.511 53.9649 100.309 54.0634 100.153C54.1619 99.9962 54.2935 99.8731 54.4583 99.7841C54.623 99.6951 54.8049 99.6288 55.0037 99.5852C55.2045 99.5398 55.4062 99.5038 55.6088 99.4773C55.874 99.4432 56.0889 99.4176 56.2537 99.4006C56.4204 99.3816 56.5416 99.3504 56.6174 99.3068C56.695 99.2633 56.7338 99.1875 56.7338 99.0795V99.0568C56.7338 98.7765 56.6571 98.5587 56.5037 98.4034C56.3522 98.2481 56.1221 98.1705 55.8134 98.1705C55.4933 98.1705 55.2424 98.2405 55.0605 98.3807C54.8787 98.5208 54.7509 98.6705 54.677 98.8295L54.0407 98.6023C54.1543 98.3371 54.3058 98.1307 54.4952 97.983C54.6865 97.8333 54.8948 97.7292 55.1202 97.6705C55.3475 97.6098 55.571 97.5795 55.7907 97.5795C55.9308 97.5795 56.0918 97.5966 56.2736 97.6307C56.4573 97.6629 56.6344 97.7301 56.8049 97.8324C56.9772 97.9347 57.1202 98.089 57.2338 98.2955C57.3475 98.5019 57.4043 98.7784 57.4043 99.125V102H56.7338V101.409H56.6997C56.6543 101.504 56.5785 101.605 56.4725 101.713C56.3664 101.821 56.2253 101.913 56.0492 101.989C55.873 102.064 55.6581 102.102 55.4043 102.102ZM55.5066 101.5C55.7717 101.5 55.9952 101.448 56.177 101.344C56.3607 101.24 56.499 101.105 56.5918 100.94C56.6865 100.776 56.7338 100.602 56.7338 100.42V99.8068C56.7054 99.8409 56.6429 99.8722 56.5463 99.9006C56.4516 99.9271 56.3418 99.9508 56.2168 99.9716C56.0937 99.9905 55.9734 100.008 55.856 100.023C55.7405 100.036 55.6467 100.047 55.5747 100.057C55.4005 100.08 55.2376 100.116 55.0861 100.168C54.9365 100.217 54.8153 100.292 54.7225 100.392C54.6316 100.491 54.5861 100.625 54.5861 100.795C54.5861 101.028 54.6723 101.205 54.8446 101.324C55.0189 101.441 55.2395 101.5 55.5066 101.5Z" fill="black"/>
<path fill-rule="evenodd" clip-rule="evenodd" d="M123.5 65.8125C123.5 63.8731 124.27 62.0131 125.642 60.6418C127.013 59.2704 128.873 58.5 130.812 58.5H168.188C170.127 58.5 171.987 59.2704 173.358 60.6418C174.73 62.0131 175.5 63.8731 175.5 65.8125V93.4375C175.5 95.3769 174.73 97.2369 173.358 98.6082C171.987 99.9796 170.127 100.75 168.188 100.75H158.096C158.731 102.877 159.974 104.771 161.671 106.2C162.053 106.523 162.327 106.955 162.455 107.438C162.583 107.921 162.559 108.432 162.387 108.901C162.215 109.371 161.903 109.776 161.493 110.062C161.083 110.348 160.595 110.501 160.095 110.5H138.905C138.405 110.5 137.918 110.347 137.508 110.06C137.099 109.774 136.787 109.369 136.616 108.9C136.444 108.431 136.421 107.92 136.549 107.437C136.677 106.954 136.95 106.523 137.332 106.2C139.028 104.771 140.27 102.876 140.904 100.75H130.812C128.873 100.75 127.013 99.9796 125.642 98.6082C124.27 97.2369 123.5 95.3769 123.5 93.4375V65.8125ZM128.375 65.8125C128.375 65.166 128.632 64.546 129.089 64.0889C129.546 63.6318 130.166 63.375 130.812 63.375H168.188C168.834 63.375 169.454 63.6318 169.911 64.0889C170.368 64.546 170.625 65.166 170.625 65.8125V90.1875C170.625 90.834 170.368 91.454 169.911 91.9111C169.454 92.3682 168.834 92.625 168.188 92.625H130.812C130.166 92.625 129.546 92.3682 129.089 91.9111C128.632 91.454 128.375 90.834 128.375 90.1875V65.8125Z" fill="#353744"/>
<defs>
<filter id="filter0_d_4_16" x="3" y="4" width="194" height="137" filterUnits="userSpaceOnUse" color-interpolation-filters="sRGB">
<feFlood flood-opacity="0" result="BackgroundImageFix"/>
<feColorMatrix in="SourceAlpha" type="matrix" values="0 0 0 0 0 0 0 0 0 0 0 0 0 0 0 0 0 0 127 0" result="hardAlpha"/>
<feMorphology radius="2" operator="dilate" in="SourceAlpha" result="effect1_dropShadow_4_16"/>
<feOffset/>
<feGaussianBlur stdDeviation="5"/>
<feComposite in2="hardAlpha" operator="out"/>
<feColorMatrix type="matrix" values="0 0 0 0 0 0 0 0 0 0 0 0 0 0 0 0 0 0 0.35 0"/>
<feBlend mode="normal" in2="BackgroundImageFix" result="effect1_dropShadow_4_16"/>
<feBlend mode="normal" in="SourceGraphic" in2="effect1_dropShadow_4_16" result="shape"/>
</filter>
</defs>
</svg>
