<svg width="200" height="144" viewBox="0 0 200 144" fill="none" xmlns="http://www.w3.org/2000/svg">
<g filter="url(#filter0_d_4_40)">
<rect x="15" y="16" width="170" height="113" rx="13" fill="#F2F2F2"/>
</g>
<path d="M60.9213 32V23.2727H62.2381V27.0653H66.5889V23.2727H67.9099V32H66.5889V28.1946H62.2381V32H60.9213ZM69.6476 32V23.2727H72.7584C73.4345 23.2727 73.9956 23.3892 74.4416 23.6222C74.8905 23.8551 75.2257 24.1776 75.4473 24.5895C75.6689 24.9986 75.7797 25.4716 75.7797 26.0085C75.7797 26.5426 75.6674 27.0128 75.443 27.419C75.2214 27.8224 74.8862 28.1364 74.4373 28.3608C73.9913 28.5852 73.4302 28.6974 72.7541 28.6974H70.3976V27.5639H72.6348C73.0609 27.5639 73.4075 27.5028 73.6745 27.3807C73.9444 27.2585 74.1419 27.081 74.2669 26.848C74.3919 26.6151 74.4544 26.3352 74.4544 26.0085C74.4544 25.679 74.3905 25.3935 74.2626 25.152C74.1376 24.9105 73.9402 24.7259 73.6703 24.598C73.4032 24.4673 73.0524 24.402 72.6177 24.402H70.9643V32H69.6476ZM73.9558 28.0625L76.112 32H74.612L72.4984 28.0625H73.9558ZM77.2019 23.2727H78.7999L81.5784 30.0568H81.6806L84.459 23.2727H86.057V32H84.8042V25.6847H84.7232L82.1494 31.9872H81.1096L78.5357 25.6804H78.4548V32H77.2019V23.2727ZM93.4421 32.1321C92.8086 32.1321 92.2631 31.9886 91.8057 31.7017C91.3512 31.4119 91.0017 31.0128 90.7574 30.5043C90.5131 29.9957 90.3909 29.4134 90.3909 28.7571C90.3909 28.0923 90.5159 27.5057 90.7659 26.9972C91.0159 26.4858 91.3682 26.0866 91.8228 25.7997C92.2773 25.5128 92.8128 25.3693 93.4293 25.3693C93.9264 25.3693 94.3696 25.4616 94.7588 25.6463C95.148 25.8281 95.462 26.0838 95.7006 26.4134C95.9421 26.7429 96.0855 27.1278 96.131 27.5682H94.8909C94.8228 27.2614 94.6665 26.9972 94.4222 26.7756C94.1807 26.554 93.8568 26.4432 93.4506 26.4432C93.0955 26.4432 92.7844 26.5369 92.5174 26.7244C92.2532 26.9091 92.0472 27.1733 91.8995 27.517C91.7517 27.858 91.6779 28.2614 91.6779 28.7273C91.6779 29.2045 91.7503 29.6165 91.8952 29.9631C92.0401 30.3097 92.2446 30.5781 92.5088 30.7685C92.7759 30.9588 93.0898 31.054 93.4506 31.054C93.6921 31.054 93.9108 31.0099 94.1068 30.9219C94.3057 30.831 94.4719 30.7017 94.6054 30.5341C94.7418 30.3665 94.837 30.1648 94.8909 29.929H96.131C96.0855 30.3523 95.9478 30.7301 95.7176 31.0625C95.4875 31.3949 95.1793 31.6562 94.7929 31.8466C94.4094 32.0369 93.9591 32.1321 93.4421 32.1321ZM98.5621 30.2145L101.447 25.4545H102.819V32H101.571V27.2358L98.6985 32H97.3136V25.4545H98.5621V30.2145ZM107.109 32.1321C106.476 32.1321 105.93 31.9886 105.473 31.7017C105.019 31.4119 104.669 31.0128 104.425 30.5043C104.18 29.9957 104.058 29.4134 104.058 28.7571C104.058 28.0923 104.183 27.5057 104.433 26.9972C104.683 26.4858 105.036 26.0866 105.49 25.7997C105.945 25.5128 106.48 25.3693 107.097 25.3693C107.594 25.3693 108.037 25.4616 108.426 25.6463C108.815 25.8281 109.129 26.0838 109.368 26.4134C109.609 26.7429 109.753 27.1278 109.798 27.5682H108.558C108.49 27.2614 108.334 26.9972 108.09 26.7756C107.848 26.554 107.524 26.4432 107.118 26.4432C106.763 26.4432 106.452 26.5369 106.185 26.7244C105.92 26.9091 105.715 27.1733 105.567 27.517C105.419 27.858 105.345 28.2614 105.345 28.7273C105.345 29.2045 105.418 29.6165 105.563 29.9631C105.707 30.3097 105.912 30.5781 106.176 30.7685C106.443 30.9588 106.757 31.054 107.118 31.054C107.359 31.054 107.578 31.0099 107.774 30.9219C107.973 30.831 108.139 30.7017 108.273 30.5341C108.409 30.3665 108.504 30.1648 108.558 29.929H109.798C109.753 30.3523 109.615 30.7301 109.385 31.0625C109.155 31.3949 108.847 31.6562 108.46 31.8466C108.077 32.0369 107.626 32.1321 107.109 32.1321ZM110.486 26.554V25.4545H116.008V26.554H113.873V32H112.629V26.554H110.486ZM119.692 32.1321C119.047 32.1321 118.492 31.9943 118.026 31.7188C117.563 31.4403 117.205 31.0497 116.952 30.5469C116.702 30.0412 116.577 29.4489 116.577 28.7699C116.577 28.0994 116.702 27.5085 116.952 26.9972C117.205 26.4858 117.557 26.0866 118.009 25.7997C118.464 25.5128 118.995 25.3693 119.603 25.3693C119.972 25.3693 120.33 25.4304 120.677 25.5526C121.023 25.6747 121.334 25.8665 121.61 26.1278C121.885 26.3892 122.103 26.7287 122.262 27.1463C122.421 27.5611 122.5 28.0653 122.5 28.6591V29.1108H117.297V28.1562H121.252C121.252 27.821 121.184 27.5241 121.047 27.2656C120.911 27.0043 120.719 26.7983 120.472 26.6477C120.228 26.4972 119.941 26.4219 119.611 26.4219C119.253 26.4219 118.941 26.5099 118.674 26.6861C118.41 26.8594 118.205 27.0866 118.06 27.3679C117.918 27.6463 117.847 27.9489 117.847 28.2756V29.0213C117.847 29.4588 117.924 29.831 118.077 30.1378C118.233 30.4446 118.451 30.679 118.729 30.8409C119.008 31 119.333 31.0795 119.705 31.0795C119.947 31.0795 120.167 31.0455 120.366 30.9773C120.564 30.9062 120.736 30.8011 120.881 30.6619C121.026 30.5227 121.137 30.3509 121.214 30.1463L122.42 30.3636C122.323 30.7187 122.15 31.0298 121.9 31.2969C121.652 31.5611 121.341 31.767 120.966 31.9148C120.594 32.0597 120.17 32.1321 119.692 32.1321ZM127.407 30.4233L129.521 25.4545H130.621L127.88 32H126.934L124.25 25.4545H125.336L127.407 30.4233ZM124.983 25.4545V32H123.734V25.4545H124.983ZM129.866 32V25.4545H131.106V32H129.866ZM133.583 27.7045H135.484C136.285 27.7045 136.901 27.9034 137.333 28.3011C137.765 28.6989 137.981 29.2116 137.981 29.8395C137.981 30.2486 137.884 30.6165 137.691 30.9432C137.498 31.2699 137.215 31.5284 136.843 31.7188C136.471 31.9062 136.018 32 135.484 32H132.625V25.4545H133.873V30.9006H135.484C135.85 30.9006 136.151 30.8054 136.387 30.6151C136.623 30.4219 136.741 30.1761 136.741 29.8778C136.741 29.5625 136.623 29.3054 136.387 29.1065C136.151 28.9048 135.85 28.804 135.484 28.804H133.583V27.7045ZM138.91 32V25.4545H140.184V32H138.91Z" fill="#353744"/>
<path d="M21 60.9318C20.7708 60.9318 20.5616 60.8759 20.3722 60.7642C20.1828 60.6506 20.0313 60.4991 19.9176 60.3097C19.8059 60.1203 19.75 59.911 19.75 59.6818C19.75 59.4508 19.8059 59.2415 19.9176 59.054C20.0313 58.8646 20.1828 58.714 20.3722 58.6023C20.5616 58.4886 20.7708 58.4318 21 58.4318C21.2311 58.4318 21.4403 58.4886 21.6278 58.6023C21.8172 58.714 21.9678 58.8646 22.0795 59.054C22.1932 59.2415 22.25 59.4508 22.25 59.6818C22.25 59.911 22.1932 60.1203 22.0795 60.3097C21.9678 60.4991 21.8172 60.6506 21.6278 60.7642C21.4403 60.8759 21.2311 60.9318 21 60.9318ZM27.7045 62V56.1818H29.6705C30.1269 56.1818 30.5 56.2642 30.7898 56.429C31.0814 56.5919 31.2973 56.8125 31.4375 57.0909C31.5777 57.3693 31.6477 57.6799 31.6477 58.0227C31.6477 58.3655 31.5777 58.6771 31.4375 58.9574C31.2992 59.2377 31.0852 59.4612 30.7955 59.6278C30.5057 59.7926 30.1345 59.875 29.6818 59.875H28.2727V59.25H29.6591C29.9716 59.25 30.2225 59.196 30.4119 59.0881C30.6013 58.9801 30.7386 58.8343 30.8239 58.6506C30.911 58.465 30.9545 58.2557 30.9545 58.0227C30.9545 57.7898 30.911 57.5814 30.8239 57.3977C30.7386 57.214 30.6004 57.0701 30.4091 56.9659C30.2178 56.8598 29.964 56.8068 29.6477 56.8068H28.4091V62H27.7045ZM33.8559 62.1023C33.5793 62.1023 33.3284 62.0502 33.103 61.946C32.8776 61.84 32.6987 61.6875 32.5661 61.4886C32.4335 61.2879 32.3672 61.0455 32.3672 60.7614C32.3672 60.5114 32.4165 60.3087 32.5149 60.1534C32.6134 59.9962 32.7451 59.8731 32.9098 59.7841C33.0746 59.6951 33.2564 59.6288 33.4553 59.5852C33.656 59.5398 33.8577 59.5038 34.0604 59.4773C34.3255 59.4432 34.5405 59.4176 34.7053 59.4006C34.872 59.3816 34.9932 59.3504 35.0689 59.3068C35.1466 59.2633 35.1854 59.1875 35.1854 59.0795V59.0568C35.1854 58.7765 35.1087 58.5587 34.9553 58.4034C34.8038 58.2481 34.5737 58.1705 34.2649 58.1705C33.9449 58.1705 33.6939 58.2405 33.5121 58.3807C33.3303 58.5208 33.2024 58.6705 33.1286 58.8295L32.4922 58.6023C32.6059 58.3371 32.7574 58.1307 32.9468 57.983C33.138 57.8333 33.3464 57.7292 33.5718 57.6705C33.799 57.6098 34.0225 57.5795 34.2422 57.5795C34.3824 57.5795 34.5434 57.5966 34.7252 57.6307C34.9089 57.6629 35.086 57.7301 35.2564 57.8324C35.4288 57.9347 35.5718 58.089 35.6854 58.2955C35.799 58.5019 35.8559 58.7784 35.8559 59.125V62H35.1854V61.4091H35.1513C35.1059 61.5038 35.0301 61.6051 34.924 61.7131C34.818 61.821 34.6769 61.9129 34.5007 61.9886C34.3246 62.0644 34.1096 62.1023 33.8559 62.1023ZM33.9581 61.5C34.2233 61.5 34.4468 61.4479 34.6286 61.3438C34.8123 61.2396 34.9505 61.1051 35.0434 60.9403C35.138 60.7756 35.1854 60.6023 35.1854 60.4205V59.8068C35.157 59.8409 35.0945 59.8722 34.9979 59.9006C34.9032 59.9271 34.7934 59.9508 34.6684 59.9716C34.5452 59.9905 34.425 60.0076 34.3076 60.0227C34.192 60.036 34.0983 60.0473 34.0263 60.0568C33.8521 60.0795 33.6892 60.1165 33.5377 60.1676C33.388 60.2169 33.2668 60.2917 33.174 60.392C33.0831 60.4905 33.0377 60.625 33.0377 60.7955C33.0377 61.0284 33.1238 61.2045 33.2962 61.3239C33.4704 61.4413 33.6911 61.5 33.9581 61.5ZM36.6868 60.8864H37.4028C37.4179 61.0833 37.5069 61.233 37.6698 61.3352C37.8346 61.4375 38.0486 61.4886 38.3118 61.4886C38.5808 61.4886 38.8109 61.4337 39.0022 61.3239C39.1935 61.2121 39.2891 61.0322 39.2891 60.7841C39.2891 60.6383 39.2531 60.5114 39.1812 60.4034C39.1092 60.2936 39.0079 60.2083 38.8772 60.1477C38.7465 60.0871 38.5921 60.0568 38.4141 60.0568H37.6641V59.4545H38.4141C38.6812 59.4545 38.8781 59.3939 39.005 59.2727C39.1338 59.1515 39.1982 59 39.1982 58.8182C39.1982 58.6231 39.1291 58.4669 38.9908 58.3494C38.8526 58.2301 38.6565 58.1705 38.4028 58.1705C38.1471 58.1705 37.934 58.2282 37.7636 58.3438C37.5931 58.4574 37.5031 58.6042 37.4937 58.7841H36.7891C36.7967 58.5492 36.8687 58.3419 37.005 58.1619C37.1414 57.9801 37.327 57.8381 37.5618 57.7358C37.7967 57.6316 38.0656 57.5795 38.3687 57.5795C38.6755 57.5795 38.9416 57.6335 39.167 57.7415C39.3942 57.8475 39.5694 57.9924 39.6925 58.1761C39.8175 58.358 39.88 58.5644 39.88 58.7955C39.88 59.0417 39.8109 59.2405 39.6726 59.392C39.5344 59.5436 39.3611 59.6515 39.1528 59.7159V59.7614C39.3175 59.7727 39.4605 59.8258 39.5817 59.9205C39.7048 60.0133 39.8005 60.1354 39.8687 60.2869C39.9368 60.4366 39.9709 60.6023 39.9709 60.7841C39.9709 61.0492 39.8999 61.2803 39.7579 61.4773C39.6158 61.6723 39.4207 61.8239 39.1726 61.9318C38.9245 62.0379 38.6414 62.0909 38.3232 62.0909C38.0145 62.0909 37.738 62.0407 37.4937 61.9403C37.2493 61.8381 37.0552 61.697 36.9113 61.517C36.7692 61.3352 36.6944 61.125 36.6868 60.8864ZM40.7927 63.6364V57.6364H41.4404V58.3295H41.52C41.5692 58.2538 41.6374 58.1572 41.7245 58.0398C41.8135 57.9205 41.9404 57.8144 42.1052 57.7216C42.2719 57.6269 42.4972 57.5795 42.7813 57.5795C43.1488 57.5795 43.4726 57.6714 43.7529 57.8551C44.0332 58.0388 44.252 58.2992 44.4092 58.6364C44.5664 58.9735 44.645 59.3712 44.645 59.8295C44.645 60.2917 44.5664 60.6922 44.4092 61.0312C44.252 61.3684 44.0342 61.6297 43.7558 61.8153C43.4774 61.9991 43.1563 62.0909 42.7927 62.0909C42.5124 62.0909 42.288 62.0445 42.1194 61.9517C41.9508 61.857 41.8211 61.75 41.7302 61.6307C41.6393 61.5095 41.5692 61.4091 41.52 61.3295H41.4632V63.6364H40.7927ZM41.4518 59.8182C41.4518 60.1477 41.5001 60.4384 41.5967 60.6903C41.6933 60.9403 41.8344 61.1364 42.02 61.2784C42.2056 61.4186 42.4328 61.4886 42.7018 61.4886C42.9821 61.4886 43.216 61.4148 43.4035 61.267C43.5929 61.1174 43.7349 60.9167 43.8296 60.6648C43.9262 60.411 43.9745 60.1288 43.9745 59.8182C43.9745 59.5114 43.9272 59.2348 43.8325 58.9886C43.7397 58.7405 43.5986 58.5445 43.4092 58.4006C43.2217 58.2547 42.9859 58.1818 42.7018 58.1818C42.4291 58.1818 42.1999 58.2509 42.0143 58.3892C41.8287 58.5256 41.6885 58.7169 41.5938 58.9631C41.4991 59.2074 41.4518 59.4924 41.4518 59.8182ZM46.8318 62.1023C46.5553 62.1023 46.3043 62.0502 46.0789 61.946C45.8536 61.84 45.6746 61.6875 45.542 61.4886C45.4094 61.2879 45.3432 61.0455 45.3432 60.7614C45.3432 60.5114 45.3924 60.3087 45.4909 60.1534C45.5894 59.9962 45.721 59.8731 45.8858 59.7841C46.0505 59.6951 46.2324 59.6288 46.4312 59.5852C46.632 59.5398 46.8337 59.5038 47.0363 59.4773C47.3015 59.4432 47.5164 59.4176 47.6812 59.4006C47.8479 59.3816 47.9691 59.3504 48.0449 59.3068C48.1225 59.2633 48.1613 59.1875 48.1613 59.0795V59.0568C48.1613 58.7765 48.0846 58.5587 47.9312 58.4034C47.7797 58.2481 47.5496 58.1705 47.2409 58.1705C46.9208 58.1705 46.6699 58.2405 46.488 58.3807C46.3062 58.5208 46.1784 58.6705 46.1045 58.8295L45.4682 58.6023C45.5818 58.3371 45.7333 58.1307 45.9227 57.983C46.114 57.8333 46.3223 57.7292 46.5477 57.6705C46.775 57.6098 46.9985 57.5795 47.2182 57.5795C47.3583 57.5795 47.5193 57.5966 47.7011 57.6307C47.8848 57.6629 48.0619 57.7301 48.2324 57.8324C48.4047 57.9347 48.5477 58.089 48.6613 58.2955C48.775 58.5019 48.8318 58.7784 48.8318 59.125V62H48.1613V61.4091H48.1272C48.0818 61.5038 48.006 61.6051 47.9 61.7131C47.7939 61.821 47.6528 61.9129 47.4767 61.9886C47.3005 62.0644 47.0856 62.1023 46.8318 62.1023ZM46.9341 61.5C47.1992 61.5 47.4227 61.4479 47.6045 61.3438C47.7882 61.2396 47.9265 61.1051 48.0193 60.9403C48.114 60.7756 48.1613 60.6023 48.1613 60.4205V59.8068C48.1329 59.8409 48.0704 59.8722 47.9738 59.9006C47.8791 59.9271 47.7693 59.9508 47.6443 59.9716C47.5212 59.9905 47.4009 60.0076 47.2835 60.0227C47.168 60.036 47.0742 60.0473 47.0022 60.0568C46.828 60.0795 46.6651 60.1165 46.5136 60.1676C46.364 60.2169 46.2428 60.2917 46.15 60.392C46.0591 60.4905 46.0136 60.625 46.0136 60.7955C46.0136 61.0284 46.0998 61.2045 46.2721 61.3239C46.4464 61.4413 46.667 61.5 46.9341 61.5ZM53.1741 56L53.5151 56.4091C53.3825 56.5379 53.2291 56.6278 53.0548 56.679C52.8806 56.7301 52.6836 56.7614 52.4639 56.7727C52.2442 56.7841 51.9999 56.7955 51.731 56.8068C51.4279 56.8182 51.177 56.892 50.9781 57.0284C50.7793 57.1648 50.6259 57.3617 50.5179 57.6193C50.4099 57.8769 50.3408 58.1932 50.3105 58.5682H50.3673C50.5151 58.2955 50.7196 58.0947 50.981 57.9659C51.2423 57.8371 51.5226 57.7727 51.8219 57.7727C52.1628 57.7727 52.4696 57.8523 52.7423 58.0114C53.0151 58.1705 53.231 58.4062 53.3901 58.7188C53.5491 59.0312 53.6287 59.4167 53.6287 59.875C53.6287 60.3314 53.5473 60.7254 53.3844 61.0568C53.2234 61.3883 52.9971 61.6439 52.7054 61.8239C52.4156 62.0019 52.0757 62.0909 51.6855 62.0909C51.2954 62.0909 50.9535 61.9991 50.6599 61.8153C50.3664 61.6297 50.1382 61.3551 49.9753 60.9915C49.8124 60.6259 49.731 60.1742 49.731 59.6364V59.1705C49.731 58.1989 49.8957 57.4621 50.2253 56.9602C50.5567 56.4583 51.0548 56.1989 51.7196 56.1818C51.9545 56.1742 52.1637 56.1723 52.3474 56.1761C52.5312 56.1799 52.6912 56.1714 52.8276 56.1506C52.9639 56.1297 53.0795 56.0795 53.1741 56ZM51.6855 61.4886C51.9488 61.4886 52.1751 61.4223 52.3645 61.2898C52.5558 61.1572 52.7026 60.9706 52.8048 60.7301C52.9071 60.4877 52.9582 60.2027 52.9582 59.875C52.9582 59.5568 52.9062 59.286 52.802 59.0625C52.6997 58.839 52.5529 58.6686 52.3616 58.5511C52.1704 58.4337 51.9412 58.375 51.6741 58.375C51.4791 58.375 51.3039 58.4081 51.1486 58.4744C50.9933 58.5407 50.8607 58.6383 50.7509 58.767C50.641 58.8958 50.5558 59.053 50.4952 59.2386C50.4365 59.4242 50.4052 59.6364 50.4014 59.875C50.4014 60.3636 50.516 60.7547 50.7452 61.0483C50.9743 61.3419 51.2878 61.4886 51.6855 61.4886ZM56.307 62.0909C55.913 62.0909 55.5674 61.9972 55.2701 61.8097C54.9746 61.6222 54.7435 61.3598 54.5769 61.0227C54.4121 60.6856 54.3297 60.2917 54.3297 59.8409C54.3297 59.3864 54.4121 58.9896 54.5769 58.6506C54.7435 58.3116 54.9746 58.0483 55.2701 57.8608C55.5674 57.6733 55.913 57.5795 56.307 57.5795C56.7009 57.5795 57.0456 57.6733 57.3411 57.8608C57.6384 58.0483 57.8695 58.3116 58.0343 58.6506C58.2009 58.9896 58.2843 59.3864 58.2843 59.8409C58.2843 60.2917 58.2009 60.6856 58.0343 61.0227C57.8695 61.3598 57.6384 61.6222 57.3411 61.8097C57.0456 61.9972 56.7009 62.0909 56.307 62.0909ZM56.307 61.4886C56.6062 61.4886 56.8524 61.4119 57.0456 61.2585C57.2388 61.1051 57.3818 60.9034 57.4746 60.6534C57.5674 60.4034 57.6138 60.1326 57.6138 59.8409C57.6138 59.5492 57.5674 59.2775 57.4746 59.0256C57.3818 58.7737 57.2388 58.5701 57.0456 58.4148C56.8524 58.2595 56.6062 58.1818 56.307 58.1818C56.0077 58.1818 55.7615 58.2595 55.5684 58.4148C55.3752 58.5701 55.2322 58.7737 55.1394 59.0256C55.0466 59.2775 55.0002 59.5492 55.0002 59.8409C55.0002 60.1326 55.0466 60.4034 55.1394 60.6534C55.2322 60.9034 55.3752 61.1051 55.5684 61.2585C55.7615 61.4119 56.0077 61.4886 56.307 61.4886ZM58.6174 58.2614V57.6364H62.1628V58.2614H60.731V62H60.0606V58.2614H58.6174ZM63.0208 62V57.6364H63.6913V59.5341H64.1345L65.7026 57.6364H66.5663L64.8049 59.7386L66.589 62H65.7254L64.2936 60.1591H63.6913V62H63.0208ZM68.4818 62.1023C68.2053 62.1023 67.9543 62.0502 67.7289 61.946C67.5036 61.84 67.3246 61.6875 67.192 61.4886C67.0594 61.2879 66.9932 61.0455 66.9932 60.7614C66.9932 60.5114 67.0424 60.3087 67.1409 60.1534C67.2394 59.9962 67.371 59.8731 67.5358 59.7841C67.7005 59.6951 67.8824 59.6288 68.0812 59.5852C68.282 59.5398 68.4837 59.5038 68.6863 59.4773C68.9515 59.4432 69.1664 59.4176 69.3312 59.4006C69.4979 59.3816 69.6191 59.3504 69.6949 59.3068C69.7725 59.2633 69.8113 59.1875 69.8113 59.0795V59.0568C69.8113 58.7765 69.7346 58.5587 69.5812 58.4034C69.4297 58.2481 69.1996 58.1705 68.8909 58.1705C68.5708 58.1705 68.3199 58.2405 68.138 58.3807C67.9562 58.5208 67.8284 58.6705 67.7545 58.8295L67.1182 58.6023C67.2318 58.3371 67.3833 58.1307 67.5727 57.983C67.764 57.8333 67.9723 57.7292 68.1977 57.6705C68.425 57.6098 68.6485 57.5795 68.8682 57.5795C69.0083 57.5795 69.1693 57.5966 69.3511 57.6307C69.5348 57.6629 69.7119 57.7301 69.8824 57.8324C70.0547 57.9347 70.1977 58.089 70.3113 58.2955C70.425 58.5019 70.4818 58.7784 70.4818 59.125V62H69.8113V61.4091H69.7772C69.7318 61.5038 69.656 61.6051 69.55 61.7131C69.4439 61.821 69.3028 61.9129 69.1267 61.9886C68.9505 62.0644 68.7356 62.1023 68.4818 62.1023ZM68.5841 61.5C68.8492 61.5 69.0727 61.4479 69.2545 61.3438C69.4382 61.2396 69.5765 61.1051 69.6693 60.9403C69.764 60.7756 69.8113 60.6023 69.8113 60.4205V59.8068C69.7829 59.8409 69.7204 59.8722 69.6238 59.9006C69.5291 59.9271 69.4193 59.9508 69.2943 59.9716C69.1712 59.9905 69.0509 60.0076 68.9335 60.0227C68.818 60.036 68.7242 60.0473 68.6522 60.0568C68.478 60.0795 68.3151 60.1165 68.1636 60.1676C68.014 60.2169 67.8928 60.2917 67.8 60.392C67.7091 60.4905 67.6636 60.625 67.6636 60.7955C67.6636 61.0284 67.7498 61.2045 67.9221 61.3239C68.0964 61.4413 68.317 61.5 68.5841 61.5ZM31.0455 67.6364V71.375H31.6591V73.4091H30.9886V72H27.6136V67.6364H28.2841V71.375H30.375V67.6364H31.0455ZM33.2422 71.0114L35.3445 67.6364H36.1172V72H35.4468V68.625L33.3559 72H32.5718V67.6364H33.2422V71.0114ZM38.9979 73.4886V66.1818H39.6684V73.4886H38.9979ZM38.9979 72.0909C38.7025 72.0909 38.4335 72.0379 38.1911 71.9318C37.9487 71.8239 37.7404 71.6714 37.5661 71.4744C37.3919 71.2756 37.2574 71.0379 37.1627 70.7614C37.068 70.4848 37.0207 70.178 37.0207 69.8409C37.0207 69.5 37.068 69.1913 37.1627 68.9148C37.2574 68.6364 37.3919 68.3977 37.5661 68.1989C37.7404 68 37.9487 67.8475 38.1911 67.7415C38.4335 67.6335 38.7025 67.5795 38.9979 67.5795H39.2025V72.0909H38.9979ZM38.9979 71.4886H39.1116V68.1818H38.9979C38.7744 68.1818 38.5803 68.2273 38.4155 68.3182C38.2508 68.4072 38.1144 68.5294 38.0064 68.6847C37.9004 68.8381 37.8208 69.0142 37.7678 69.2131C37.7167 69.4119 37.6911 69.6212 37.6911 69.8409C37.6911 70.1326 37.7375 70.4034 37.8303 70.6534C37.9231 70.9034 38.0661 71.1051 38.2593 71.2585C38.4525 71.4119 38.6987 71.4886 38.9979 71.4886ZM39.6684 72.0909H39.4638V67.5795H39.6684C39.9638 67.5795 40.2328 67.6335 40.4752 67.7415C40.7176 67.8475 40.926 68 41.1002 68.1989C41.2744 68.3977 41.4089 68.6364 41.5036 68.9148C41.5983 69.1913 41.6457 69.5 41.6457 69.8409C41.6457 70.178 41.5983 70.4848 41.5036 70.7614C41.4089 71.0379 41.2744 71.2756 41.1002 71.4744C40.926 71.6714 40.7176 71.8239 40.4752 71.9318C40.2328 72.0379 39.9638 72.0909 39.6684 72.0909ZM39.6684 71.4886C39.8938 71.4886 40.0879 71.4451 40.2508 71.358C40.4155 71.2689 40.551 71.1477 40.657 70.9943C40.765 70.839 40.8445 70.6629 40.8957 70.4659C40.9487 70.267 40.9752 70.0587 40.9752 69.8409C40.9752 69.5492 40.9288 69.2775 40.836 69.0256C40.7432 68.7737 40.6002 68.5701 40.407 68.4148C40.2138 68.2595 39.9676 68.1818 39.6684 68.1818H39.5547V71.4886H39.6684ZM42.5505 73.6364V67.6364H43.1982V68.3295H43.2778C43.327 68.2538 43.3952 68.1572 43.4823 68.0398C43.5713 67.9205 43.6982 67.8144 43.863 67.7216C44.0297 67.6269 44.2551 67.5795 44.5391 67.5795C44.9066 67.5795 45.2304 67.6714 45.5107 67.8551C45.791 68.0388 46.0098 68.2992 46.167 68.6364C46.3242 68.9735 46.4028 69.3712 46.4028 69.8295C46.4028 70.2917 46.3242 70.6922 46.167 71.0312C46.0098 71.3684 45.792 71.6297 45.5136 71.8153C45.2352 71.9991 44.9141 72.0909 44.5505 72.0909C44.2702 72.0909 44.0458 72.0445 43.8772 71.9517C43.7087 71.857 43.5789 71.75 43.488 71.6307C43.3971 71.5095 43.327 71.4091 43.2778 71.3295H43.221V73.6364H42.5505ZM43.2096 69.8182C43.2096 70.1477 43.2579 70.4384 43.3545 70.6903C43.4511 70.9403 43.5922 71.1364 43.7778 71.2784C43.9634 71.4186 44.1907 71.4886 44.4596 71.4886C44.7399 71.4886 44.9738 71.4148 45.1613 71.267C45.3507 71.1174 45.4927 70.9167 45.5874 70.6648C45.684 70.411 45.7323 70.1288 45.7323 69.8182C45.7323 69.5114 45.685 69.2348 45.5903 68.9886C45.4975 68.7405 45.3564 68.5445 45.167 68.4006C44.9795 68.2547 44.7437 68.1818 44.4596 68.1818C44.1869 68.1818 43.9577 68.2509 43.7721 68.3892C43.5865 68.5256 43.4463 68.7169 43.3516 68.9631C43.257 69.2074 43.2096 69.4924 43.2096 69.8182ZM49.0782 72.0909C48.6843 72.0909 48.3387 71.9972 48.0413 71.8097C47.7459 71.6222 47.5148 71.3598 47.3481 71.0227C47.1834 70.6856 47.101 70.2917 47.101 69.8409C47.101 69.3864 47.1834 68.9896 47.3481 68.6506C47.5148 68.3116 47.7459 68.0483 48.0413 67.8608C48.3387 67.6733 48.6843 67.5795 49.0782 67.5795C49.4722 67.5795 49.8169 67.6733 50.1123 67.8608C50.4097 68.0483 50.6407 68.3116 50.8055 68.6506C50.9722 68.9896 51.0555 69.3864 51.0555 69.8409C51.0555 70.2917 50.9722 70.6856 50.8055 71.0227C50.6407 71.3598 50.4097 71.6222 50.1123 71.8097C49.8169 71.9972 49.4722 72.0909 49.0782 72.0909ZM49.0782 71.4886C49.3775 71.4886 49.6237 71.4119 49.8169 71.2585C50.0101 71.1051 50.153 70.9034 50.2459 70.6534C50.3387 70.4034 50.3851 70.1326 50.3851 69.8409C50.3851 69.5492 50.3387 69.2775 50.2459 69.0256C50.153 68.7737 50.0101 68.5701 49.8169 68.4148C49.6237 68.2595 49.3775 68.1818 49.0782 68.1818C48.779 68.1818 48.5328 68.2595 48.3396 68.4148C48.1464 68.5701 48.0034 68.7737 47.9106 69.0256C47.8178 69.2775 47.7714 69.5492 47.7714 69.8409C47.7714 70.1326 47.8178 70.4034 47.9106 70.6534C48.0034 70.9034 48.1464 71.1051 48.3396 71.2585C48.5328 71.4119 48.779 71.4886 49.0782 71.4886ZM51.959 72V67.6364H53.743C54.2127 67.6364 54.5858 67.7424 54.8624 67.9545C55.1389 68.1667 55.2771 68.447 55.2771 68.7955C55.2771 69.0606 55.1985 69.2661 55.0413 69.4119C54.8841 69.5559 54.6824 69.6534 54.4362 69.7045C54.5972 69.7273 54.7535 69.7841 54.905 69.875C55.0584 69.9659 55.1853 70.0909 55.2857 70.25C55.386 70.4072 55.4362 70.6004 55.4362 70.8295C55.4362 71.053 55.3794 71.2528 55.2658 71.429C55.1521 71.6051 54.9893 71.7443 54.7771 71.8466C54.565 71.9489 54.3112 72 54.0158 72H51.959ZM52.5953 71.3864H54.0158C54.2468 71.3864 54.4277 71.3314 54.5584 71.2216C54.6891 71.1117 54.7544 70.9621 54.7544 70.7727C54.7544 70.5473 54.6891 70.3703 54.5584 70.2415C54.4277 70.1108 54.2468 70.0455 54.0158 70.0455H52.5953V71.3864ZM52.5953 69.4659H53.743C53.923 69.4659 54.0773 69.4413 54.2061 69.392C54.3349 69.3409 54.4334 69.2689 54.5016 69.1761C54.5716 69.0814 54.6067 68.9697 54.6067 68.8409C54.6067 68.6572 54.53 68.5133 54.3766 68.4091C54.2232 68.303 54.012 68.25 53.743 68.25H52.5953V69.4659ZM56.9107 69.2159H58.1607C58.672 69.2159 59.0631 69.3456 59.334 69.6051C59.6048 69.8646 59.7402 70.1932 59.7402 70.5909C59.7402 70.8523 59.6796 71.09 59.5584 71.304C59.4372 71.5161 59.2592 71.6856 59.0243 71.8125C58.7895 71.9375 58.5016 72 58.1607 72H56.3311V67.6364H57.0016V71.375H58.1607C58.4258 71.375 58.6436 71.3049 58.8141 71.1648C58.9845 71.0246 59.0698 70.8447 59.0698 70.625C59.0698 70.3939 58.9845 70.2055 58.8141 70.0597C58.6436 69.9138 58.4258 69.8409 58.1607 69.8409H56.9107V69.2159ZM60.4334 72V67.6364H61.1039V72H60.4334ZM62.7111 67.6364L63.7566 69.4205L64.802 67.6364H65.5748L64.1657 69.8182L65.5748 72H64.802L63.7566 70.3068L62.7111 72H61.9384L63.3248 69.8182L61.9384 67.6364H62.7111ZM29.3864 82.0909C28.9773 82.0909 28.625 81.9943 28.3295 81.8011C28.0341 81.608 27.8068 81.3419 27.6477 81.0028C27.4886 80.6638 27.4091 80.2765 27.4091 79.8409C27.4091 79.3977 27.4905 79.0066 27.6534 78.6676C27.8182 78.3267 28.0473 78.0606 28.3409 77.8693C28.6364 77.6761 28.9811 77.5795 29.375 77.5795C29.6818 77.5795 29.9583 77.6364 30.2045 77.75C30.4508 77.8636 30.6525 78.0227 30.8097 78.2273C30.9669 78.4318 31.0644 78.6705 31.1023 78.9432H30.4318C30.3807 78.7443 30.267 78.5682 30.0909 78.4148C29.9167 78.2595 29.6818 78.1818 29.3864 78.1818C29.125 78.1818 28.8958 78.25 28.6989 78.3864C28.5038 78.5208 28.3513 78.7112 28.2415 78.9574C28.1335 79.2017 28.0795 79.4886 28.0795 79.8182C28.0795 80.1553 28.1326 80.4489 28.2386 80.6989C28.3466 80.9489 28.4981 81.143 28.6932 81.2812C28.8902 81.4195 29.1212 81.4886 29.3864 81.4886C29.5606 81.4886 29.7188 81.4583 29.8608 81.3977C30.0028 81.3371 30.1231 81.25 30.2216 81.1364C30.3201 81.0227 30.3902 80.8864 30.4318 80.7273H31.1023C31.0644 80.9848 30.9706 81.2169 30.821 81.4233C30.6733 81.6278 30.4773 81.7907 30.233 81.9119C29.9905 82.0312 29.7083 82.0909 29.3864 82.0909ZM32.6328 81.0114L34.7351 77.6364H35.5078V82H34.8374V78.625L32.7465 82H31.9624V77.6364H32.6328V81.0114ZM38.3886 82.0909C37.9795 82.0909 37.6272 81.9943 37.3317 81.8011C37.0363 81.608 36.809 81.3419 36.6499 81.0028C36.4908 80.6638 36.4113 80.2765 36.4113 79.8409C36.4113 79.3977 36.4927 79.0066 36.6556 78.6676C36.8204 78.3267 37.0495 78.0606 37.3431 77.8693C37.6386 77.6761 37.9832 77.5795 38.3772 77.5795C38.684 77.5795 38.9605 77.6364 39.2067 77.75C39.4529 77.8636 39.6546 78.0227 39.8118 78.2273C39.969 78.4318 40.0666 78.6705 40.1045 78.9432H39.434C39.3829 78.7443 39.2692 78.5682 39.0931 78.4148C38.9189 78.2595 38.684 78.1818 38.3886 78.1818C38.1272 78.1818 37.898 78.25 37.7011 78.3864C37.506 78.5208 37.3535 78.7112 37.2437 78.9574C37.1357 79.2017 37.0817 79.4886 37.0817 79.8182C37.0817 80.1553 37.1348 80.4489 37.2408 80.6989C37.3488 80.9489 37.5003 81.143 37.6954 81.2812C37.8923 81.4195 38.1234 81.4886 38.3886 81.4886C38.5628 81.4886 38.7209 81.4583 38.863 81.3977C39.005 81.3371 39.1253 81.25 39.2238 81.1364C39.3223 81.0227 39.3923 80.8864 39.434 80.7273H40.1045C40.0666 80.9848 39.9728 81.2169 39.8232 81.4233C39.6755 81.6278 39.4795 81.7907 39.2351 81.9119C38.9927 82.0312 38.7105 82.0909 38.3886 82.0909ZM40.6208 78.2614V77.6364H44.1663V78.2614H42.7345V82H42.064V78.2614H40.6208ZM46.6272 82.0909C46.2068 82.0909 45.8441 81.9981 45.5392 81.8125C45.2361 81.625 45.0022 81.3636 44.8375 81.0284C44.6746 80.6913 44.5932 80.2992 44.5932 79.8523C44.5932 79.4053 44.6746 79.0114 44.8375 78.6705C45.0022 78.3277 45.2314 78.0606 45.525 77.8693C45.8204 77.6761 46.1651 77.5795 46.5591 77.5795C46.7863 77.5795 47.0108 77.6174 47.2324 77.6932C47.4539 77.7689 47.6557 77.892 47.8375 78.0625C48.0193 78.2311 48.1642 78.4545 48.2721 78.733C48.3801 79.0114 48.4341 79.3542 48.4341 79.7614V80.0455H45.0704V79.4659H47.7522C47.7522 79.2197 47.703 79 47.6045 78.8068C47.5079 78.6136 47.3697 78.4612 47.1897 78.3494C47.0117 78.2377 46.8015 78.1818 46.5591 78.1818C46.292 78.1818 46.061 78.2481 45.8659 78.3807C45.6727 78.5114 45.524 78.6818 45.4199 78.892C45.3157 79.1023 45.2636 79.3277 45.2636 79.5682V79.9545C45.2636 80.2841 45.3204 80.5634 45.4341 80.7926C45.5496 81.0199 45.7096 81.1932 45.9142 81.3125C46.1187 81.4299 46.3564 81.4886 46.6272 81.4886C46.8034 81.4886 46.9625 81.464 47.1045 81.4148C47.2485 81.3636 47.3725 81.2879 47.4767 81.1875C47.5808 81.0852 47.6613 80.9583 47.7182 80.8068L48.3659 80.9886C48.2977 81.2083 48.1831 81.4015 48.0221 81.5682C47.8611 81.733 47.6623 81.8617 47.4255 81.9545C47.1888 82.0455 46.9227 82.0909 46.6272 82.0909ZM51.7203 81.0909L53.243 77.6364H53.8794L51.993 82H51.4476L49.5953 77.6364H50.2203L51.7203 81.0909ZM50.0044 77.6364V82H49.334V77.6364H50.0044ZM53.4362 82V77.6364H54.1067V82H53.4362ZM56.878 83.25V81.375H57.2417C57.3307 81.2822 57.4074 81.1818 57.4718 81.0739C57.5362 80.9659 57.5921 80.8381 57.6394 80.6903C57.6886 80.5407 57.7303 80.3589 57.7644 80.1449C57.7985 79.929 57.8288 79.6686 57.8553 79.3636L58.003 77.6364H60.7758V81.375H61.4462V83.25H60.7758V82H57.5485V83.25H56.878ZM58.003 81.375H60.1053V78.2614H58.628L58.5144 79.3636C58.4671 79.8201 58.4083 80.2187 58.3383 80.5597C58.2682 80.9006 58.1564 81.1723 58.003 81.375ZM61.8298 82V81.375H61.9889C62.1195 81.375 62.2284 81.3494 62.3156 81.2983C62.4027 81.2453 62.4728 81.1534 62.5258 81.0227C62.5807 80.8902 62.6224 80.7064 62.6508 80.4716C62.6811 80.2348 62.7029 79.9337 62.7161 79.5682L62.7957 77.6364H65.7048V82H65.0343V78.2614H63.432L63.3639 79.8182C63.3487 80.1761 63.3165 80.4915 63.2673 80.7642C63.2199 81.035 63.147 81.2623 63.0485 81.446C62.9519 81.6297 62.8231 81.768 62.6622 81.8608C62.5012 81.9536 62.2995 82 62.057 82H61.8298ZM69.4399 82V78.25H68.2808C68.0194 78.25 67.8139 78.3106 67.6643 78.4318C67.5147 78.553 67.4399 78.7197 67.4399 78.9318C67.4399 79.1402 67.5071 79.304 67.6416 79.4233C67.778 79.5426 67.9645 79.6023 68.2012 79.6023H69.6103V80.2273H68.2012C67.9058 80.2273 67.6511 80.1752 67.437 80.071C67.223 79.9669 67.0583 79.8182 66.9427 79.625C66.8272 79.4299 66.7694 79.1989 66.7694 78.9318C66.7694 78.6629 66.83 78.4318 66.9512 78.2386C67.0725 78.0455 67.2458 77.8968 67.4711 77.7926C67.6984 77.6884 67.9683 77.6364 68.2808 77.6364H70.0762V82H69.4399ZM66.5308 82L67.7694 79.8295H68.4967L67.2581 82H66.5308ZM27.6136 93.6364V87.6364H28.2614V88.3295H28.3409C28.3902 88.2538 28.4583 88.1572 28.5455 88.0398C28.6345 87.9205 28.7614 87.8144 28.9261 87.7216C29.0928 87.6269 29.3182 87.5795 29.6023 87.5795C29.9697 87.5795 30.2936 87.6714 30.5739 87.8551C30.8542 88.0388 31.0729 88.2992 31.2301 88.6364C31.3873 88.9735 31.4659 89.3712 31.4659 89.8295C31.4659 90.2917 31.3873 90.6922 31.2301 91.0312C31.0729 91.3684 30.8551 91.6297 30.5767 91.8153C30.2983 91.9991 29.9773 92.0909 29.6136 92.0909C29.3333 92.0909 29.1089 92.0445 28.9403 91.9517C28.7718 91.857 28.642 91.75 28.5511 91.6307C28.4602 91.5095 28.3902 91.4091 28.3409 91.3295H28.2841V93.6364H27.6136ZM28.2727 89.8182C28.2727 90.1477 28.321 90.4384 28.4176 90.6903C28.5142 90.9403 28.6553 91.1364 28.8409 91.2784C29.0265 91.4186 29.2538 91.4886 29.5227 91.4886C29.803 91.4886 30.0369 91.4148 30.2244 91.267C30.4138 91.1174 30.5559 90.9167 30.6506 90.6648C30.7472 90.411 30.7955 90.1288 30.7955 89.8182C30.7955 89.5114 30.7481 89.2348 30.6534 88.9886C30.5606 88.7405 30.4195 88.5445 30.2301 88.4006C30.0426 88.2547 29.8068 88.1818 29.5227 88.1818C29.25 88.1818 29.0208 88.2509 28.8352 88.3892C28.6496 88.5256 28.5095 88.7169 28.4148 88.9631C28.3201 89.2074 28.2727 89.4924 28.2727 89.8182ZM33.6527 92.1023C33.3762 92.1023 33.1253 92.0502 32.8999 91.946C32.6745 91.84 32.4955 91.6875 32.363 91.4886C32.2304 91.2879 32.1641 91.0455 32.1641 90.7614C32.1641 90.5114 32.2133 90.3087 32.3118 90.1534C32.4103 89.9962 32.5419 89.8731 32.7067 89.7841C32.8715 89.6951 33.0533 89.6288 33.2522 89.5852C33.4529 89.5398 33.6546 89.5038 33.8573 89.4773C34.1224 89.4432 34.3374 89.4176 34.5022 89.4006C34.6688 89.3816 34.79 89.3504 34.8658 89.3068C34.9434 89.2633 34.9823 89.1875 34.9823 89.0795V89.0568C34.9823 88.7765 34.9056 88.5587 34.7522 88.4034C34.6006 88.2481 34.3705 88.1705 34.0618 88.1705C33.7417 88.1705 33.4908 88.2405 33.309 88.3807C33.1272 88.5208 32.9993 88.6705 32.9255 88.8295L32.2891 88.6023C32.4027 88.3371 32.5542 88.1307 32.7436 87.983C32.9349 87.8333 33.1433 87.7292 33.3686 87.6705C33.5959 87.6098 33.8194 87.5795 34.0391 87.5795C34.1792 87.5795 34.3402 87.5966 34.522 87.6307C34.7058 87.6629 34.8828 87.7301 35.0533 87.8324C35.2256 87.9347 35.3686 88.089 35.4823 88.2955C35.5959 88.5019 35.6527 88.7784 35.6527 89.125V92H34.9823V91.4091H34.9482C34.9027 91.5038 34.827 91.6051 34.7209 91.7131C34.6148 91.821 34.4737 91.9129 34.2976 91.9886C34.1215 92.0644 33.9065 92.1023 33.6527 92.1023ZM33.755 91.5C34.0202 91.5 34.2436 91.4479 34.4255 91.3438C34.6092 91.2396 34.7474 91.1051 34.8402 90.9403C34.9349 90.7756 34.9823 90.6023 34.9823 90.4205V89.8068C34.9539 89.8409 34.8914 89.8722 34.7948 89.9006C34.7001 89.9271 34.5902 89.9508 34.4652 89.9716C34.3421 89.9905 34.2219 90.0076 34.1044 90.0227C33.9889 90.036 33.8952 90.0473 33.8232 90.0568C33.6489 90.0795 33.4861 90.1165 33.3345 90.1676C33.1849 90.2169 33.0637 90.2917 32.9709 90.392C32.88 90.4905 32.8345 90.625 32.8345 90.7955C32.8345 91.0284 32.9207 91.2045 33.0931 91.3239C33.2673 91.4413 33.488 91.5 33.755 91.5ZM39.9951 86L40.336 86.4091C40.2034 86.5379 40.05 86.6278 39.8758 86.679C39.7015 86.7301 39.5046 86.7614 39.2849 86.7727C39.0652 86.7841 38.8208 86.7955 38.5519 86.8068C38.2489 86.8182 37.9979 86.892 37.7991 87.0284C37.6002 87.1648 37.4468 87.3617 37.3388 87.6193C37.2309 87.8769 37.1618 88.1932 37.1314 88.5682H37.1883C37.336 88.2955 37.5405 88.0947 37.8019 87.9659C38.0633 87.8371 38.3436 87.7727 38.6428 87.7727C38.9837 87.7727 39.2905 87.8523 39.5633 88.0114C39.836 88.1705 40.0519 88.4062 40.211 88.7188C40.3701 89.0312 40.4496 89.4167 40.4496 89.875C40.4496 90.3314 40.3682 90.7254 40.2053 91.0568C40.0443 91.3883 39.818 91.6439 39.5263 91.8239C39.2366 92.0019 38.8966 92.0909 38.5064 92.0909C38.1163 92.0909 37.7744 91.9991 37.4809 91.8153C37.1873 91.6297 36.9591 91.3551 36.7962 90.9915C36.6333 90.6259 36.5519 90.1742 36.5519 89.6364V89.1705C36.5519 88.1989 36.7167 87.4621 37.0462 86.9602C37.3777 86.4583 37.8758 86.1989 38.5405 86.1818C38.7754 86.1742 38.9847 86.1723 39.1684 86.1761C39.3521 86.1799 39.5121 86.1714 39.6485 86.1506C39.7849 86.1297 39.9004 86.0795 39.9951 86ZM38.5064 91.4886C38.7697 91.4886 38.996 91.4223 39.1854 91.2898C39.3767 91.1572 39.5235 90.9706 39.6258 90.7301C39.728 90.4877 39.7792 90.2027 39.7792 89.875C39.7792 89.5568 39.7271 89.286 39.6229 89.0625C39.5207 88.839 39.3739 88.6686 39.1826 88.5511C38.9913 88.4337 38.7621 88.375 38.4951 88.375C38.3 88.375 38.1248 88.4081 37.9695 88.4744C37.8142 88.5407 37.6816 88.6383 37.5718 88.767C37.4619 88.8958 37.3767 89.053 37.3161 89.2386C37.2574 89.4242 37.2261 89.6364 37.2224 89.875C37.2224 90.3636 37.3369 90.7547 37.5661 91.0483C37.7953 91.3419 38.1087 91.4886 38.5064 91.4886ZM43.1279 92.0909C42.734 92.0909 42.3883 91.9972 42.091 91.8097C41.7955 91.6222 41.5645 91.3598 41.3978 91.0227C41.233 90.6856 41.1507 90.2917 41.1507 89.8409C41.1507 89.3864 41.233 88.9896 41.3978 88.6506C41.5645 88.3116 41.7955 88.0483 42.091 87.8608C42.3883 87.6733 42.734 87.5795 43.1279 87.5795C43.5219 87.5795 43.8666 87.6733 44.162 87.8608C44.4594 88.0483 44.6904 88.3116 44.8552 88.6506C45.0219 88.9896 45.1052 89.3864 45.1052 89.8409C45.1052 90.2917 45.0219 90.6856 44.8552 91.0227C44.6904 91.3598 44.4594 91.6222 44.162 91.8097C43.8666 91.9972 43.5219 92.0909 43.1279 92.0909ZM43.1279 91.4886C43.4272 91.4886 43.6734 91.4119 43.8666 91.2585C44.0597 91.1051 44.2027 90.9034 44.2955 90.6534C44.3883 90.4034 44.4347 90.1326 44.4347 89.8409C44.4347 89.5492 44.3883 89.2775 44.2955 89.0256C44.2027 88.7737 44.0597 88.5701 43.8666 88.4148C43.6734 88.2595 43.4272 88.1818 43.1279 88.1818C42.8287 88.1818 42.5825 88.2595 42.3893 88.4148C42.1961 88.5701 42.0531 88.7737 41.9603 89.0256C41.8675 89.2775 41.8211 89.5492 41.8211 89.8409C41.8211 90.1326 41.8675 90.4034 41.9603 90.6534C42.0531 90.9034 42.1961 91.1051 42.3893 91.2585C42.5825 91.4119 42.8287 91.4886 43.1279 91.4886ZM45.4383 88.2614V87.6364H48.9838V88.2614H47.552V92H46.8815V88.2614H45.4383ZM50.4213 89.2159H51.6713C52.1827 89.2159 52.5738 89.3456 52.8446 89.6051C53.1154 89.8646 53.2509 90.1932 53.2509 90.5909C53.2509 90.8523 53.1902 91.09 53.069 91.304C52.9478 91.5161 52.7698 91.6856 52.5349 91.8125C52.3001 91.9375 52.0122 92 51.6713 92H49.8418V87.6364H50.5122V91.375H51.6713C51.9365 91.375 52.1543 91.3049 52.3247 91.1648C52.4952 91.0246 52.5804 90.8447 52.5804 90.625C52.5804 90.3939 52.4952 90.2055 52.3247 90.0597C52.1543 89.9138 51.9365 89.8409 51.6713 89.8409H50.4213V89.2159ZM53.944 92V87.6364H54.6145V92H53.944ZM59.6245 92.0909C59.2154 92.0909 58.8631 91.9943 58.5677 91.8011C58.2722 91.608 58.0449 91.3419 57.8859 91.0028C57.7268 90.6638 57.6472 90.2765 57.6472 89.8409C57.6472 89.3977 57.7287 89.0066 57.8915 88.6676C58.0563 88.3267 58.2855 88.0606 58.579 87.8693C58.8745 87.6761 59.2192 87.5795 59.6131 87.5795C59.9199 87.5795 60.1965 87.6364 60.4427 87.75C60.6889 87.8636 60.8906 88.0227 61.0478 88.2273C61.205 88.4318 61.3025 88.6705 61.3404 88.9432H60.6699C60.6188 88.7443 60.5052 88.5682 60.329 88.4148C60.1548 88.2595 59.9199 88.1818 59.6245 88.1818C59.3631 88.1818 59.134 88.25 58.937 88.3864C58.7419 88.5208 58.5895 88.7112 58.4796 88.9574C58.3716 89.2017 58.3177 89.4886 58.3177 89.8182C58.3177 90.1553 58.3707 90.4489 58.4768 90.6989C58.5847 90.9489 58.7362 91.143 58.9313 91.2812C59.1283 91.4195 59.3593 91.4886 59.6245 91.4886C59.7987 91.4886 59.9569 91.4583 60.0989 91.3977C60.241 91.3371 60.3612 91.25 60.4597 91.1364C60.5582 91.0227 60.6283 90.8864 60.6699 90.7273H61.3404C61.3025 90.9848 61.2088 91.2169 61.0591 91.4233C60.9114 91.6278 60.7154 91.7907 60.4711 91.9119C60.2287 92.0312 59.9465 92.0909 59.6245 92.0909ZM27.6136 102V97.6364H31.0455V102H30.375V98.2614H28.2841V102H27.6136ZM33.9794 102.091C33.559 102.091 33.1963 101.998 32.8914 101.812C32.5883 101.625 32.3544 101.364 32.1897 101.028C32.0268 100.691 31.9453 100.299 31.9453 99.8523C31.9453 99.4053 32.0268 99.0114 32.1897 98.6705C32.3544 98.3277 32.5836 98.0606 32.8772 97.8693C33.1726 97.6761 33.5173 97.5795 33.9112 97.5795C34.1385 97.5795 34.363 97.6174 34.5845 97.6932C34.8061 97.7689 35.0078 97.892 35.1897 98.0625C35.3715 98.2311 35.5164 98.4545 35.6243 98.733C35.7323 99.0114 35.7862 99.3542 35.7862 99.7614V100.045H32.4226V99.4659H35.1044C35.1044 99.2197 35.0552 99 34.9567 98.8068C34.8601 98.6136 34.7219 98.4612 34.5419 98.3494C34.3639 98.2377 34.1537 98.1818 33.9112 98.1818C33.6442 98.1818 33.4131 98.2481 33.2181 98.3807C33.0249 98.5114 32.8762 98.6818 32.772 98.892C32.6679 99.1023 32.6158 99.3277 32.6158 99.5682V99.9545C32.6158 100.284 32.6726 100.563 32.7862 100.793C32.9018 101.02 33.0618 101.193 33.2664 101.312C33.4709 101.43 33.7086 101.489 33.9794 101.489C34.1556 101.489 34.3147 101.464 34.4567 101.415C34.6006 101.364 34.7247 101.288 34.8289 101.188C34.933 101.085 35.0135 100.958 35.0703 100.807L35.7181 100.989C35.6499 101.208 35.5353 101.402 35.3743 101.568C35.2133 101.733 35.0145 101.862 34.7777 101.955C34.541 102.045 34.2749 102.091 33.9794 102.091ZM36.6861 103.636V97.6364H37.3339V98.3295H37.4134C37.4627 98.2538 37.5308 98.1572 37.618 98.0398C37.707 97.9205 37.8339 97.8144 37.9986 97.7216C38.1653 97.6269 38.3907 97.5795 38.6748 97.5795C39.0422 97.5795 39.3661 97.6714 39.6464 97.8551C39.9267 98.0388 40.1454 98.2992 40.3026 98.6364C40.4598 98.9735 40.5384 99.3712 40.5384 99.8295C40.5384 100.292 40.4598 100.692 40.3026 101.031C40.1454 101.368 39.9276 101.63 39.6492 101.815C39.3708 101.999 39.0498 102.091 38.6861 102.091C38.4058 102.091 38.1814 102.045 38.0128 101.952C37.8443 101.857 37.7145 101.75 37.6236 101.631C37.5327 101.509 37.4627 101.409 37.4134 101.33H37.3566V103.636H36.6861ZM37.3452 99.8182C37.3452 100.148 37.3935 100.438 37.4901 100.69C37.5867 100.94 37.7278 101.136 37.9134 101.278C38.099 101.419 38.3263 101.489 38.5952 101.489C38.8755 101.489 39.1094 101.415 39.2969 101.267C39.4863 101.117 39.6284 100.917 39.7231 100.665C39.8197 100.411 39.868 100.129 39.868 99.8182C39.868 99.5114 39.8206 99.2348 39.7259 98.9886C39.6331 98.7405 39.492 98.5445 39.3026 98.4006C39.1151 98.2547 38.8793 98.1818 38.5952 98.1818C38.3225 98.1818 38.0933 98.2509 37.9077 98.3892C37.7221 98.5256 37.582 98.7169 37.4873 98.9631C37.3926 99.2074 37.3452 99.4924 37.3452 99.8182ZM43.2139 102.091C42.8048 102.091 42.4525 101.994 42.157 101.801C41.8616 101.608 41.6343 101.342 41.4752 101.003C41.3161 100.664 41.2366 100.277 41.2366 99.8409C41.2366 99.3977 41.318 99.0066 41.4809 98.6676C41.6457 98.3267 41.8748 98.0606 42.1684 97.8693C42.4639 97.6761 42.8086 97.5795 43.2025 97.5795C43.5093 97.5795 43.7858 97.6364 44.032 97.75C44.2783 97.8636 44.48 98.0227 44.6372 98.2273C44.7944 98.4318 44.8919 98.6705 44.9298 98.9432H44.2593C44.2082 98.7443 44.0945 98.5682 43.9184 98.4148C43.7442 98.2595 43.5093 98.1818 43.2139 98.1818C42.9525 98.1818 42.7233 98.25 42.5264 98.3864C42.3313 98.5208 42.1788 98.7112 42.069 98.9574C41.961 99.2017 41.907 99.4886 41.907 99.8182C41.907 100.155 41.9601 100.449 42.0661 100.699C42.1741 100.949 42.3256 101.143 42.5207 101.281C42.7177 101.42 42.9487 101.489 43.2139 101.489C43.3881 101.489 43.5462 101.458 43.6883 101.398C43.8303 101.337 43.9506 101.25 44.0491 101.136C44.1476 101.023 44.2177 100.886 44.2593 100.727H44.9298C44.8919 100.985 44.7981 101.217 44.6485 101.423C44.5008 101.628 44.3048 101.791 44.0605 101.912C43.818 102.031 43.5358 102.091 43.2139 102.091ZM47.5626 102.091C47.1687 102.091 46.823 101.997 46.5257 101.81C46.2302 101.622 45.9992 101.36 45.8325 101.023C45.6677 100.686 45.5853 100.292 45.5853 99.8409C45.5853 99.3864 45.6677 98.9896 45.8325 98.6506C45.9992 98.3116 46.2302 98.0483 46.5257 97.8608C46.823 97.6733 47.1687 97.5795 47.5626 97.5795C47.9566 97.5795 48.3013 97.6733 48.5967 97.8608C48.8941 98.0483 49.1251 98.3116 49.2899 98.6506C49.4566 98.9896 49.5399 99.3864 49.5399 99.8409C49.5399 100.292 49.4566 100.686 49.2899 101.023C49.1251 101.36 48.8941 101.622 48.5967 101.81C48.3013 101.997 47.9566 102.091 47.5626 102.091ZM47.5626 101.489C47.8619 101.489 48.1081 101.412 48.3013 101.259C48.4944 101.105 48.6374 100.903 48.7302 100.653C48.823 100.403 48.8694 100.133 48.8694 99.8409C48.8694 99.5492 48.823 99.2775 48.7302 99.0256C48.6374 98.7737 48.4944 98.5701 48.3013 98.4148C48.1081 98.2595 47.8619 98.1818 47.5626 98.1818C47.2634 98.1818 47.0172 98.2595 46.824 98.4148C46.6308 98.5701 46.4878 98.7737 46.395 99.0256C46.3022 99.2775 46.2558 99.5492 46.2558 99.8409C46.2558 100.133 46.3022 100.403 46.395 100.653C46.4878 100.903 46.6308 101.105 46.824 101.259C47.0172 101.412 47.2634 101.489 47.5626 101.489ZM53.3638 99.5114V100.136H50.9547V99.5114H53.3638ZM51.1138 97.6364V102H50.4433V97.6364H51.1138ZM53.8751 97.6364V102H53.2047V97.6364H53.8751ZM56.2637 102.102C55.9871 102.102 55.7362 102.05 55.5108 101.946C55.2854 101.84 55.1065 101.688 54.9739 101.489C54.8413 101.288 54.775 101.045 54.775 100.761C54.775 100.511 54.8243 100.309 54.9228 100.153C55.0212 99.9962 55.1529 99.8731 55.3176 99.7841C55.4824 99.6951 55.6642 99.6288 55.8631 99.5852C56.0639 99.5398 56.2656 99.5038 56.4682 99.4773C56.7334 99.4432 56.9483 99.4176 57.1131 99.4006C57.2798 99.3816 57.401 99.3504 57.4767 99.3068C57.5544 99.2633 57.5932 99.1875 57.5932 99.0795V99.0568C57.5932 98.7765 57.5165 98.5587 57.3631 98.4034C57.2116 98.2481 56.9815 98.1705 56.6728 98.1705C56.3527 98.1705 56.1017 98.2405 55.9199 98.3807C55.7381 98.5208 55.6103 98.6705 55.5364 98.8295L54.9 98.6023C55.0137 98.3371 55.1652 98.1307 55.3546 97.983C55.5459 97.8333 55.7542 97.7292 55.9796 97.6705C56.2068 97.6098 56.4303 97.5795 56.65 97.5795C56.7902 97.5795 56.9512 97.5966 57.133 97.6307C57.3167 97.6629 57.4938 97.7301 57.6642 97.8324C57.8366 97.9347 57.9796 98.089 58.0932 98.2955C58.2068 98.5019 58.2637 98.7784 58.2637 99.125V102H57.5932V101.409H57.5591C57.5137 101.504 57.4379 101.605 57.3318 101.713C57.2258 101.821 57.0847 101.913 56.9086 101.989C56.7324 102.064 56.5175 102.102 56.2637 102.102ZM56.3659 101.5C56.6311 101.5 56.8546 101.448 57.0364 101.344C57.2201 101.24 57.3584 101.105 57.4512 100.94C57.5459 100.776 57.5932 100.602 57.5932 100.42V99.8068C57.5648 99.8409 57.5023 99.8722 57.4057 99.9006C57.311 99.9271 57.2012 99.9508 57.0762 99.9716C56.9531 99.9905 56.8328 100.008 56.7154 100.023C56.5998 100.036 56.5061 100.047 56.4341 100.057C56.2599 100.08 56.097 100.116 55.9455 100.168C55.7959 100.217 55.6746 100.292 55.5818 100.392C55.4909 100.491 55.4455 100.625 55.4455 100.795C55.4455 101.028 55.5317 101.205 55.704 101.324C55.8782 101.441 56.0989 101.5 56.3659 101.5ZM58.981 102V101.375H59.1401C59.2708 101.375 59.3797 101.349 59.4668 101.298C59.5539 101.245 59.624 101.153 59.677 101.023C59.732 100.89 59.7736 100.706 59.802 100.472C59.8323 100.235 59.8541 99.9337 59.8674 99.5682L59.9469 97.6364H62.856V102H62.1856V98.2614H60.5833L60.5151 99.8182C60.5 100.176 60.4678 100.491 60.4185 100.764C60.3712 101.035 60.2983 101.262 60.1998 101.446C60.1032 101.63 59.9744 101.768 59.8134 101.861C59.6524 101.954 59.4507 102 59.2083 102H58.981ZM65.7389 102.091C65.3449 102.091 64.9993 101.997 64.7019 101.81C64.4065 101.622 64.1754 101.36 64.0088 101.023C63.844 100.686 63.7616 100.292 63.7616 99.8409C63.7616 99.3864 63.844 98.9896 64.0088 98.6506C64.1754 98.3116 64.4065 98.0483 64.7019 97.8608C64.9993 97.6733 65.3449 97.5795 65.7389 97.5795C66.1328 97.5795 66.4775 97.6733 66.773 97.8608C67.0703 98.0483 67.3014 98.3116 67.4661 98.6506C67.6328 98.9896 67.7161 99.3864 67.7161 99.8409C67.7161 100.292 67.6328 100.686 67.4661 101.023C67.3014 101.36 67.0703 101.622 66.773 101.81C66.4775 101.997 66.1328 102.091 65.7389 102.091ZM65.7389 101.489C66.0381 101.489 66.2843 101.412 66.4775 101.259C66.6707 101.105 66.8137 100.903 66.9065 100.653C66.9993 100.403 67.0457 100.133 67.0457 99.8409C67.0457 99.5492 66.9993 99.2775 66.9065 99.0256C66.8137 98.7737 66.6707 98.5701 66.4775 98.4148C66.2843 98.2595 66.0381 98.1818 65.7389 98.1818C65.4396 98.1818 65.1934 98.2595 65.0002 98.4148C64.807 98.5701 64.6641 98.7737 64.5713 99.0256C64.4784 99.2775 64.432 99.5492 64.432 99.8409C64.432 100.133 64.4784 100.403 64.5713 100.653C64.6641 100.903 64.807 101.105 65.0002 101.259C65.1934 101.412 65.4396 101.489 65.7389 101.489ZM71.0059 101.091L72.5287 97.6364H73.165L71.2787 102H70.7332L68.8809 97.6364H69.5059L71.0059 101.091ZM69.29 97.6364V102H68.6196V97.6364H69.29ZM72.7218 102V97.6364H73.3923V102H72.7218Z" fill="black"/>
<g clip-path="url(#clip0_4_40)">
<path d="M172.667 56.3333H116.333V52H172.667V56.3333ZM116.377 62.4087C116.475 61.9177 116.74 61.4758 117.127 61.1583C117.514 60.8407 117.999 60.667 118.5 60.6667H170.5C171.001 60.667 171.486 60.8407 171.873 61.1583C172.26 61.4758 172.525 61.9177 172.623 62.4087L176.957 84.0753C177.019 84.3896 177.012 84.7138 176.934 85.0247C176.857 85.3356 176.711 85.6254 176.508 85.8732C176.305 86.1211 176.049 86.3208 175.76 86.458C175.47 86.5952 175.154 86.6665 174.833 86.6667H114.167C113.846 86.6665 113.53 86.5952 113.24 86.458C112.951 86.3208 112.695 86.1211 112.492 85.8732C112.289 85.6254 112.143 85.3356 112.066 85.0247C111.988 84.7138 111.981 84.3896 112.043 84.0753L116.377 62.4087ZM116.333 91V112.667H112V117H177V112.667H172.667V91H164V99.6667H125V91H116.333Z" fill="#353744"/>
<path d="M129.333 91H159.667V95.3333H129.333V91Z" fill="#353744"/>
</g>
<defs>
<filter id="filter0_d_4_40" x="3" y="4" width="194" height="137" filterUnits="userSpaceOnUse" color-interpolation-filters="sRGB">
<feFlood flood-opacity="0" result="BackgroundImageFix"/>
<feColorMatrix in="SourceAlpha" type="matrix" values="0 0 0 0 0 0 0 0 0 0 0 0 0 0 0 0 0 0 127 0" result="hardAlpha"/>
<feMorphology radius="2" operator="dilate" in="SourceAlpha" result="effect1_dropShadow_4_40"/>
<feOffset/>
<feGaussianBlur stdDeviation="5"/>
<feComposite in2="hardAlpha" operator="out"/>
<feColorMatrix type="matrix" values="0 0 0 0 0 0 0 0 0 0 0 0 0 0 0 0 0 0 0.35 0"/>
<feBlend mode="normal" in2="BackgroundImageFix" result="effect1_dropShadow_4_40"/>
<feBlend mode="normal" in="SourceGraphic" in2="effect1_dropShadow_4_40" result="shape"/>
</filter>
<clipPath id="clip0_4_40">
<rect width="65" height="65" fill="white" transform="translate(112 52)"/>
</clipPath>
</defs>
</svg>
