<svg width="200" height="144" viewBox="0 0 200 144" fill="none" xmlns="http://www.w3.org/2000/svg">
<g filter="url(#filter0_d_4_3)">
<rect x="15" y="16" width="170" height="113" rx="13" fill="#F2F2F2"/>
</g>
<path d="M33.8465 23.2727H35.4446L38.223 30.0568H38.3252L41.1036 23.2727H42.7017V32H41.4488V25.6847H41.3678L38.794 31.9872H37.7542L35.1803 25.6804H35.0994V32H33.8465V23.2727ZM47.0909 32.1321C46.4773 32.1321 45.9418 31.9915 45.4844 31.7102C45.027 31.429 44.6719 31.0355 44.419 30.5298C44.1662 30.0241 44.0398 29.4332 44.0398 28.7571C44.0398 28.0781 44.1662 27.4844 44.419 26.9759C44.6719 26.4673 45.027 26.0724 45.4844 25.7912C45.9418 25.5099 46.4773 25.3693 47.0909 25.3693C47.7045 25.3693 48.24 25.5099 48.6974 25.7912C49.1548 26.0724 49.5099 26.4673 49.7628 26.9759C50.0156 27.4844 50.142 28.0781 50.142 28.7571C50.142 29.4332 50.0156 30.0241 49.7628 30.5298C49.5099 31.0355 49.1548 31.429 48.6974 31.7102C48.24 31.9915 47.7045 32.1321 47.0909 32.1321ZM47.0952 31.0625C47.4929 31.0625 47.8224 30.9574 48.0838 30.7472C48.3452 30.5369 48.5383 30.2571 48.6633 29.9077C48.7912 29.5582 48.8551 29.1733 48.8551 28.7528C48.8551 28.3352 48.7912 27.9517 48.6633 27.6023C48.5383 27.25 48.3452 26.9673 48.0838 26.7543C47.8224 26.5412 47.4929 26.4347 47.0952 26.4347C46.6946 26.4347 46.3622 26.5412 46.098 26.7543C45.8366 26.9673 45.642 27.25 45.5142 27.6023C45.3892 27.9517 45.3267 28.3352 45.3267 28.7528C45.3267 29.1733 45.3892 29.5582 45.5142 29.9077C45.642 30.2571 45.8366 30.5369 46.098 30.7472C46.3622 30.9574 46.6946 31.0625 47.0952 31.0625ZM56.434 23.017L56.9624 23.8224C56.7664 24.0014 56.5434 24.1293 56.2934 24.206C56.0462 24.2798 55.7607 24.3267 55.4368 24.3466C55.113 24.3636 54.7422 24.3793 54.3246 24.3935C53.853 24.4077 53.4652 24.5099 53.1613 24.7003C52.8573 24.8878 52.6229 25.1662 52.4581 25.5355C52.2962 25.902 52.1911 26.3622 52.1428 26.9162H52.2238C52.4368 26.5099 52.7323 26.206 53.1101 26.0043C53.4908 25.8026 53.9184 25.7017 54.3928 25.7017C54.9212 25.7017 55.3914 25.8224 55.8033 26.0639C56.2152 26.3054 56.5391 26.6591 56.7749 27.125C57.0135 27.5881 57.1328 28.1548 57.1328 28.8253C57.1328 29.5043 57.0078 30.0909 56.7578 30.5852C56.5107 31.0795 56.1613 31.4616 55.7096 31.7315C55.2607 31.9986 54.7309 32.1321 54.1201 32.1321C53.5093 32.1321 52.9766 31.9943 52.5221 31.7188C52.0703 31.4403 51.7195 31.0284 51.4695 30.483C51.2223 29.9375 51.0988 29.2642 51.0988 28.4631V27.8153C51.0988 26.3182 51.3658 25.1918 51.8999 24.4361C52.434 23.6804 53.2323 23.2926 54.2948 23.2727C54.6385 23.2642 54.9453 23.2628 55.2152 23.2685C55.4851 23.2713 55.7209 23.2585 55.9226 23.2301C56.1272 23.1989 56.2976 23.1278 56.434 23.017ZM54.1243 31.0625C54.4794 31.0625 54.7848 30.973 55.0405 30.794C55.299 30.6122 55.4979 30.3551 55.6371 30.0227C55.7763 29.6903 55.8459 29.2983 55.8459 28.8466C55.8459 28.4034 55.7763 28.027 55.6371 27.7173C55.4979 27.4077 55.299 27.1719 55.0405 27.0099C54.782 26.8452 54.4723 26.7628 54.1115 26.7628C53.8445 26.7628 53.6059 26.8097 53.3956 26.9034C53.1854 26.9943 53.005 27.1293 52.8544 27.3082C52.7067 27.4872 52.5917 27.706 52.5093 27.9645C52.4297 28.2202 52.3871 28.5142 52.3814 28.8466C52.3814 29.5227 52.5363 30.0611 52.8459 30.4616C53.1584 30.8622 53.5846 31.0625 54.1243 31.0625ZM59.6247 30.2145L62.5097 25.4545H63.8818V32H62.6332V27.2358L59.7611 32H58.3761V25.4545H59.6247V30.2145ZM64.8993 32L64.895 30.8963H65.1294C65.3112 30.8963 65.4632 30.858 65.5853 30.7812C65.7103 30.7017 65.8126 30.5682 65.8922 30.3807C65.9717 30.1932 66.0328 29.9347 66.0754 29.6051C66.118 29.2727 66.1493 28.8551 66.1692 28.3523L66.2842 25.4545H70.8524V32H69.6038V26.554H67.4646L67.3623 28.7784C67.3368 29.3182 67.2814 29.7898 67.1961 30.1932C67.1138 30.5966 66.993 30.9332 66.8339 31.2031C66.6748 31.4702 66.4703 31.6705 66.2203 31.804C65.9703 31.9347 65.6663 32 65.3084 32H64.8993ZM73.3304 27.7045H75.231C76.0321 27.7045 76.6486 27.9034 77.0804 28.3011C77.5122 28.6989 77.7281 29.2116 77.7281 29.8395C77.7281 30.2486 77.6316 30.6165 77.4384 30.9432C77.2452 31.2699 76.9625 31.5284 76.5904 31.7188C76.2182 31.9062 75.7651 32 75.231 32H72.3716V25.4545H73.6202V30.9006H75.231C75.5975 30.9006 75.8986 30.8054 76.1344 30.6151C76.3702 30.4219 76.4881 30.1761 76.4881 29.8778C76.4881 29.5625 76.3702 29.3054 76.1344 29.1065C75.8986 28.9048 75.5975 28.804 75.231 28.804H73.3304V27.7045ZM83.4128 28.1776V29.2812H79.8674V28.1776H83.4128ZM80.2253 25.4545V32H78.9768V25.4545H80.2253ZM84.3035 25.4545V32H83.0592V25.4545H84.3035ZM87.7328 32.1449C87.3181 32.1449 86.9431 32.0682 86.6078 31.9148C86.2726 31.7585 86.007 31.5327 85.811 31.2372C85.6178 30.9418 85.5212 30.5795 85.5212 30.1506C85.5212 29.7812 85.5922 29.4773 85.7343 29.2386C85.8763 29 86.0681 28.8111 86.3096 28.6719C86.551 28.5327 86.8209 28.4276 87.1192 28.3565C87.4175 28.2855 87.7215 28.2315 88.0311 28.1946C88.4232 28.1491 88.7414 28.1122 88.9857 28.0838C89.23 28.0526 89.4076 28.0028 89.5184 27.9347C89.6292 27.8665 89.6846 27.7557 89.6846 27.6023V27.5724C89.6846 27.2003 89.5794 26.9119 89.3692 26.7074C89.1618 26.5028 88.8522 26.4006 88.4402 26.4006C88.0113 26.4006 87.6732 26.4957 87.426 26.6861C87.1817 26.8736 87.0127 27.0824 86.9189 27.3125L85.7215 27.0398C85.8635 26.642 86.0709 26.321 86.3436 26.0767C86.6192 25.8295 86.936 25.6506 87.2939 25.5398C87.6519 25.4261 88.0283 25.3693 88.4232 25.3693C88.6846 25.3693 88.9615 25.4006 89.2542 25.4631C89.5496 25.5227 89.8252 25.6335 90.0809 25.7955C90.3394 25.9574 90.551 26.1889 90.7158 26.4901C90.8806 26.7884 90.963 27.1761 90.963 27.6534V32H89.7186V31.1051H89.6675C89.5851 31.2699 89.4615 31.4318 89.2968 31.5909C89.132 31.75 88.9203 31.8821 88.6618 31.9872C88.4033 32.0923 88.0936 32.1449 87.7328 32.1449ZM88.0098 31.1222C88.3621 31.1222 88.6632 31.0526 88.9132 30.9134C89.1661 30.7741 89.3578 30.5923 89.4885 30.3679C89.6221 30.1406 89.6888 29.8977 89.6888 29.6392V28.7955C89.6434 28.8409 89.5553 28.8835 89.4246 28.9233C89.2968 28.9602 89.1505 28.9929 88.9857 29.0213C88.8209 29.0469 88.6604 29.071 88.5042 29.0938C88.3479 29.1136 88.2172 29.1307 88.1121 29.1449C87.865 29.1761 87.6391 29.2287 87.4346 29.3026C87.2328 29.3764 87.0709 29.483 86.9488 29.6222C86.8294 29.7585 86.7698 29.9403 86.7698 30.1676C86.7698 30.483 86.8863 30.7216 87.1192 30.8835C87.3522 31.0426 87.649 31.1222 88.0098 31.1222ZM96.3835 32V26.5412H94.8153C94.4431 26.5412 94.1533 26.6278 93.946 26.8011C93.7386 26.9744 93.6349 27.2017 93.6349 27.483C93.6349 27.7614 93.7301 27.9858 93.9204 28.1562C94.1136 28.3239 94.3835 28.4077 94.7301 28.4077H96.7542V29.4389H94.7301C94.2471 29.4389 93.8295 29.3594 93.4772 29.2003C93.1278 29.0384 92.8579 28.8097 92.6676 28.5142C92.4801 28.2187 92.3863 27.8693 92.3863 27.4659C92.3863 27.054 92.4829 26.6989 92.6761 26.4006C92.8721 26.0994 93.1519 25.8665 93.5156 25.7017C93.882 25.5369 94.3153 25.4545 94.8153 25.4545H97.5809V32H96.3835ZM92.088 32L93.9332 28.6932H95.2372L93.392 32H92.088ZM102.093 34.4545V25.4545H103.337V26.5156H103.444C103.517 26.3793 103.624 26.2216 103.763 26.0426C103.902 25.8636 104.096 25.7074 104.343 25.5739C104.59 25.4375 104.917 25.3693 105.323 25.3693C105.851 25.3693 106.323 25.5028 106.738 25.7699C107.152 26.0369 107.478 26.4219 107.713 26.9247C107.952 27.4276 108.071 28.0327 108.071 28.7401C108.071 29.4474 107.953 30.054 107.718 30.5597C107.482 31.0625 107.158 31.4503 106.746 31.723C106.334 31.9929 105.864 32.1278 105.336 32.1278C104.938 32.1278 104.613 32.0611 104.36 31.9276C104.11 31.794 103.914 31.6378 103.772 31.4588C103.63 31.2798 103.52 31.1207 103.444 30.9815H103.367V34.4545H102.093ZM103.341 28.7273C103.341 29.1875 103.408 29.5909 103.542 29.9375C103.675 30.2841 103.868 30.5554 104.121 30.7514C104.374 30.9446 104.684 31.0412 105.05 31.0412C105.431 31.0412 105.749 30.9403 106.005 30.7386C106.26 30.5341 106.453 30.2571 106.584 29.9077C106.718 29.5582 106.784 29.1648 106.784 28.7273C106.784 28.2955 106.719 27.9077 106.588 27.5639C106.461 27.2202 106.267 26.9489 106.009 26.75C105.753 26.5511 105.434 26.4517 105.05 26.4517C104.681 26.4517 104.368 26.5469 104.113 26.7372C103.86 26.9276 103.668 27.1932 103.537 27.5341C103.407 27.875 103.341 28.2727 103.341 28.7273ZM111.224 32.1449C110.809 32.1449 110.434 32.0682 110.099 31.9148C109.764 31.7585 109.498 31.5327 109.302 31.2372C109.109 30.9418 109.012 30.5795 109.012 30.1506C109.012 29.7812 109.083 29.4773 109.225 29.2386C109.367 29 109.559 28.8111 109.8 28.6719C110.042 28.5327 110.312 28.4276 110.61 28.3565C110.908 28.2855 111.212 28.2315 111.522 28.1946C111.914 28.1491 112.232 28.1122 112.477 28.0838C112.721 28.0526 112.898 28.0028 113.009 27.9347C113.12 27.8665 113.175 27.7557 113.175 27.6023V27.5724C113.175 27.2003 113.07 26.9119 112.86 26.7074C112.653 26.5028 112.343 26.4006 111.931 26.4006C111.502 26.4006 111.164 26.4957 110.917 26.6861C110.673 26.8736 110.504 27.0824 110.41 27.3125L109.212 27.0398C109.354 26.642 109.562 26.321 109.835 26.0767C110.11 25.8295 110.427 25.6506 110.785 25.5398C111.143 25.4261 111.519 25.3693 111.914 25.3693C112.175 25.3693 112.452 25.4006 112.745 25.4631C113.041 25.5227 113.316 25.6335 113.572 25.7955C113.83 25.9574 114.042 26.1889 114.207 26.4901C114.372 26.7884 114.454 27.1761 114.454 27.6534V32H113.21V31.1051H113.158C113.076 31.2699 112.952 31.4318 112.788 31.5909C112.623 31.75 112.411 31.8821 112.153 31.9872C111.894 32.0923 111.585 32.1449 111.224 32.1449ZM111.501 31.1222C111.853 31.1222 112.154 31.0526 112.404 30.9134C112.657 30.7741 112.849 30.5923 112.979 30.3679C113.113 30.1406 113.18 29.8977 113.18 29.6392V28.7955C113.134 28.8409 113.046 28.8835 112.916 28.9233C112.788 28.9602 112.641 28.9929 112.477 29.0213C112.312 29.0469 112.151 29.071 111.995 29.0938C111.839 29.1136 111.708 29.1307 111.603 29.1449C111.356 29.1761 111.13 29.2287 110.925 29.3026C110.724 29.3764 110.562 29.483 110.44 29.6222C110.32 29.7585 110.261 29.9403 110.261 30.1676C110.261 30.483 110.377 30.7216 110.61 30.8835C110.843 31.0426 111.14 31.1222 111.501 31.1222ZM115.583 30.2699H116.887C116.904 30.5369 117.025 30.7429 117.249 30.8878C117.477 31.0327 117.771 31.1051 118.131 31.1051C118.498 31.1051 118.81 31.027 119.069 30.8707C119.328 30.7116 119.457 30.4659 119.457 30.1335C119.457 29.9347 119.407 29.7614 119.308 29.6136C119.211 29.4631 119.073 29.3466 118.894 29.2642C118.718 29.1818 118.509 29.1406 118.268 29.1406H117.203V28.1392H118.268C118.629 28.1392 118.899 28.0568 119.078 27.892C119.256 27.7273 119.346 27.5213 119.346 27.2741C119.346 27.0071 119.249 26.7926 119.056 26.6307C118.866 26.4659 118.6 26.3835 118.259 26.3835C117.913 26.3835 117.624 26.4616 117.394 26.6179C117.164 26.7713 117.043 26.9702 117.032 27.2145H115.745C115.754 26.848 115.864 26.527 116.078 26.2514C116.293 25.973 116.583 25.7571 116.947 25.6037C117.313 25.4474 117.73 25.3693 118.195 25.3693C118.681 25.3693 119.102 25.4474 119.457 25.6037C119.812 25.7599 120.086 25.9759 120.279 26.2514C120.475 26.527 120.573 26.8437 120.573 27.2017C120.573 27.5625 120.465 27.858 120.249 28.0881C120.036 28.3153 119.758 28.4787 119.414 28.5781V28.6463C119.667 28.6634 119.891 28.7401 120.087 28.8764C120.283 29.0128 120.437 29.1932 120.548 29.4176C120.658 29.642 120.714 29.8963 120.714 30.1804C120.714 30.581 120.603 30.9276 120.381 31.2202C120.163 31.5128 119.859 31.7386 119.47 31.8977C119.083 32.054 118.641 32.1321 118.144 32.1321C117.661 32.1321 117.228 32.0568 116.845 31.9062C116.464 31.7528 116.161 31.5369 115.937 31.2585C115.715 30.9801 115.597 30.6506 115.583 30.2699ZM121.85 34.4545V25.4545H123.094V26.5156H123.2C123.274 26.3793 123.381 26.2216 123.52 26.0426C123.659 25.8636 123.852 25.7074 124.1 25.5739C124.347 25.4375 124.673 25.3693 125.08 25.3693C125.608 25.3693 126.08 25.5028 126.494 25.7699C126.909 26.0369 127.235 26.4219 127.47 26.9247C127.709 27.4276 127.828 28.0327 127.828 28.7401C127.828 29.4474 127.71 30.054 127.475 30.5597C127.239 31.0625 126.915 31.4503 126.503 31.723C126.091 31.9929 125.621 32.1278 125.092 32.1278C124.695 32.1278 124.369 32.0611 124.117 31.9276C123.867 31.794 123.671 31.6378 123.529 31.4588C123.387 31.2798 123.277 31.1207 123.2 30.9815H123.124V34.4545H121.85ZM123.098 28.7273C123.098 29.1875 123.165 29.5909 123.298 29.9375C123.432 30.2841 123.625 30.5554 123.878 30.7514C124.131 30.9446 124.44 31.0412 124.807 31.0412C125.188 31.0412 125.506 30.9403 125.762 30.7386C126.017 30.5341 126.21 30.2571 126.341 29.9077C126.475 29.5582 126.541 29.1648 126.541 28.7273C126.541 28.2955 126.476 27.9077 126.345 27.5639C126.217 27.2202 126.024 26.9489 125.766 26.75C125.51 26.5511 125.19 26.4517 124.807 26.4517C124.438 26.4517 124.125 26.5469 123.869 26.7372C123.617 26.9276 123.425 27.1932 123.294 27.5341C123.164 27.875 123.098 28.2727 123.098 28.7273ZM130.981 32.1449C130.566 32.1449 130.191 32.0682 129.856 31.9148C129.52 31.7585 129.255 31.5327 129.059 31.2372C128.866 30.9418 128.769 30.5795 128.769 30.1506C128.769 29.7812 128.84 29.4773 128.982 29.2386C129.124 29 129.316 28.8111 129.557 28.6719C129.799 28.5327 130.069 28.4276 130.367 28.3565C130.665 28.2855 130.969 28.2315 131.279 28.1946C131.671 28.1491 131.989 28.1122 132.234 28.0838C132.478 28.0526 132.655 28.0028 132.766 27.9347C132.877 27.8665 132.932 27.7557 132.932 27.6023V27.5724C132.932 27.2003 132.827 26.9119 132.617 26.7074C132.41 26.5028 132.1 26.4006 131.688 26.4006C131.259 26.4006 130.921 26.4957 130.674 26.6861C130.43 26.8736 130.26 27.0824 130.167 27.3125L128.969 27.0398C129.111 26.642 129.319 26.321 129.591 26.0767C129.867 25.8295 130.184 25.6506 130.542 25.5398C130.9 25.4261 131.276 25.3693 131.671 25.3693C131.932 25.3693 132.209 25.4006 132.502 25.4631C132.797 25.5227 133.073 25.6335 133.329 25.7955C133.587 25.9574 133.799 26.1889 133.964 26.4901C134.128 26.7884 134.211 27.1761 134.211 27.6534V32H132.966V31.1051H132.915C132.833 31.2699 132.709 31.4318 132.545 31.5909C132.38 31.75 132.168 31.8821 131.91 31.9872C131.651 32.0923 131.341 32.1449 130.981 32.1449ZM131.258 31.1222C131.61 31.1222 131.911 31.0526 132.161 30.9134C132.414 30.7741 132.606 30.5923 132.736 30.3679C132.87 30.1406 132.937 29.8977 132.937 29.6392V28.7955C132.891 28.8409 132.803 28.8835 132.672 28.9233C132.545 28.9602 132.398 28.9929 132.234 29.0213C132.069 29.0469 131.908 29.071 131.752 29.0938C131.596 29.1136 131.465 29.1307 131.36 29.1449C131.113 29.1761 130.887 29.2287 130.682 29.3026C130.481 29.3764 130.319 29.483 130.197 29.6222C130.077 29.7585 130.018 29.9403 130.018 30.1676C130.018 30.483 130.134 30.7216 130.367 30.8835C130.6 31.0426 130.897 31.1222 131.258 31.1222ZM140.778 23.017L141.306 23.8224C141.11 24.0014 140.887 24.1293 140.637 24.206C140.39 24.2798 140.104 24.3267 139.78 24.3466C139.457 24.3636 139.086 24.3793 138.668 24.3935C138.197 24.4077 137.809 24.5099 137.505 24.7003C137.201 24.8878 136.967 25.1662 136.802 25.5355C136.64 25.902 136.535 26.3622 136.486 26.9162H136.567C136.78 26.5099 137.076 26.206 137.454 26.0043C137.834 25.8026 138.262 25.7017 138.736 25.7017C139.265 25.7017 139.735 25.8224 140.147 26.0639C140.559 26.3054 140.883 26.6591 141.118 27.125C141.357 27.5881 141.476 28.1548 141.476 28.8253C141.476 29.5043 141.351 30.0909 141.101 30.5852C140.854 31.0795 140.505 31.4616 140.053 31.7315C139.604 31.9986 139.074 32.1321 138.464 32.1321C137.853 32.1321 137.32 31.9943 136.866 31.7188C136.414 31.4403 136.063 31.0284 135.813 30.483C135.566 29.9375 135.442 29.2642 135.442 28.4631V27.8153C135.442 26.3182 135.709 25.1918 136.243 24.4361C136.778 23.6804 137.576 23.2926 138.638 23.2727C138.982 23.2642 139.289 23.2628 139.559 23.2685C139.829 23.2713 140.065 23.2585 140.266 23.2301C140.471 23.1989 140.641 23.1278 140.778 23.017ZM138.468 31.0625C138.823 31.0625 139.128 30.973 139.384 30.794C139.643 30.6122 139.842 30.3551 139.981 30.0227C140.12 29.6903 140.19 29.2983 140.19 28.8466C140.19 28.4034 140.12 28.027 139.981 27.7173C139.842 27.4077 139.643 27.1719 139.384 27.0099C139.126 26.8452 138.816 26.7628 138.455 26.7628C138.188 26.7628 137.949 26.8097 137.739 26.9034C137.529 26.9943 137.349 27.1293 137.198 27.3082C137.05 27.4872 136.935 27.706 136.853 27.9645C136.773 28.2202 136.731 28.5142 136.725 28.8466C136.725 29.5227 136.88 30.0611 137.19 30.4616C137.502 30.8622 137.928 31.0625 138.468 31.0625ZM145.477 32.1321C144.863 32.1321 144.328 31.9915 143.87 31.7102C143.413 31.429 143.058 31.0355 142.805 30.5298C142.552 30.0241 142.426 29.4332 142.426 28.7571C142.426 28.0781 142.552 27.4844 142.805 26.9759C143.058 26.4673 143.413 26.0724 143.87 25.7912C144.328 25.5099 144.863 25.3693 145.477 25.3693C146.09 25.3693 146.626 25.5099 147.083 25.7912C147.541 26.0724 147.896 26.4673 148.149 26.9759C148.402 27.4844 148.528 28.0781 148.528 28.7571C148.528 29.4332 148.402 30.0241 148.149 30.5298C147.896 31.0355 147.541 31.429 147.083 31.7102C146.626 31.9915 146.09 32.1321 145.477 32.1321ZM145.481 31.0625C145.879 31.0625 146.208 30.9574 146.47 30.7472C146.731 30.5369 146.924 30.2571 147.049 29.9077C147.177 29.5582 147.241 29.1733 147.241 28.7528C147.241 28.3352 147.177 27.9517 147.049 27.6023C146.924 27.25 146.731 26.9673 146.47 26.7543C146.208 26.5412 145.879 26.4347 145.481 26.4347C145.081 26.4347 144.748 26.5412 144.484 26.7543C144.223 26.9673 144.028 27.25 143.9 27.6023C143.775 27.9517 143.713 28.3352 143.713 28.7528C143.713 29.1733 143.775 29.5582 143.9 29.9077C144.028 30.2571 144.223 30.5369 144.484 30.7472C144.748 30.9574 145.081 31.0625 145.481 31.0625ZM148.982 26.554V25.4545H154.505V26.554H152.37V32H151.125V26.554H148.982ZM155.672 32V25.4545H156.946V28.1989H157.56L159.721 25.4545H161.297L158.762 28.6378L161.327 32H159.746L157.773 29.3835H156.946V32H155.672ZM164.042 32.1449C163.627 32.1449 163.252 32.0682 162.917 31.9148C162.581 31.7585 162.316 31.5327 162.12 31.2372C161.927 30.9418 161.83 30.5795 161.83 30.1506C161.83 29.7812 161.901 29.4773 162.043 29.2386C162.185 29 162.377 28.8111 162.618 28.6719C162.86 28.5327 163.13 28.4276 163.428 28.3565C163.726 28.2855 164.03 28.2315 164.34 28.1946C164.732 28.1491 165.05 28.1122 165.294 28.0838C165.539 28.0526 165.716 28.0028 165.827 27.9347C165.938 27.8665 165.993 27.7557 165.993 27.6023V27.5724C165.993 27.2003 165.888 26.9119 165.678 26.7074C165.471 26.5028 165.161 26.4006 164.749 26.4006C164.32 26.4006 163.982 26.4957 163.735 26.6861C163.49 26.8736 163.321 27.0824 163.228 27.3125L162.03 27.0398C162.172 26.642 162.38 26.321 162.652 26.0767C162.928 25.8295 163.245 25.6506 163.603 25.5398C163.961 25.4261 164.337 25.3693 164.732 25.3693C164.993 25.3693 165.27 25.4006 165.563 25.4631C165.858 25.5227 166.134 25.6335 166.39 25.7955C166.648 25.9574 166.86 26.1889 167.025 26.4901C167.189 26.7884 167.272 27.1761 167.272 27.6534V32H166.027V31.1051H165.976C165.894 31.2699 165.77 31.4318 165.606 31.5909C165.441 31.75 165.229 31.8821 164.971 31.9872C164.712 32.0923 164.402 32.1449 164.042 32.1449ZM164.319 31.1222C164.671 31.1222 164.972 31.0526 165.222 30.9134C165.475 30.7741 165.667 30.5923 165.797 30.3679C165.931 30.1406 165.998 29.8977 165.998 29.6392V28.7955C165.952 28.8409 165.864 28.8835 165.733 28.9233C165.606 28.9602 165.459 28.9929 165.294 29.0213C165.13 29.0469 164.969 29.071 164.813 29.0938C164.657 29.1136 164.526 29.1307 164.421 29.1449C164.174 29.1761 163.948 29.2287 163.743 29.3026C163.542 29.3764 163.38 29.483 163.258 29.6222C163.138 29.7585 163.079 29.9403 163.079 30.1676C163.079 30.483 163.195 30.7216 163.428 30.8835C163.661 31.0426 163.958 31.1222 164.319 31.1222Z" fill="#353744"/>
<path d="M21 60.9318C20.7708 60.9318 20.5616 60.8759 20.3722 60.7642C20.1828 60.6506 20.0313 60.4991 19.9176 60.3097C19.8059 60.1203 19.75 59.911 19.75 59.6818C19.75 59.4508 19.8059 59.2415 19.9176 59.054C20.0313 58.8646 20.1828 58.714 20.3722 58.6023C20.5616 58.4886 20.7708 58.4318 21 58.4318C21.2311 58.4318 21.4403 58.4886 21.6278 58.6023C21.8172 58.714 21.9678 58.8646 22.0795 59.054C22.1932 59.2415 22.25 59.4508 22.25 59.6818C22.25 59.911 22.1932 60.1203 22.0795 60.3097C21.9678 60.4991 21.8172 60.6506 21.6278 60.7642C21.4403 60.8759 21.2311 60.9318 21 60.9318ZM27.7045 62V56.1818H29.6705C30.1269 56.1818 30.5 56.2642 30.7898 56.429C31.0814 56.5919 31.2973 56.8125 31.4375 57.0909C31.5777 57.3693 31.6477 57.6799 31.6477 58.0227C31.6477 58.3655 31.5777 58.6771 31.4375 58.9574C31.2992 59.2377 31.0852 59.4612 30.7955 59.6278C30.5057 59.7926 30.1345 59.875 29.6818 59.875H28.2727V59.25H29.6591C29.9716 59.25 30.2225 59.196 30.4119 59.0881C30.6013 58.9801 30.7386 58.8343 30.8239 58.6506C30.911 58.465 30.9545 58.2557 30.9545 58.0227C30.9545 57.7898 30.911 57.5814 30.8239 57.3977C30.7386 57.214 30.6004 57.0701 30.4091 56.9659C30.2178 56.8598 29.964 56.8068 29.6477 56.8068H28.4091V62H27.7045ZM33.8559 62.1023C33.5793 62.1023 33.3284 62.0502 33.103 61.946C32.8776 61.84 32.6987 61.6875 32.5661 61.4886C32.4335 61.2879 32.3672 61.0455 32.3672 60.7614C32.3672 60.5114 32.4165 60.3087 32.5149 60.1534C32.6134 59.9962 32.7451 59.8731 32.9098 59.7841C33.0746 59.6951 33.2564 59.6288 33.4553 59.5852C33.656 59.5398 33.8577 59.5038 34.0604 59.4773C34.3255 59.4432 34.5405 59.4176 34.7053 59.4006C34.872 59.3816 34.9932 59.3504 35.0689 59.3068C35.1466 59.2633 35.1854 59.1875 35.1854 59.0795V59.0568C35.1854 58.7765 35.1087 58.5587 34.9553 58.4034C34.8038 58.2481 34.5737 58.1705 34.2649 58.1705C33.9449 58.1705 33.6939 58.2405 33.5121 58.3807C33.3303 58.5208 33.2024 58.6705 33.1286 58.8295L32.4922 58.6023C32.6059 58.3371 32.7574 58.1307 32.9468 57.983C33.138 57.8333 33.3464 57.7292 33.5718 57.6705C33.799 57.6098 34.0225 57.5795 34.2422 57.5795C34.3824 57.5795 34.5434 57.5966 34.7252 57.6307C34.9089 57.6629 35.086 57.7301 35.2564 57.8324C35.4288 57.9347 35.5718 58.089 35.6854 58.2955C35.799 58.5019 35.8559 58.7784 35.8559 59.125V62H35.1854V61.4091H35.1513C35.1059 61.5038 35.0301 61.6051 34.924 61.7131C34.818 61.821 34.6769 61.9129 34.5007 61.9886C34.3246 62.0644 34.1096 62.1023 33.8559 62.1023ZM33.9581 61.5C34.2233 61.5 34.4468 61.4479 34.6286 61.3438C34.8123 61.2396 34.9505 61.1051 35.0434 60.9403C35.138 60.7756 35.1854 60.6023 35.1854 60.4205V59.8068C35.157 59.8409 35.0945 59.8722 34.9979 59.9006C34.9032 59.9271 34.7934 59.9508 34.6684 59.9716C34.5452 59.9905 34.425 60.0076 34.3076 60.0227C34.192 60.036 34.0983 60.0473 34.0263 60.0568C33.8521 60.0795 33.6892 60.1165 33.5377 60.1676C33.388 60.2169 33.2668 60.2917 33.174 60.392C33.0831 60.4905 33.0377 60.625 33.0377 60.7955C33.0377 61.0284 33.1238 61.2045 33.2962 61.3239C33.4704 61.4413 33.6911 61.5 33.9581 61.5ZM36.6868 60.8864H37.4028C37.4179 61.0833 37.5069 61.233 37.6698 61.3352C37.8346 61.4375 38.0486 61.4886 38.3118 61.4886C38.5808 61.4886 38.8109 61.4337 39.0022 61.3239C39.1935 61.2121 39.2891 61.0322 39.2891 60.7841C39.2891 60.6383 39.2531 60.5114 39.1812 60.4034C39.1092 60.2936 39.0079 60.2083 38.8772 60.1477C38.7465 60.0871 38.5921 60.0568 38.4141 60.0568H37.6641V59.4545H38.4141C38.6812 59.4545 38.8781 59.3939 39.005 59.2727C39.1338 59.1515 39.1982 59 39.1982 58.8182C39.1982 58.6231 39.1291 58.4669 38.9908 58.3494C38.8526 58.2301 38.6565 58.1705 38.4028 58.1705C38.1471 58.1705 37.934 58.2282 37.7636 58.3438C37.5931 58.4574 37.5031 58.6042 37.4937 58.7841H36.7891C36.7967 58.5492 36.8687 58.3419 37.005 58.1619C37.1414 57.9801 37.327 57.8381 37.5618 57.7358C37.7967 57.6316 38.0656 57.5795 38.3687 57.5795C38.6755 57.5795 38.9416 57.6335 39.167 57.7415C39.3942 57.8475 39.5694 57.9924 39.6925 58.1761C39.8175 58.358 39.88 58.5644 39.88 58.7955C39.88 59.0417 39.8109 59.2405 39.6726 59.392C39.5344 59.5436 39.3611 59.6515 39.1528 59.7159V59.7614C39.3175 59.7727 39.4605 59.8258 39.5817 59.9205C39.7048 60.0133 39.8005 60.1354 39.8687 60.2869C39.9368 60.4366 39.9709 60.6023 39.9709 60.7841C39.9709 61.0492 39.8999 61.2803 39.7579 61.4773C39.6158 61.6723 39.4207 61.8239 39.1726 61.9318C38.9245 62.0379 38.6414 62.0909 38.3232 62.0909C38.0145 62.0909 37.738 62.0407 37.4937 61.9403C37.2493 61.8381 37.0552 61.697 36.9113 61.517C36.7692 61.3352 36.6944 61.125 36.6868 60.8864ZM40.7927 63.6364V57.6364H41.4404V58.3295H41.52C41.5692 58.2538 41.6374 58.1572 41.7245 58.0398C41.8135 57.9205 41.9404 57.8144 42.1052 57.7216C42.2719 57.6269 42.4972 57.5795 42.7813 57.5795C43.1488 57.5795 43.4726 57.6714 43.7529 57.8551C44.0332 58.0388 44.252 58.2992 44.4092 58.6364C44.5664 58.9735 44.645 59.3712 44.645 59.8295C44.645 60.2917 44.5664 60.6922 44.4092 61.0312C44.252 61.3684 44.0342 61.6297 43.7558 61.8153C43.4774 61.9991 43.1563 62.0909 42.7927 62.0909C42.5124 62.0909 42.288 62.0445 42.1194 61.9517C41.9508 61.857 41.8211 61.75 41.7302 61.6307C41.6393 61.5095 41.5692 61.4091 41.52 61.3295H41.4632V63.6364H40.7927ZM41.4518 59.8182C41.4518 60.1477 41.5001 60.4384 41.5967 60.6903C41.6933 60.9403 41.8344 61.1364 42.02 61.2784C42.2056 61.4186 42.4328 61.4886 42.7018 61.4886C42.9821 61.4886 43.216 61.4148 43.4035 61.267C43.5929 61.1174 43.7349 60.9167 43.8296 60.6648C43.9262 60.411 43.9745 60.1288 43.9745 59.8182C43.9745 59.5114 43.9272 59.2348 43.8325 58.9886C43.7397 58.7405 43.5986 58.5445 43.4092 58.4006C43.2217 58.2547 42.9859 58.1818 42.7018 58.1818C42.4291 58.1818 42.1999 58.2509 42.0143 58.3892C41.8287 58.5256 41.6885 58.7169 41.5938 58.9631C41.4991 59.2074 41.4518 59.4924 41.4518 59.8182ZM46.8318 62.1023C46.5553 62.1023 46.3043 62.0502 46.0789 61.946C45.8536 61.84 45.6746 61.6875 45.542 61.4886C45.4094 61.2879 45.3432 61.0455 45.3432 60.7614C45.3432 60.5114 45.3924 60.3087 45.4909 60.1534C45.5894 59.9962 45.721 59.8731 45.8858 59.7841C46.0505 59.6951 46.2324 59.6288 46.4312 59.5852C46.632 59.5398 46.8337 59.5038 47.0363 59.4773C47.3015 59.4432 47.5164 59.4176 47.6812 59.4006C47.8479 59.3816 47.9691 59.3504 48.0449 59.3068C48.1225 59.2633 48.1613 59.1875 48.1613 59.0795V59.0568C48.1613 58.7765 48.0846 58.5587 47.9312 58.4034C47.7797 58.2481 47.5496 58.1705 47.2409 58.1705C46.9208 58.1705 46.6699 58.2405 46.488 58.3807C46.3062 58.5208 46.1784 58.6705 46.1045 58.8295L45.4682 58.6023C45.5818 58.3371 45.7333 58.1307 45.9227 57.983C46.114 57.8333 46.3223 57.7292 46.5477 57.6705C46.775 57.6098 46.9985 57.5795 47.2182 57.5795C47.3583 57.5795 47.5193 57.5966 47.7011 57.6307C47.8848 57.6629 48.0619 57.7301 48.2324 57.8324C48.4047 57.9347 48.5477 58.089 48.6613 58.2955C48.775 58.5019 48.8318 58.7784 48.8318 59.125V62H48.1613V61.4091H48.1272C48.0818 61.5038 48.006 61.6051 47.9 61.7131C47.7939 61.821 47.6528 61.9129 47.4767 61.9886C47.3005 62.0644 47.0856 62.1023 46.8318 62.1023ZM46.9341 61.5C47.1992 61.5 47.4227 61.4479 47.6045 61.3438C47.7882 61.2396 47.9265 61.1051 48.0193 60.9403C48.114 60.7756 48.1613 60.6023 48.1613 60.4205V59.8068C48.1329 59.8409 48.0704 59.8722 47.9738 59.9006C47.8791 59.9271 47.7693 59.9508 47.6443 59.9716C47.5212 59.9905 47.4009 60.0076 47.2835 60.0227C47.168 60.036 47.0742 60.0473 47.0022 60.0568C46.828 60.0795 46.6651 60.1165 46.5136 60.1676C46.364 60.2169 46.2428 60.2917 46.15 60.392C46.0591 60.4905 46.0136 60.625 46.0136 60.7955C46.0136 61.0284 46.0998 61.2045 46.2721 61.3239C46.4464 61.4413 46.667 61.5 46.9341 61.5ZM53.1741 56L53.5151 56.4091C53.3825 56.5379 53.2291 56.6278 53.0548 56.679C52.8806 56.7301 52.6836 56.7614 52.4639 56.7727C52.2442 56.7841 51.9999 56.7955 51.731 56.8068C51.4279 56.8182 51.177 56.892 50.9781 57.0284C50.7793 57.1648 50.6259 57.3617 50.5179 57.6193C50.4099 57.8769 50.3408 58.1932 50.3105 58.5682H50.3673C50.5151 58.2955 50.7196 58.0947 50.981 57.9659C51.2423 57.8371 51.5226 57.7727 51.8219 57.7727C52.1628 57.7727 52.4696 57.8523 52.7423 58.0114C53.0151 58.1705 53.231 58.4062 53.3901 58.7188C53.5491 59.0312 53.6287 59.4167 53.6287 59.875C53.6287 60.3314 53.5473 60.7254 53.3844 61.0568C53.2234 61.3883 52.9971 61.6439 52.7054 61.8239C52.4156 62.0019 52.0757 62.0909 51.6855 62.0909C51.2954 62.0909 50.9535 61.9991 50.6599 61.8153C50.3664 61.6297 50.1382 61.3551 49.9753 60.9915C49.8124 60.6259 49.731 60.1742 49.731 59.6364V59.1705C49.731 58.1989 49.8957 57.4621 50.2253 56.9602C50.5567 56.4583 51.0548 56.1989 51.7196 56.1818C51.9545 56.1742 52.1637 56.1723 52.3474 56.1761C52.5312 56.1799 52.6912 56.1714 52.8276 56.1506C52.9639 56.1297 53.0795 56.0795 53.1741 56ZM51.6855 61.4886C51.9488 61.4886 52.1751 61.4223 52.3645 61.2898C52.5558 61.1572 52.7026 60.9706 52.8048 60.7301C52.9071 60.4877 52.9582 60.2027 52.9582 59.875C52.9582 59.5568 52.9062 59.286 52.802 59.0625C52.6997 58.839 52.5529 58.6686 52.3616 58.5511C52.1704 58.4337 51.9412 58.375 51.6741 58.375C51.4791 58.375 51.3039 58.4081 51.1486 58.4744C50.9933 58.5407 50.8607 58.6383 50.7509 58.767C50.641 58.8958 50.5558 59.053 50.4952 59.2386C50.4365 59.4242 50.4052 59.6364 50.4014 59.875C50.4014 60.3636 50.516 60.7547 50.7452 61.0483C50.9743 61.3419 51.2878 61.4886 51.6855 61.4886ZM56.307 62.0909C55.913 62.0909 55.5674 61.9972 55.2701 61.8097C54.9746 61.6222 54.7435 61.3598 54.5769 61.0227C54.4121 60.6856 54.3297 60.2917 54.3297 59.8409C54.3297 59.3864 54.4121 58.9896 54.5769 58.6506C54.7435 58.3116 54.9746 58.0483 55.2701 57.8608C55.5674 57.6733 55.913 57.5795 56.307 57.5795C56.7009 57.5795 57.0456 57.6733 57.3411 57.8608C57.6384 58.0483 57.8695 58.3116 58.0343 58.6506C58.2009 58.9896 58.2843 59.3864 58.2843 59.8409C58.2843 60.2917 58.2009 60.6856 58.0343 61.0227C57.8695 61.3598 57.6384 61.6222 57.3411 61.8097C57.0456 61.9972 56.7009 62.0909 56.307 62.0909ZM56.307 61.4886C56.6062 61.4886 56.8524 61.4119 57.0456 61.2585C57.2388 61.1051 57.3818 60.9034 57.4746 60.6534C57.5674 60.4034 57.6138 60.1326 57.6138 59.8409C57.6138 59.5492 57.5674 59.2775 57.4746 59.0256C57.3818 58.7737 57.2388 58.5701 57.0456 58.4148C56.8524 58.2595 56.6062 58.1818 56.307 58.1818C56.0077 58.1818 55.7615 58.2595 55.5684 58.4148C55.3752 58.5701 55.2322 58.7737 55.1394 59.0256C55.0466 59.2775 55.0002 59.5492 55.0002 59.8409C55.0002 60.1326 55.0466 60.4034 55.1394 60.6534C55.2322 60.9034 55.3752 61.1051 55.5684 61.2585C55.7615 61.4119 56.0077 61.4886 56.307 61.4886ZM58.6174 58.2614V57.6364H62.1628V58.2614H60.731V62H60.0606V58.2614H58.6174ZM63.0208 62V57.6364H63.6913V59.5341H64.1345L65.7026 57.6364H66.5663L64.8049 59.7386L66.589 62H65.7254L64.2936 60.1591H63.6913V62H63.0208ZM68.4818 62.1023C68.2053 62.1023 67.9543 62.0502 67.7289 61.946C67.5036 61.84 67.3246 61.6875 67.192 61.4886C67.0594 61.2879 66.9932 61.0455 66.9932 60.7614C66.9932 60.5114 67.0424 60.3087 67.1409 60.1534C67.2394 59.9962 67.371 59.8731 67.5358 59.7841C67.7005 59.6951 67.8824 59.6288 68.0812 59.5852C68.282 59.5398 68.4837 59.5038 68.6863 59.4773C68.9515 59.4432 69.1664 59.4176 69.3312 59.4006C69.4979 59.3816 69.6191 59.3504 69.6949 59.3068C69.7725 59.2633 69.8113 59.1875 69.8113 59.0795V59.0568C69.8113 58.7765 69.7346 58.5587 69.5812 58.4034C69.4297 58.2481 69.1996 58.1705 68.8909 58.1705C68.5708 58.1705 68.3199 58.2405 68.138 58.3807C67.9562 58.5208 67.8284 58.6705 67.7545 58.8295L67.1182 58.6023C67.2318 58.3371 67.3833 58.1307 67.5727 57.983C67.764 57.8333 67.9723 57.7292 68.1977 57.6705C68.425 57.6098 68.6485 57.5795 68.8682 57.5795C69.0083 57.5795 69.1693 57.5966 69.3511 57.6307C69.5348 57.6629 69.7119 57.7301 69.8824 57.8324C70.0547 57.9347 70.1977 58.089 70.3113 58.2955C70.425 58.5019 70.4818 58.7784 70.4818 59.125V62H69.8113V61.4091H69.7772C69.7318 61.5038 69.656 61.6051 69.55 61.7131C69.4439 61.821 69.3028 61.9129 69.1267 61.9886C68.9505 62.0644 68.7356 62.1023 68.4818 62.1023ZM68.5841 61.5C68.8492 61.5 69.0727 61.4479 69.2545 61.3438C69.4382 61.2396 69.5765 61.1051 69.6693 60.9403C69.764 60.7756 69.8113 60.6023 69.8113 60.4205V59.8068C69.7829 59.8409 69.7204 59.8722 69.6238 59.9006C69.5291 59.9271 69.4193 59.9508 69.2943 59.9716C69.1712 59.9905 69.0509 60.0076 68.9335 60.0227C68.818 60.036 68.7242 60.0473 68.6522 60.0568C68.478 60.0795 68.3151 60.1165 68.1636 60.1676C68.014 60.2169 67.8928 60.2917 67.8 60.392C67.7091 60.4905 67.6636 60.625 67.6636 60.7955C67.6636 61.0284 67.7498 61.2045 67.9221 61.3239C68.0964 61.4413 68.317 61.5 68.5841 61.5ZM27.6136 72V67.6364H31.0455V72H30.375V68.2614H28.2841V72H27.6136ZM32.1499 73.6364V67.6364H32.7976V68.3295H32.8772C32.9264 68.2538 32.9946 68.1572 33.0817 68.0398C33.1707 67.9205 33.2976 67.8144 33.4624 67.7216C33.6291 67.6269 33.8544 67.5795 34.1385 67.5795C34.5059 67.5795 34.8298 67.6714 35.1101 67.8551C35.3904 68.0388 35.6092 68.2992 35.7664 68.6364C35.9236 68.9735 36.0022 69.3712 36.0022 69.8295C36.0022 70.2917 35.9236 70.6922 35.7664 71.0312C35.6092 71.3684 35.3914 71.6297 35.113 71.8153C34.8345 71.9991 34.5135 72.0909 34.1499 72.0909C33.8696 72.0909 33.6452 72.0445 33.4766 71.9517C33.308 71.857 33.1783 71.75 33.0874 71.6307C32.9965 71.5095 32.9264 71.4091 32.8772 71.3295H32.8203V73.6364H32.1499ZM32.809 69.8182C32.809 70.1477 32.8573 70.4384 32.9539 70.6903C33.0505 70.9403 33.1916 71.1364 33.3772 71.2784C33.5628 71.4186 33.79 71.4886 34.059 71.4886C34.3393 71.4886 34.5732 71.4148 34.7607 71.267C34.9501 71.1174 35.0921 70.9167 35.1868 70.6648C35.2834 70.411 35.3317 70.1288 35.3317 69.8182C35.3317 69.5114 35.2844 69.2348 35.1897 68.9886C35.0969 68.7405 34.9558 68.5445 34.7664 68.4006C34.5789 68.2547 34.3431 68.1818 34.059 68.1818C33.7862 68.1818 33.5571 68.2509 33.3715 68.3892C33.1859 68.5256 33.0457 68.7169 32.951 68.9631C32.8563 69.2074 32.809 69.4924 32.809 69.8182ZM37.5753 71.0114L39.6776 67.6364H40.4503V72H39.7799V68.625L37.689 72H36.9049V67.6364H37.5753V71.0114ZM41.172 72V71.375H41.3311C41.4617 71.375 41.5706 71.3494 41.6578 71.2983C41.7449 71.2453 41.815 71.1534 41.868 71.0227C41.9229 70.8902 41.9646 70.7064 41.993 70.4716C42.0233 70.2348 42.0451 69.9337 42.0583 69.5682L42.1379 67.6364H45.047V72H44.3765V68.2614H42.7742L42.7061 69.8182C42.6909 70.1761 42.6587 70.4915 42.6095 70.7642C42.5621 71.035 42.4892 71.2623 42.3907 71.446C42.2941 71.6297 42.1653 71.768 42.0043 71.8608C41.8434 71.9536 41.6417 72 41.3992 72H41.172ZM47.9298 72.0909C47.5359 72.0909 47.1902 71.9972 46.8929 71.8097C46.5974 71.6222 46.3664 71.3598 46.1997 71.0227C46.0349 70.6856 45.9525 70.2917 45.9525 69.8409C45.9525 69.3864 46.0349 68.9896 46.1997 68.6506C46.3664 68.3116 46.5974 68.0483 46.8929 67.8608C47.1902 67.6733 47.5359 67.5795 47.9298 67.5795C48.3237 67.5795 48.6684 67.6733 48.9639 67.8608C49.2612 68.0483 49.4923 68.3116 49.6571 68.6506C49.8237 68.9896 49.9071 69.3864 49.9071 69.8409C49.9071 70.2917 49.8237 70.6856 49.6571 71.0227C49.4923 71.3598 49.2612 71.6222 48.9639 71.8097C48.6684 71.9972 48.3237 72.0909 47.9298 72.0909ZM47.9298 71.4886C48.229 71.4886 48.4753 71.4119 48.6684 71.2585C48.8616 71.1051 49.0046 70.9034 49.0974 70.6534C49.1902 70.4034 49.2366 70.1326 49.2366 69.8409C49.2366 69.5492 49.1902 69.2775 49.0974 69.0256C49.0046 68.7737 48.8616 68.5701 48.6684 68.4148C48.4753 68.2595 48.229 68.1818 47.9298 68.1818C47.6306 68.1818 47.3843 68.2595 47.1912 68.4148C46.998 68.5701 46.855 68.7737 46.7622 69.0256C46.6694 69.2775 46.623 69.5492 46.623 69.8409C46.623 70.1326 46.6694 70.4034 46.7622 70.6534C46.855 70.9034 46.998 71.1051 47.1912 71.2585C47.3843 71.4119 47.6306 71.4886 47.9298 71.4886ZM50.3581 72L52.1308 69.7841L50.3808 67.6364H51.1763L52.6308 69.5H52.9945V67.6364H53.6649V69.5H54.0172L55.4717 67.6364H56.2672L54.5286 69.7841L56.2899 72H55.4831L54.0058 70.125H53.6649V72H52.9945V70.125H52.6536L51.1649 72H50.3581ZM58.7779 72.0909C58.3574 72.0909 57.9947 71.9981 57.6898 71.8125C57.3868 71.625 57.1529 71.3636 56.9881 71.0284C56.8252 70.6913 56.7438 70.2992 56.7438 69.8523C56.7438 69.4053 56.8252 69.0114 56.9881 68.6705C57.1529 68.3277 57.382 68.0606 57.6756 67.8693C57.971 67.6761 58.3157 67.5795 58.7097 67.5795C58.937 67.5795 59.1614 67.6174 59.383 67.6932C59.6046 67.7689 59.8063 67.892 59.9881 68.0625C60.1699 68.2311 60.3148 68.4545 60.4228 68.733C60.5307 69.0114 60.5847 69.3542 60.5847 69.7614V70.0455H57.221V69.4659H59.9029C59.9029 69.2197 59.8536 69 59.7551 68.8068C59.6586 68.6136 59.5203 68.4612 59.3404 68.3494C59.1623 68.2377 58.9521 68.1818 58.7097 68.1818C58.4426 68.1818 58.2116 68.2481 58.0165 68.3807C57.8233 68.5114 57.6746 68.6818 57.5705 68.892C57.4663 69.1023 57.4142 69.3277 57.4142 69.5682V69.9545C57.4142 70.2841 57.471 70.5634 57.5847 70.7926C57.7002 71.0199 57.8603 71.1932 58.0648 71.3125C58.2693 71.4299 58.507 71.4886 58.7779 71.4886C58.954 71.4886 59.1131 71.464 59.2551 71.4148C59.3991 71.3636 59.5231 71.2879 59.6273 71.1875C59.7315 71.0852 59.812 70.9583 59.8688 70.8068L60.5165 70.9886C60.4483 71.2083 60.3337 71.4015 60.1728 71.5682C60.0118 71.733 59.8129 71.8617 59.5762 71.9545C59.3394 72.0455 59.0733 72.0909 58.7779 72.0909ZM64.405 69.5114V70.1364H61.9959V69.5114H64.405ZM62.155 67.6364V72H61.4846V67.6364H62.155ZM64.9164 67.6364V72H64.2459V67.6364H64.9164ZM66.6913 71.0114L68.7936 67.6364H69.5663V72H68.8958V68.625L66.8049 72H66.0208V67.6364H66.6913V71.0114ZM71.3447 71.0114L73.447 67.6364H74.2197V72H73.5493V68.625L71.4584 72H70.6743V67.6364H71.3447V71.0114ZM73.0038 66.1818H73.6288C73.6288 66.4886 73.5227 66.7396 73.3106 66.9347C73.0985 67.1297 72.8106 67.2273 72.447 67.2273C72.089 67.2273 71.804 67.1297 71.5919 66.9347C71.3816 66.7396 71.2765 66.4886 71.2765 66.1818H71.9015C71.9015 66.3295 71.9423 66.4593 72.0237 66.571C72.107 66.6828 72.2481 66.7386 72.447 66.7386C72.6459 66.7386 72.7879 66.6828 72.8731 66.571C72.9602 66.4593 73.0038 66.3295 73.0038 66.1818ZM27.6136 82V77.6364H31.0455V82H30.375V78.2614H28.2841V82H27.6136ZM33.9226 82.0909C33.5287 82.0909 33.183 81.9972 32.8857 81.8097C32.5902 81.6222 32.3592 81.3598 32.1925 81.0227C32.0277 80.6856 31.9453 80.2917 31.9453 79.8409C31.9453 79.3864 32.0277 78.9896 32.1925 78.6506C32.3592 78.3116 32.5902 78.0483 32.8857 77.8608C33.183 77.6733 33.5287 77.5795 33.9226 77.5795C34.3166 77.5795 34.6612 77.6733 34.9567 77.8608C35.2541 78.0483 35.4851 78.3116 35.6499 78.6506C35.8166 78.9896 35.8999 79.3864 35.8999 79.8409C35.8999 80.2917 35.8166 80.6856 35.6499 81.0227C35.4851 81.3598 35.2541 81.6222 34.9567 81.8097C34.6612 81.9972 34.3166 82.0909 33.9226 82.0909ZM33.9226 81.4886C34.2219 81.4886 34.4681 81.4119 34.6612 81.2585C34.8544 81.1051 34.9974 80.9034 35.0902 80.6534C35.183 80.4034 35.2294 80.1326 35.2294 79.8409C35.2294 79.5492 35.183 79.2775 35.0902 79.0256C34.9974 78.7737 34.8544 78.5701 34.6612 78.4148C34.4681 78.2595 34.2219 78.1818 33.9226 78.1818C33.6234 78.1818 33.3772 78.2595 33.184 78.4148C32.9908 78.5701 32.8478 78.7737 32.755 79.0256C32.6622 79.2775 32.6158 79.5492 32.6158 79.8409C32.6158 80.1326 32.6622 80.4034 32.755 80.6534C32.8478 80.9034 32.9908 81.1051 33.184 81.2585C33.3772 81.4119 33.6234 81.4886 33.9226 81.4886ZM36.3374 83.25V81.375H36.7011C36.7901 81.2822 36.8668 81.1818 36.9312 81.0739C36.9956 80.9659 37.0514 80.8381 37.0988 80.6903C37.148 80.5407 37.1897 80.3589 37.2238 80.1449C37.2579 79.929 37.2882 79.6686 37.3147 79.3636L37.4624 77.6364H40.2351V81.375H40.9056V83.25H40.2351V82H37.0079V83.25H36.3374ZM37.4624 81.375H39.5647V78.2614H38.0874L37.9738 79.3636C37.9264 79.8201 37.8677 80.2187 37.7976 80.5597C37.7276 80.9006 37.6158 81.1723 37.4624 81.375ZM44.601 76.1818V82H43.8964V76.1818H44.601ZM50.8027 79.0909C50.8027 79.7045 50.6919 80.2348 50.4703 80.6818C50.2487 81.1288 49.9447 81.4735 49.5584 81.7159C49.172 81.9583 48.7307 82.0795 48.2345 82.0795C47.7383 82.0795 47.297 81.9583 46.9107 81.7159C46.5243 81.4735 46.2203 81.1288 45.9987 80.6818C45.7771 80.2348 45.6663 79.7045 45.6663 79.0909C45.6663 78.4773 45.7771 77.947 45.9987 77.5C46.2203 77.053 46.5243 76.7083 46.9107 76.4659C47.297 76.2235 47.7383 76.1023 48.2345 76.1023C48.7307 76.1023 49.172 76.2235 49.5584 76.4659C49.9447 76.7083 50.2487 77.053 50.4703 77.5C50.6919 77.947 50.8027 78.4773 50.8027 79.0909ZM50.1209 79.0909C50.1209 78.5871 50.0366 78.1619 49.868 77.8153C49.7014 77.4688 49.475 77.2064 49.1891 77.0284C48.905 76.8504 48.5868 76.7614 48.2345 76.7614C47.8822 76.7614 47.5631 76.8504 47.2771 77.0284C46.993 77.2064 46.7667 77.4688 46.5982 77.8153C46.4315 78.1619 46.3482 78.5871 46.3482 79.0909C46.3482 79.5947 46.4315 80.0199 46.5982 80.3665C46.7667 80.7131 46.993 80.9754 47.2771 81.1534C47.5631 81.3314 47.8822 81.4205 48.2345 81.4205C48.5868 81.4205 48.905 81.3314 49.1891 81.1534C49.475 80.9754 49.7014 80.7131 49.868 80.3665C50.0366 80.0199 50.1209 79.5947 50.1209 79.0909ZM55.0492 77.6364C55.0151 77.3485 54.8768 77.125 54.6344 76.9659C54.392 76.8068 54.0946 76.7273 53.7424 76.7273C53.4848 76.7273 53.2594 76.7689 53.0662 76.8523C52.8749 76.9356 52.7253 77.0502 52.6174 77.196C52.5113 77.3419 52.4583 77.5076 52.4583 77.6932C52.4583 77.8485 52.4952 77.982 52.5691 78.0938C52.6448 78.2036 52.7414 78.2955 52.8588 78.3693C52.9763 78.4413 53.0994 78.5009 53.2282 78.5483C53.3569 78.5937 53.4753 78.6307 53.5833 78.6591L54.1742 78.8182C54.3257 78.858 54.4943 78.9129 54.6799 78.983C54.8674 79.053 55.0463 79.1487 55.2168 79.2699C55.3891 79.3892 55.5312 79.5426 55.6429 79.7301C55.7547 79.9176 55.8105 80.1477 55.8105 80.4205C55.8105 80.7348 55.7282 81.0189 55.5634 81.2727C55.4005 81.5265 55.1619 81.7282 54.8475 81.8778C54.535 82.0275 54.1552 82.1023 53.7083 82.1023C53.2916 82.1023 52.9308 82.035 52.6259 81.9006C52.3228 81.7661 52.0842 81.5786 51.91 81.3381C51.7376 81.0975 51.6401 80.8182 51.6174 80.5H52.3446C52.3636 80.7197 52.4374 80.9015 52.5662 81.0455C52.6969 81.1875 52.8617 81.2936 53.0605 81.3636C53.2613 81.4318 53.4772 81.4659 53.7083 81.4659C53.9772 81.4659 54.2187 81.4223 54.4327 81.3352C54.6467 81.2462 54.8162 81.1231 54.9412 80.9659C55.0662 80.8068 55.1287 80.6212 55.1287 80.4091C55.1287 80.2159 55.0747 80.0587 54.9668 79.9375C54.8588 79.8163 54.7168 79.7178 54.5407 79.642C54.3645 79.5663 54.1742 79.5 53.9696 79.4432L53.2537 79.2386C52.7992 79.108 52.4393 78.9214 52.1742 78.679C51.909 78.4366 51.7764 78.1193 51.7764 77.7273C51.7764 77.4015 51.8645 77.1174 52.0407 76.875C52.2187 76.6307 52.4573 76.4413 52.7566 76.3068C53.0577 76.1705 53.3939 76.1023 53.7651 76.1023C54.1401 76.1023 54.4734 76.1695 54.7651 76.304C55.0568 76.4366 55.2878 76.6184 55.4583 76.8494C55.6306 77.0805 55.7215 77.3428 55.731 77.6364H55.0492ZM59.5585 81.0114L61.6607 77.6364H62.4335V82H61.763V78.625L59.6721 82H58.888V77.6364H59.5585V81.0114ZM27.9432 92H27.2045L29.3409 86.1818H30.0682L32.2045 92H31.4659L29.7273 87.1023H29.6818L27.9432 92ZM28.2159 89.7273H31.1932V90.3523H28.2159V89.7273ZM33.5703 89.375V92H32.8999V87.6364H33.5476V88.3182H33.6044C33.7067 88.0966 33.862 87.9186 34.0703 87.7841C34.2787 87.6477 34.5476 87.5795 34.8772 87.5795C35.1726 87.5795 35.4311 87.6402 35.6527 87.7614C35.8743 87.8807 36.0467 88.0625 36.1698 88.3068C36.2929 88.5492 36.3544 88.8561 36.3544 89.2273V92H35.684V89.2727C35.684 88.9299 35.595 88.6629 35.4169 88.4716C35.2389 88.2784 34.9946 88.1818 34.684 88.1818C34.47 88.1818 34.2787 88.2282 34.1101 88.321C33.9434 88.4138 33.8118 88.5492 33.7152 88.7273C33.6186 88.9053 33.5703 89.1212 33.5703 89.375ZM39.1073 92.0909C38.7437 92.0909 38.4226 91.9991 38.1442 91.8153C37.8658 91.6297 37.648 91.3684 37.4908 91.0312C37.3336 90.6922 37.255 90.2917 37.255 89.8295C37.255 89.3712 37.3336 88.9735 37.4908 88.6364C37.648 88.2992 37.8668 88.0388 38.1471 87.8551C38.4274 87.6714 38.7512 87.5795 39.1187 87.5795C39.4028 87.5795 39.6272 87.6269 39.792 87.7216C39.9586 87.8144 40.0855 87.9205 40.1726 88.0398C40.2617 88.1572 40.3308 88.2538 40.38 88.3295H40.4368V86.1818H41.1073V92H40.4596V91.3295H40.38C40.3308 91.4091 40.2607 91.5095 40.1698 91.6307C40.0789 91.75 39.9492 91.857 39.7806 91.9517C39.612 92.0445 39.3876 92.0909 39.1073 92.0909ZM39.1982 91.4886C39.4671 91.4886 39.6944 91.4186 39.88 91.2784C40.0656 91.1364 40.2067 90.9403 40.3033 90.6903C40.3999 90.4384 40.4482 90.1477 40.4482 89.8182C40.4482 89.4924 40.4009 89.2074 40.3062 88.9631C40.2115 88.7169 40.0713 88.5256 39.8857 88.3892C39.7001 88.2509 39.4709 88.1818 39.1982 88.1818C38.9141 88.1818 38.6774 88.2547 38.488 88.4006C38.3005 88.5445 38.1594 88.7405 38.0647 88.9886C37.9719 89.2348 37.9255 89.5114 37.9255 89.8182C37.9255 90.1288 37.9728 90.411 38.0675 90.6648C38.1641 90.9167 38.3062 91.1174 38.4937 91.267C38.6831 91.4148 38.9179 91.4886 39.1982 91.4886ZM42.3083 92V87.6364H42.9561V88.2955H43.0015C43.0811 88.0795 43.225 87.9044 43.4333 87.7699C43.6417 87.6354 43.8765 87.5682 44.1379 87.5682C44.1871 87.5682 44.2487 87.5691 44.3225 87.571C44.3964 87.5729 44.4523 87.5758 44.4901 87.5795V88.2614C44.4674 88.2557 44.4153 88.2472 44.3339 88.2358C44.2543 88.2225 44.1701 88.2159 44.0811 88.2159C43.8689 88.2159 43.6795 88.2604 43.5129 88.3494C43.3481 88.4366 43.2174 88.5578 43.1208 88.7131C43.0261 88.8665 42.9788 89.0417 42.9788 89.2386V92H42.3083ZM46.8048 92.0909C46.4109 92.0909 46.0652 91.9972 45.7679 91.8097C45.4724 91.6222 45.2414 91.3598 45.0747 91.0227C44.9099 90.6856 44.8275 90.2917 44.8275 89.8409C44.8275 89.3864 44.9099 88.9896 45.0747 88.6506C45.2414 88.3116 45.4724 88.0483 45.7679 87.8608C46.0652 87.6733 46.4109 87.5795 46.8048 87.5795C47.1987 87.5795 47.5434 87.6733 47.8389 87.8608C48.1362 88.0483 48.3673 88.3116 48.5321 88.6506C48.6987 88.9896 48.7821 89.3864 48.7821 89.8409C48.7821 90.2917 48.6987 90.6856 48.5321 91.0227C48.3673 91.3598 48.1362 91.6222 47.8389 91.8097C47.5434 91.9972 47.1987 92.0909 46.8048 92.0909ZM46.8048 91.4886C47.104 91.4886 47.3503 91.4119 47.5434 91.2585C47.7366 91.1051 47.8796 90.9034 47.9724 90.6534C48.0652 90.4034 48.1116 90.1326 48.1116 89.8409C48.1116 89.5492 48.0652 89.2775 47.9724 89.0256C47.8796 88.7737 47.7366 88.5701 47.5434 88.4148C47.3503 88.2595 47.104 88.1818 46.8048 88.1818C46.5056 88.1818 46.2593 88.2595 46.0662 88.4148C45.873 88.5701 45.73 88.7737 45.6372 89.0256C45.5444 89.2775 45.498 89.5492 45.498 89.8409C45.498 90.1326 45.5444 90.4034 45.6372 90.6534C45.73 90.9034 45.873 91.1051 46.0662 91.2585C46.2593 91.4119 46.5056 91.4886 46.8048 91.4886ZM49.6855 92V87.6364H50.356V92H49.6855ZM50.0264 86.9091C49.8957 86.9091 49.7831 86.8646 49.6884 86.7756C49.5956 86.6866 49.5491 86.5795 49.5491 86.4545C49.5491 86.3295 49.5956 86.2225 49.6884 86.1335C49.7831 86.0445 49.8957 86 50.0264 86C50.1571 86 50.2688 86.0445 50.3616 86.1335C50.4563 86.2225 50.5037 86.3295 50.5037 86.4545C50.5037 86.5795 50.4563 86.6866 50.3616 86.7756C50.2688 86.8646 50.1571 86.9091 50.0264 86.9091ZM53.1117 92.0909C52.748 92.0909 52.427 91.9991 52.1486 91.8153C51.8702 91.6297 51.6524 91.3684 51.4952 91.0312C51.338 90.6922 51.2594 90.2917 51.2594 89.8295C51.2594 89.3712 51.338 88.9735 51.4952 88.6364C51.6524 88.2992 51.8711 88.0388 52.1514 87.8551C52.4318 87.6714 52.7556 87.5795 53.123 87.5795C53.4071 87.5795 53.6316 87.6269 53.7963 87.7216C53.963 87.8144 54.0899 87.9205 54.177 88.0398C54.266 88.1572 54.3352 88.2538 54.3844 88.3295H54.4412V86.1818H55.1117V92H54.4639V91.3295H54.3844C54.3352 91.4091 54.2651 91.5095 54.1742 91.6307C54.0833 91.75 53.9535 91.857 53.785 91.9517C53.6164 92.0445 53.392 92.0909 53.1117 92.0909ZM53.2026 91.4886C53.4715 91.4886 53.6988 91.4186 53.8844 91.2784C54.07 91.1364 54.2111 90.9403 54.3077 90.6903C54.4043 90.4384 54.4526 90.1477 54.4526 89.8182C54.4526 89.4924 54.4052 89.2074 54.3105 88.9631C54.2158 88.7169 54.0757 88.5256 53.8901 88.3892C53.7045 88.2509 53.4753 88.1818 53.2026 88.1818C52.9185 88.1818 52.6818 88.2547 52.4924 88.4006C52.3049 88.5445 52.1638 88.7405 52.0691 88.9886C51.9763 89.2348 51.9299 89.5114 51.9299 89.8182C51.9299 90.1288 51.9772 90.411 52.0719 90.6648C52.1685 90.9167 52.3105 91.1174 52.498 91.267C52.6874 91.4148 52.9223 91.4886 53.2026 91.4886ZM57.9768 93.25V91.375H58.3404C58.4294 91.2822 58.5061 91.1818 58.5705 91.0739C58.6349 90.9659 58.6908 90.8381 58.7382 90.6903C58.7874 90.5407 58.8291 90.3589 58.8632 90.1449C58.8972 89.929 58.9275 89.6686 58.9541 89.3636L59.1018 87.6364H61.8745V91.375H62.545V93.25H61.8745V92H58.6472V93.25H57.9768ZM59.1018 91.375H61.2041V88.2614H59.7268L59.6132 89.3636C59.5658 89.8201 59.5071 90.2187 59.437 90.5597C59.3669 90.9006 59.2552 91.1723 59.1018 91.375ZM62.9285 92V91.375H63.0876C63.2183 91.375 63.3272 91.3494 63.4143 91.2983C63.5014 91.2453 63.5715 91.1534 63.6245 91.0227C63.6795 90.8902 63.7211 90.7064 63.7495 90.4716C63.7798 90.2348 63.8016 89.9337 63.8149 89.5682L63.8944 87.6364H66.8035V92H66.1331V88.2614H64.5308L64.4626 89.8182C64.4475 90.1761 64.4153 90.4915 64.366 90.7642C64.3187 91.035 64.2458 91.2623 64.1473 91.446C64.0507 91.6297 63.9219 91.768 63.7609 91.8608C63.5999 91.9536 63.3982 92 63.1558 92H62.9285ZM70.5386 92V88.25H69.3795C69.1182 88.25 68.9127 88.3106 68.7631 88.4318C68.6134 88.553 68.5386 88.7197 68.5386 88.9318C68.5386 89.1402 68.6059 89.304 68.7403 89.4233C68.8767 89.5426 69.0633 89.6023 69.3 89.6023H70.7091V90.2273H69.3C69.0045 90.2273 68.7498 90.1752 68.5358 90.071C68.3218 89.9669 68.157 89.8182 68.0415 89.625C67.9259 89.4299 67.8682 89.1989 67.8682 88.9318C67.8682 88.6629 67.9288 88.4318 68.05 88.2386C68.1712 88.0455 68.3445 87.8968 68.5699 87.7926C68.7972 87.6884 69.067 87.6364 69.3795 87.6364H71.175V92H70.5386ZM67.6295 92L68.8682 89.8295H69.5955L68.3568 92H67.6295ZM27.6136 102V97.6364H29.3977C29.8674 97.6364 30.2405 97.7424 30.517 97.9545C30.7936 98.1667 30.9318 98.447 30.9318 98.7955C30.9318 99.0606 30.8532 99.2661 30.696 99.4119C30.5388 99.5559 30.3371 99.6534 30.0909 99.7045C30.2519 99.7273 30.4081 99.7841 30.5597 99.875C30.7131 99.9659 30.84 100.091 30.9403 100.25C31.0407 100.407 31.0909 100.6 31.0909 100.83C31.0909 101.053 31.0341 101.253 30.9205 101.429C30.8068 101.605 30.6439 101.744 30.4318 101.847C30.2197 101.949 29.9659 102 29.6705 102H27.6136ZM28.25 101.386H29.6705C29.9015 101.386 30.0824 101.331 30.2131 101.222C30.3438 101.112 30.4091 100.962 30.4091 100.773C30.4091 100.547 30.3438 100.37 30.2131 100.241C30.0824 100.111 29.9015 100.045 29.6705 100.045H28.25V101.386ZM28.25 99.4659H29.3977C29.5777 99.4659 29.732 99.4413 29.8608 99.392C29.9896 99.3409 30.0881 99.2689 30.1562 99.1761C30.2263 99.0814 30.2614 98.9697 30.2614 98.8409C30.2614 98.6572 30.1847 98.5133 30.0312 98.4091C29.8778 98.303 29.6667 98.25 29.3977 98.25H28.25V99.4659ZM33.2699 102.102C32.9934 102.102 32.7425 102.05 32.5171 101.946C32.2917 101.84 32.1127 101.688 31.9801 101.489C31.8476 101.288 31.7813 101.045 31.7813 100.761C31.7813 100.511 31.8305 100.309 31.929 100.153C32.0275 99.9962 32.1591 99.8731 32.3239 99.7841C32.4887 99.6951 32.6705 99.6288 32.8693 99.5852C33.0701 99.5398 33.2718 99.5038 33.4745 99.4773C33.7396 99.4432 33.9546 99.4176 34.1193 99.4006C34.286 99.3816 34.4072 99.3504 34.483 99.3068C34.5606 99.2633 34.5995 99.1875 34.5995 99.0795V99.0568C34.5995 98.7765 34.5228 98.5587 34.3693 98.4034C34.2178 98.2481 33.9877 98.1705 33.679 98.1705C33.3589 98.1705 33.108 98.2405 32.9262 98.3807C32.7443 98.5208 32.6165 98.6705 32.5426 98.8295L31.9063 98.6023C32.0199 98.3371 32.1714 98.1307 32.3608 97.983C32.5521 97.8333 32.7604 97.7292 32.9858 97.6705C33.2131 97.6098 33.4366 97.5795 33.6563 97.5795C33.7964 97.5795 33.9574 97.5966 34.1392 97.6307C34.3229 97.6629 34.5 97.7301 34.6705 97.8324C34.8428 97.9347 34.9858 98.089 35.0995 98.2955C35.2131 98.5019 35.2699 98.7784 35.2699 99.125V102H34.5995V101.409H34.5654C34.5199 101.504 34.4442 101.605 34.3381 101.713C34.232 101.821 34.0909 101.913 33.9148 101.989C33.7387 102.064 33.5237 102.102 33.2699 102.102ZM33.3722 101.5C33.6373 101.5 33.8608 101.448 34.0426 101.344C34.2264 101.24 34.3646 101.105 34.4574 100.94C34.5521 100.776 34.5995 100.602 34.5995 100.42V99.8068C34.5711 99.8409 34.5086 99.8722 34.412 99.9006C34.3173 99.9271 34.2074 99.9508 34.0824 99.9716C33.9593 99.9905 33.839 100.008 33.7216 100.023C33.6061 100.036 33.5123 100.047 33.4404 100.057C33.2661 100.08 33.1032 100.116 32.9517 100.168C32.8021 100.217 32.6809 100.292 32.5881 100.392C32.4972 100.491 32.4517 100.625 32.4517 100.795C32.4517 101.028 32.5379 101.205 32.7103 101.324C32.8845 101.441 33.1051 101.5 33.3722 101.5ZM36.3736 97.6364H37.0441V101.375H38.6918V97.6364H39.3623V101.375H41.01V97.6364H41.6805V102H36.3736V97.6364ZM44.6144 102.091C44.194 102.091 43.8313 101.998 43.5264 101.812C43.2233 101.625 42.9894 101.364 42.8247 101.028C42.6618 100.691 42.5803 100.299 42.5803 99.8523C42.5803 99.4053 42.6618 99.0114 42.8247 98.6705C42.9894 98.3277 43.2186 98.0606 43.5122 97.8693C43.8076 97.6761 44.1523 97.5795 44.5462 97.5795C44.7735 97.5795 44.998 97.6174 45.2195 97.6932C45.4411 97.7689 45.6428 97.892 45.8247 98.0625C46.0065 98.2311 46.1514 98.4545 46.2593 98.733C46.3673 99.0114 46.4212 99.3542 46.4212 99.7614V100.045H43.0576V99.4659H45.7394C45.7394 99.2197 45.6902 99 45.5917 98.8068C45.4951 98.6136 45.3569 98.4612 45.1769 98.3494C44.9989 98.2377 44.7887 98.1818 44.5462 98.1818C44.2792 98.1818 44.0481 98.2481 43.8531 98.3807C43.6599 98.5114 43.5112 98.6818 43.407 98.892C43.3029 99.1023 43.2508 99.3277 43.2508 99.5682V99.9545C43.2508 100.284 43.3076 100.563 43.4212 100.793C43.5368 101.02 43.6968 101.193 43.9014 101.312C44.1059 101.43 44.3436 101.489 44.6144 101.489C44.7906 101.489 44.9497 101.464 45.0917 101.415C45.2356 101.364 45.3597 101.288 45.4639 101.188C45.568 101.085 45.6485 100.958 45.7053 100.807L46.3531 100.989C46.2849 101.208 46.1703 101.402 46.0093 101.568C45.8483 101.733 45.6495 101.862 45.4127 101.955C45.176 102.045 44.9099 102.091 44.6144 102.091ZM50.0143 97.6364V98.2614H47.9916V102H47.3211V97.6364H50.0143ZM52.4192 102.091C52.0252 102.091 51.6796 101.997 51.3822 101.81C51.0868 101.622 50.8557 101.36 50.6891 101.023C50.5243 100.686 50.4419 100.292 50.4419 99.8409C50.4419 99.3864 50.5243 98.9896 50.6891 98.6506C50.8557 98.3116 51.0868 98.0483 51.3822 97.8608C51.6796 97.6733 52.0252 97.5795 52.4192 97.5795C52.8131 97.5795 53.1578 97.6733 53.4533 97.8608C53.7506 98.0483 53.9817 98.3116 54.1465 98.6506C54.3131 98.9896 54.3965 99.3864 54.3965 99.8409C54.3965 100.292 54.3131 100.686 54.1465 101.023C53.9817 101.36 53.7506 101.622 53.4533 101.81C53.1578 101.997 52.8131 102.091 52.4192 102.091ZM52.4192 101.489C52.7184 101.489 52.9646 101.412 53.1578 101.259C53.351 101.105 53.494 100.903 53.5868 100.653C53.6796 100.403 53.726 100.133 53.726 99.8409C53.726 99.5492 53.6796 99.2775 53.5868 99.0256C53.494 98.7737 53.351 98.5701 53.1578 98.4148C52.9646 98.2595 52.7184 98.1818 52.4192 98.1818C52.1199 98.1818 51.8737 98.2595 51.6805 98.4148C51.4874 98.5701 51.3444 98.7737 51.2516 99.0256C51.1588 99.2775 51.1124 99.5492 51.1124 99.8409C51.1124 100.133 51.1588 100.403 51.2516 100.653C51.3444 100.903 51.4874 101.105 51.6805 101.259C51.8737 101.412 52.1199 101.489 52.4192 101.489ZM30.8523 106L31.1932 106.409C31.0606 106.538 30.9072 106.628 30.733 106.679C30.5587 106.73 30.3617 106.761 30.142 106.773C29.9223 106.784 29.678 106.795 29.4091 106.807C29.1061 106.818 28.8551 106.892 28.6562 107.028C28.4574 107.165 28.304 107.362 28.196 107.619C28.0881 107.877 28.0189 108.193 27.9886 108.568H28.0455C28.1932 108.295 28.3977 108.095 28.6591 107.966C28.9205 107.837 29.2008 107.773 29.5 107.773C29.8409 107.773 30.1477 107.852 30.4205 108.011C30.6932 108.17 30.9091 108.406 31.0682 108.719C31.2273 109.031 31.3068 109.417 31.3068 109.875C31.3068 110.331 31.2254 110.725 31.0625 111.057C30.9015 111.388 30.6752 111.644 30.3835 111.824C30.0938 112.002 29.7538 112.091 29.3636 112.091C28.9735 112.091 28.6316 111.999 28.3381 111.815C28.0445 111.63 27.8163 111.355 27.6534 110.991C27.4905 110.626 27.4091 110.174 27.4091 109.636V109.17C27.4091 108.199 27.5739 107.462 27.9034 106.96C28.2348 106.458 28.733 106.199 29.3977 106.182C29.6326 106.174 29.8419 106.172 30.0256 106.176C30.2093 106.18 30.3693 106.171 30.5057 106.151C30.642 106.13 30.7576 106.08 30.8523 106ZM29.3636 111.489C29.6269 111.489 29.8532 111.422 30.0426 111.29C30.2339 111.157 30.3807 110.971 30.483 110.73C30.5852 110.488 30.6364 110.203 30.6364 109.875C30.6364 109.557 30.5843 109.286 30.4801 109.062C30.3778 108.839 30.2311 108.669 30.0398 108.551C29.8485 108.434 29.6193 108.375 29.3523 108.375C29.1572 108.375 28.982 108.408 28.8267 108.474C28.6714 108.541 28.5388 108.638 28.429 108.767C28.3191 108.896 28.2339 109.053 28.1733 109.239C28.1146 109.424 28.0833 109.636 28.0795 109.875C28.0795 110.364 28.1941 110.755 28.4233 111.048C28.6525 111.342 28.9659 111.489 29.3636 111.489ZM32.8828 111.011L34.9851 107.636H35.7578V112H35.0874V108.625L32.9965 112H32.2124V107.636H32.8828V111.011ZM36.5931 110.886H37.309C37.3242 111.083 37.4132 111.233 37.5761 111.335C37.7408 111.438 37.9548 111.489 38.2181 111.489C38.487 111.489 38.7171 111.434 38.9084 111.324C39.0997 111.212 39.1954 111.032 39.1954 110.784C39.1954 110.638 39.1594 110.511 39.0874 110.403C39.0154 110.294 38.9141 110.208 38.7834 110.148C38.6528 110.087 38.4984 110.057 38.3204 110.057H37.5704V109.455H38.3204C38.5874 109.455 38.7844 109.394 38.9113 109.273C39.0401 109.152 39.1045 109 39.1045 108.818C39.1045 108.623 39.0353 108.467 38.8971 108.349C38.7588 108.23 38.5628 108.17 38.309 108.17C38.0533 108.17 37.8403 108.228 37.6698 108.344C37.4993 108.457 37.4094 108.604 37.3999 108.784H36.6954C36.7029 108.549 36.7749 108.342 36.9113 108.162C37.0476 107.98 37.2332 107.838 37.4681 107.736C37.7029 107.632 37.9719 107.58 38.2749 107.58C38.5817 107.58 38.8478 107.634 39.0732 107.741C39.3005 107.848 39.4757 107.992 39.5988 108.176C39.7238 108.358 39.7863 108.564 39.7863 108.795C39.7863 109.042 39.7171 109.241 39.5789 109.392C39.4406 109.544 39.2673 109.652 39.059 109.716V109.761C39.2238 109.773 39.3668 109.826 39.488 109.92C39.6111 110.013 39.7067 110.135 39.7749 110.287C39.8431 110.437 39.8772 110.602 39.8772 110.784C39.8772 111.049 39.8062 111.28 39.6641 111.477C39.5221 111.672 39.327 111.824 39.0789 111.932C38.8308 112.038 38.5476 112.091 38.2295 112.091C37.9207 112.091 37.6442 112.041 37.3999 111.94C37.1556 111.838 36.9615 111.697 36.8175 111.517C36.6755 111.335 36.6007 111.125 36.5931 110.886ZM43.6194 109.511V110.136H41.2103V109.511H43.6194ZM41.3694 107.636V112H40.6989V107.636H41.3694ZM44.1308 107.636V112H43.4603V107.636H44.1308ZM47.0647 112.091C46.6443 112.091 46.2816 111.998 45.9767 111.812C45.6736 111.625 45.4397 111.364 45.275 111.028C45.1121 110.691 45.0307 110.299 45.0307 109.852C45.0307 109.405 45.1121 109.011 45.275 108.67C45.4397 108.328 45.6689 108.061 45.9625 107.869C46.2579 107.676 46.6026 107.58 46.9966 107.58C47.2238 107.58 47.4483 107.617 47.6699 107.693C47.8914 107.769 48.0932 107.892 48.275 108.062C48.4568 108.231 48.6017 108.455 48.7096 108.733C48.8176 109.011 48.8716 109.354 48.8716 109.761V110.045H45.5079V109.466H48.1897C48.1897 109.22 48.1405 109 48.042 108.807C47.9454 108.614 47.8072 108.461 47.6272 108.349C47.4492 108.238 47.239 108.182 46.9966 108.182C46.7295 108.182 46.4985 108.248 46.3034 108.381C46.1102 108.511 45.9615 108.682 45.8574 108.892C45.7532 109.102 45.7011 109.328 45.7011 109.568V109.955C45.7011 110.284 45.7579 110.563 45.8716 110.793C45.9871 111.02 46.1471 111.193 46.3517 111.312C46.5562 111.43 46.7939 111.489 47.0647 111.489C47.2409 111.489 47.4 111.464 47.542 111.415C47.686 111.364 47.81 111.288 47.9142 111.188C48.0183 111.085 48.0988 110.958 48.1557 110.807L48.8034 110.989C48.7352 111.208 48.6206 111.402 48.4596 111.568C48.2986 111.733 48.0998 111.862 47.863 111.955C47.6263 112.045 47.3602 112.091 47.0647 112.091ZM51.5442 112.091C51.1351 112.091 50.7828 111.994 50.4874 111.801C50.1919 111.608 49.9646 111.342 49.8055 111.003C49.6465 110.664 49.5669 110.277 49.5669 109.841C49.5669 109.398 49.6483 109.007 49.8112 108.668C49.976 108.327 50.2052 108.061 50.4987 107.869C50.7942 107.676 51.1389 107.58 51.5328 107.58C51.8396 107.58 52.1161 107.636 52.3624 107.75C52.6086 107.864 52.8103 108.023 52.9675 108.227C53.1247 108.432 53.2222 108.67 53.2601 108.943H52.5896C52.5385 108.744 52.4249 108.568 52.2487 108.415C52.0745 108.259 51.8396 108.182 51.5442 108.182C51.2828 108.182 51.0536 108.25 50.8567 108.386C50.6616 108.521 50.5091 108.711 50.3993 108.957C50.2913 109.202 50.2374 109.489 50.2374 109.818C50.2374 110.155 50.2904 110.449 50.3965 110.699C50.5044 110.949 50.6559 111.143 50.851 111.281C51.048 111.42 51.279 111.489 51.5442 111.489C51.7184 111.489 51.8766 111.458 52.0186 111.398C52.1607 111.337 52.2809 111.25 52.3794 111.136C52.4779 111.023 52.548 110.886 52.5896 110.727H53.2601C53.2222 110.985 53.1285 111.217 52.9788 111.423C52.8311 111.628 52.6351 111.791 52.3908 111.912C52.1483 112.031 51.8661 112.091 51.5442 112.091ZM55.4043 112.102C55.1278 112.102 54.8768 112.05 54.6514 111.946C54.4261 111.84 54.2471 111.688 54.1145 111.489C53.9819 111.288 53.9157 111.045 53.9157 110.761C53.9157 110.511 53.9649 110.309 54.0634 110.153C54.1619 109.996 54.2935 109.873 54.4583 109.784C54.623 109.695 54.8049 109.629 55.0037 109.585C55.2045 109.54 55.4062 109.504 55.6088 109.477C55.874 109.443 56.0889 109.418 56.2537 109.401C56.4204 109.382 56.5416 109.35 56.6174 109.307C56.695 109.263 56.7338 109.187 56.7338 109.08V109.057C56.7338 108.777 56.6571 108.559 56.5037 108.403C56.3522 108.248 56.1221 108.17 55.8134 108.17C55.4933 108.17 55.2424 108.241 55.0605 108.381C54.8787 108.521 54.7509 108.67 54.677 108.83L54.0407 108.602C54.1543 108.337 54.3058 108.131 54.4952 107.983C54.6865 107.833 54.8948 107.729 55.1202 107.67C55.3475 107.61 55.571 107.58 55.7907 107.58C55.9308 107.58 56.0918 107.597 56.2736 107.631C56.4573 107.663 56.6344 107.73 56.8049 107.832C56.9772 107.935 57.1202 108.089 57.2338 108.295C57.3475 108.502 57.4043 108.778 57.4043 109.125V112H56.7338V111.409H56.6997C56.6543 111.504 56.5785 111.605 56.4725 111.713C56.3664 111.821 56.2253 111.913 56.0492 111.989C55.873 112.064 55.6581 112.102 55.4043 112.102ZM55.5066 111.5C55.7717 111.5 55.9952 111.448 56.177 111.344C56.3607 111.24 56.499 111.105 56.5918 110.94C56.6865 110.776 56.7338 110.602 56.7338 110.42V109.807C56.7054 109.841 56.6429 109.872 56.5463 109.901C56.4516 109.927 56.3418 109.951 56.2168 109.972C56.0937 109.991 55.9734 110.008 55.856 110.023C55.7405 110.036 55.6467 110.047 55.5747 110.057C55.4005 110.08 55.2376 110.116 55.0861 110.168C54.9365 110.217 54.8153 110.292 54.7225 110.392C54.6316 110.491 54.5861 110.625 54.5861 110.795C54.5861 111.028 54.6723 111.205 54.8446 111.324C55.0189 111.441 55.2395 111.5 55.5066 111.5Z" fill="black"/>
<path d="M158.979 54.7083H137.313C135.517 54.7083 133.795 55.4217 132.525 56.6915C131.255 57.9613 130.542 59.6834 130.542 61.4792V107.521C130.542 109.317 131.255 111.039 132.525 112.309C133.795 113.578 135.517 114.292 137.313 114.292H158.979C160.775 114.292 162.497 113.578 163.767 112.309C165.037 111.039 165.75 109.317 165.75 107.521V61.4792C165.75 59.6834 165.037 57.9613 163.767 56.6915C162.497 55.4217 160.775 54.7083 158.979 54.7083V54.7083ZM148.146 111.583C145.898 111.583 144.083 109.769 144.083 107.521C144.083 105.273 145.898 103.458 148.146 103.458C150.394 103.458 152.208 105.273 152.208 107.521C152.208 109.769 150.394 111.583 148.146 111.583ZM160.333 100.75H135.958V62.8333H160.333V100.75Z" fill="#353744"/>
<defs>
<filter id="filter0_d_4_3" x="3" y="4" width="194" height="137" filterUnits="userSpaceOnUse" color-interpolation-filters="sRGB">
<feFlood flood-opacity="0" result="BackgroundImageFix"/>
<feColorMatrix in="SourceAlpha" type="matrix" values="0 0 0 0 0 0 0 0 0 0 0 0 0 0 0 0 0 0 127 0" result="hardAlpha"/>
<feMorphology radius="2" operator="dilate" in="SourceAlpha" result="effect1_dropShadow_4_3"/>
<feOffset/>
<feGaussianBlur stdDeviation="5"/>
<feComposite in2="hardAlpha" operator="out"/>
<feColorMatrix type="matrix" values="0 0 0 0 0 0 0 0 0 0 0 0 0 0 0 0 0 0 0.35 0"/>
<feBlend mode="normal" in2="BackgroundImageFix" result="effect1_dropShadow_4_3"/>
<feBlend mode="normal" in="SourceGraphic" in2="effect1_dropShadow_4_3" result="shape"/>
</filter>
</defs>
</svg>
