<svg width="200" height="144" viewBox="0 0 200 144" fill="none" xmlns="http://www.w3.org/2000/svg">
<g filter="url(#filter0_d_4_24)">
<rect x="15" y="16" width="170" height="113" rx="13" fill="#F2F2F2"/>
</g>
<path d="M55.2925 32L52.8721 23.2727H54.257L55.9573 30.0312H56.0383L57.8067 23.2727H59.1789L60.9474 30.0355H61.0283L62.7244 23.2727H64.1136L61.6888 32H60.3636L58.5269 25.4631H58.4587L56.6221 32H55.2925ZM65.1342 32V23.2727H70.6058V24.4062H66.451V27.0653H70.3203V28.1946H66.451V30.8665H70.6569V32H65.1342ZM72.1847 32V23.2727H75.3807C76 23.2727 76.5128 23.375 76.919 23.5795C77.3253 23.7812 77.6293 24.0554 77.831 24.402C78.0327 24.7457 78.1335 25.1335 78.1335 25.5653C78.1335 25.929 78.0668 26.2358 77.9332 26.4858C77.7997 26.733 77.6207 26.9318 77.3963 27.0824C77.1747 27.2301 76.9304 27.3381 76.6634 27.4062V27.4915C76.9531 27.5057 77.2358 27.5994 77.5114 27.7727C77.7898 27.9432 78.0199 28.1861 78.2017 28.5014C78.3835 28.8168 78.4744 29.2003 78.4744 29.652C78.4744 30.098 78.3693 30.4986 78.1591 30.8537C77.9517 31.206 77.6307 31.4858 77.196 31.6932C76.7614 31.8977 76.206 32 75.5298 32H72.1847ZM73.5014 30.8707H75.402C76.0327 30.8707 76.4844 30.7486 76.7571 30.5043C77.0298 30.2599 77.1662 29.9545 77.1662 29.5881C77.1662 29.3125 77.0966 29.0597 76.9574 28.8295C76.8182 28.5994 76.6193 28.4162 76.3608 28.2798C76.1051 28.1435 75.8011 28.0753 75.4489 28.0753H73.5014V30.8707ZM73.5014 27.0483H75.2656C75.5611 27.0483 75.8267 26.9915 76.0625 26.8778C76.3011 26.7642 76.4901 26.6051 76.6293 26.4006C76.7713 26.1932 76.8423 25.9489 76.8423 25.6676C76.8423 25.3068 76.7159 25.0043 76.4631 24.7599C76.2102 24.5156 75.8225 24.3935 75.2997 24.3935H73.5014V27.0483ZM82.7497 32V25.4545H84.0239V28.1989H84.6375L86.798 25.4545H88.3747L85.8392 28.6378L88.4046 32H86.8236L84.8506 29.3835H84.0239V32H82.7497ZM91.7018 32.1321C91.0882 32.1321 90.5527 31.9915 90.0953 31.7102C89.6379 31.429 89.2828 31.0355 89.03 30.5298C88.7771 30.0241 88.6507 29.4332 88.6507 28.7571C88.6507 28.0781 88.7771 27.4844 89.03 26.9759C89.2828 26.4673 89.6379 26.0724 90.0953 25.7912C90.5527 25.5099 91.0882 25.3693 91.7018 25.3693C92.3155 25.3693 92.851 25.5099 93.3084 25.7912C93.7658 26.0724 94.1209 26.4673 94.3737 26.9759C94.6266 27.4844 94.753 28.0781 94.753 28.7571C94.753 29.4332 94.6266 30.0241 94.3737 30.5298C94.1209 31.0355 93.7658 31.429 93.3084 31.7102C92.851 31.9915 92.3155 32.1321 91.7018 32.1321ZM91.7061 31.0625C92.1038 31.0625 92.4334 30.9574 92.6947 30.7472C92.9561 30.5369 93.1493 30.2571 93.2743 29.9077C93.4021 29.5582 93.466 29.1733 93.466 28.7528C93.466 28.3352 93.4021 27.9517 93.2743 27.6023C93.1493 27.25 92.9561 26.9673 92.6947 26.7543C92.4334 26.5412 92.1038 26.4347 91.7061 26.4347C91.3055 26.4347 90.9731 26.5412 90.7089 26.7543C90.4476 26.9673 90.253 27.25 90.1251 27.6023C90.0001 27.9517 89.9376 28.3352 89.9376 28.7528C89.9376 29.1733 90.0001 29.5582 90.1251 29.9077C90.253 30.2571 90.4476 30.5369 90.7089 30.7472C90.9731 30.9574 91.3055 31.0625 91.7061 31.0625ZM99.6685 30.4233L101.782 25.4545H102.882L100.142 32H99.1955L96.5108 25.4545H97.5975L99.6685 30.4233ZM97.2438 25.4545V32H95.9952V25.4545H97.2438ZM102.127 32V25.4545H103.367V32H102.127ZM108.559 30.4233L110.672 25.4545H111.772L109.032 32H108.086L105.401 25.4545H106.488L108.559 30.4233ZM106.134 25.4545V32H104.886V25.4545H106.134ZM111.018 32V25.4545H112.258V32H111.018ZM116.597 32.1321C115.952 32.1321 115.397 31.9943 114.931 31.7188C114.468 31.4403 114.11 31.0497 113.857 30.5469C113.607 30.0412 113.482 29.4489 113.482 28.7699C113.482 28.0994 113.607 27.5085 113.857 26.9972C114.11 26.4858 114.462 26.0866 114.914 25.7997C115.368 25.5128 115.899 25.3693 116.507 25.3693C116.877 25.3693 117.235 25.4304 117.581 25.5526C117.928 25.6747 118.239 25.8665 118.514 26.1278C118.79 26.3892 119.007 26.7287 119.166 27.1463C119.326 27.5611 119.405 28.0653 119.405 28.6591V29.1108H114.202V28.1562H118.157C118.157 27.821 118.088 27.5241 117.952 27.2656C117.816 27.0043 117.624 26.7983 117.377 26.6477C117.132 26.4972 116.845 26.4219 116.516 26.4219C116.158 26.4219 115.845 26.5099 115.578 26.6861C115.314 26.8594 115.11 27.0866 114.965 27.3679C114.823 27.6463 114.752 27.9489 114.752 28.2756V29.0213C114.752 29.4588 114.828 29.831 114.982 30.1378C115.138 30.4446 115.355 30.679 115.634 30.8409C115.912 31 116.237 31.0795 116.61 31.0795C116.851 31.0795 117.071 31.0455 117.27 30.9773C117.469 30.9062 117.641 30.8011 117.786 30.6619C117.931 30.5227 118.041 30.3509 118.118 30.1463L119.324 30.3636C119.228 30.7187 119.054 31.0298 118.804 31.2969C118.557 31.5611 118.246 31.767 117.871 31.9148C117.499 32.0597 117.074 32.1321 116.597 32.1321ZM120.639 34.4545V25.4545H121.883V26.5156H121.99C122.064 26.3793 122.17 26.2216 122.309 26.0426C122.448 25.8636 122.642 25.7074 122.889 25.5739C123.136 25.4375 123.463 25.3693 123.869 25.3693C124.397 25.3693 124.869 25.5028 125.284 25.7699C125.698 26.0369 126.024 26.4219 126.26 26.9247C126.498 27.4276 126.617 28.0327 126.617 28.7401C126.617 29.4474 126.5 30.054 126.264 30.5597C126.028 31.0625 125.704 31.4503 125.292 31.723C124.88 31.9929 124.41 32.1278 123.882 32.1278C123.484 32.1278 123.159 32.0611 122.906 31.9276C122.656 31.794 122.46 31.6378 122.318 31.4588C122.176 31.2798 122.066 31.1207 121.99 30.9815H121.913V34.4545H120.639ZM121.887 28.7273C121.887 29.1875 121.954 29.5909 122.088 29.9375C122.221 30.2841 122.414 30.5554 122.667 30.7514C122.92 30.9446 123.23 31.0412 123.596 31.0412C123.977 31.0412 124.295 30.9403 124.551 30.7386C124.806 30.5341 125 30.2571 125.13 29.9077C125.264 29.5582 125.331 29.1648 125.331 28.7273C125.331 28.2955 125.265 27.9077 125.135 27.5639C125.007 27.2202 124.814 26.9489 124.555 26.75C124.299 26.5511 123.98 26.4517 123.596 26.4517C123.227 26.4517 122.914 26.5469 122.659 26.7372C122.406 26.9276 122.214 27.1932 122.083 27.5341C121.953 27.875 121.887 28.2727 121.887 28.7273ZM133.205 25.4545V30.956H134.163V34.1094H132.906V32H127.865V25.4545H129.114V30.9006H131.96V25.4545H133.205ZM136.645 30.2145L139.53 25.4545H140.902V32H139.653V27.2358L136.781 32H135.396V25.4545H136.645V30.2145ZM146.338 32V26.5412H144.77C144.398 26.5412 144.108 26.6278 143.901 26.8011C143.693 26.9744 143.59 27.2017 143.59 27.483C143.59 27.7614 143.685 27.9858 143.875 28.1562C144.068 28.3239 144.338 28.4077 144.685 28.4077H146.709V29.4389H144.685C144.202 29.4389 143.784 29.3594 143.432 29.2003C143.082 29.0384 142.813 28.8097 142.622 28.5142C142.435 28.2187 142.341 27.8693 142.341 27.4659C142.341 27.054 142.438 26.6989 142.631 26.4006C142.827 26.0994 143.107 25.8665 143.47 25.7017C143.837 25.5369 144.27 25.4545 144.77 25.4545H147.536V32H146.338ZM142.043 32L143.888 28.6932H145.192L143.347 32H142.043Z" fill="#353744"/>
<path d="M21 60.9318C20.7708 60.9318 20.5616 60.8759 20.3722 60.7642C20.1828 60.6506 20.0313 60.4991 19.9176 60.3097C19.8059 60.1203 19.75 59.911 19.75 59.6818C19.75 59.4508 19.8059 59.2415 19.9176 59.054C20.0313 58.8646 20.1828 58.714 20.3722 58.6023C20.5616 58.4886 20.7708 58.4318 21 58.4318C21.2311 58.4318 21.4403 58.4886 21.6278 58.6023C21.8172 58.714 21.9678 58.8646 22.0795 59.054C22.1932 59.2415 22.25 59.4508 22.25 59.6818C22.25 59.911 22.1932 60.1203 22.0795 60.3097C21.9678 60.4991 21.8172 60.6506 21.6278 60.7642C21.4403 60.8759 21.2311 60.9318 21 60.9318ZM27.7045 62V56.1818H29.6705C30.1269 56.1818 30.5 56.2642 30.7898 56.429C31.0814 56.5919 31.2973 56.8125 31.4375 57.0909C31.5777 57.3693 31.6477 57.6799 31.6477 58.0227C31.6477 58.3655 31.5777 58.6771 31.4375 58.9574C31.2992 59.2377 31.0852 59.4612 30.7955 59.6278C30.5057 59.7926 30.1345 59.875 29.6818 59.875H28.2727V59.25H29.6591C29.9716 59.25 30.2225 59.196 30.4119 59.0881C30.6013 58.9801 30.7386 58.8343 30.8239 58.6506C30.911 58.465 30.9545 58.2557 30.9545 58.0227C30.9545 57.7898 30.911 57.5814 30.8239 57.3977C30.7386 57.214 30.6004 57.0701 30.4091 56.9659C30.2178 56.8598 29.964 56.8068 29.6477 56.8068H28.4091V62H27.7045ZM33.8559 62.1023C33.5793 62.1023 33.3284 62.0502 33.103 61.946C32.8776 61.84 32.6987 61.6875 32.5661 61.4886C32.4335 61.2879 32.3672 61.0455 32.3672 60.7614C32.3672 60.5114 32.4165 60.3087 32.5149 60.1534C32.6134 59.9962 32.7451 59.8731 32.9098 59.7841C33.0746 59.6951 33.2564 59.6288 33.4553 59.5852C33.656 59.5398 33.8577 59.5038 34.0604 59.4773C34.3255 59.4432 34.5405 59.4176 34.7053 59.4006C34.872 59.3816 34.9932 59.3504 35.0689 59.3068C35.1466 59.2633 35.1854 59.1875 35.1854 59.0795V59.0568C35.1854 58.7765 35.1087 58.5587 34.9553 58.4034C34.8038 58.2481 34.5737 58.1705 34.2649 58.1705C33.9449 58.1705 33.6939 58.2405 33.5121 58.3807C33.3303 58.5208 33.2024 58.6705 33.1286 58.8295L32.4922 58.6023C32.6059 58.3371 32.7574 58.1307 32.9468 57.983C33.138 57.8333 33.3464 57.7292 33.5718 57.6705C33.799 57.6098 34.0225 57.5795 34.2422 57.5795C34.3824 57.5795 34.5434 57.5966 34.7252 57.6307C34.9089 57.6629 35.086 57.7301 35.2564 57.8324C35.4288 57.9347 35.5718 58.089 35.6854 58.2955C35.799 58.5019 35.8559 58.7784 35.8559 59.125V62H35.1854V61.4091H35.1513C35.1059 61.5038 35.0301 61.6051 34.924 61.7131C34.818 61.821 34.6769 61.9129 34.5007 61.9886C34.3246 62.0644 34.1096 62.1023 33.8559 62.1023ZM33.9581 61.5C34.2233 61.5 34.4468 61.4479 34.6286 61.3438C34.8123 61.2396 34.9505 61.1051 35.0434 60.9403C35.138 60.7756 35.1854 60.6023 35.1854 60.4205V59.8068C35.157 59.8409 35.0945 59.8722 34.9979 59.9006C34.9032 59.9271 34.7934 59.9508 34.6684 59.9716C34.5452 59.9905 34.425 60.0076 34.3076 60.0227C34.192 60.036 34.0983 60.0473 34.0263 60.0568C33.8521 60.0795 33.6892 60.1165 33.5377 60.1676C33.388 60.2169 33.2668 60.2917 33.174 60.392C33.0831 60.4905 33.0377 60.625 33.0377 60.7955C33.0377 61.0284 33.1238 61.2045 33.2962 61.3239C33.4704 61.4413 33.6911 61.5 33.9581 61.5ZM36.6868 60.8864H37.4028C37.4179 61.0833 37.5069 61.233 37.6698 61.3352C37.8346 61.4375 38.0486 61.4886 38.3118 61.4886C38.5808 61.4886 38.8109 61.4337 39.0022 61.3239C39.1935 61.2121 39.2891 61.0322 39.2891 60.7841C39.2891 60.6383 39.2531 60.5114 39.1812 60.4034C39.1092 60.2936 39.0079 60.2083 38.8772 60.1477C38.7465 60.0871 38.5921 60.0568 38.4141 60.0568H37.6641V59.4545H38.4141C38.6812 59.4545 38.8781 59.3939 39.005 59.2727C39.1338 59.1515 39.1982 59 39.1982 58.8182C39.1982 58.6231 39.1291 58.4669 38.9908 58.3494C38.8526 58.2301 38.6565 58.1705 38.4028 58.1705C38.1471 58.1705 37.934 58.2282 37.7636 58.3438C37.5931 58.4574 37.5031 58.6042 37.4937 58.7841H36.7891C36.7967 58.5492 36.8687 58.3419 37.005 58.1619C37.1414 57.9801 37.327 57.8381 37.5618 57.7358C37.7967 57.6316 38.0656 57.5795 38.3687 57.5795C38.6755 57.5795 38.9416 57.6335 39.167 57.7415C39.3942 57.8475 39.5694 57.9924 39.6925 58.1761C39.8175 58.358 39.88 58.5644 39.88 58.7955C39.88 59.0417 39.8109 59.2405 39.6726 59.392C39.5344 59.5436 39.3611 59.6515 39.1528 59.7159V59.7614C39.3175 59.7727 39.4605 59.8258 39.5817 59.9205C39.7048 60.0133 39.8005 60.1354 39.8687 60.2869C39.9368 60.4366 39.9709 60.6023 39.9709 60.7841C39.9709 61.0492 39.8999 61.2803 39.7579 61.4773C39.6158 61.6723 39.4207 61.8239 39.1726 61.9318C38.9245 62.0379 38.6414 62.0909 38.3232 62.0909C38.0145 62.0909 37.738 62.0407 37.4937 61.9403C37.2493 61.8381 37.0552 61.697 36.9113 61.517C36.7692 61.3352 36.6944 61.125 36.6868 60.8864ZM40.7927 63.6364V57.6364H41.4404V58.3295H41.52C41.5692 58.2538 41.6374 58.1572 41.7245 58.0398C41.8135 57.9205 41.9404 57.8144 42.1052 57.7216C42.2719 57.6269 42.4972 57.5795 42.7813 57.5795C43.1488 57.5795 43.4726 57.6714 43.7529 57.8551C44.0332 58.0388 44.252 58.2992 44.4092 58.6364C44.5664 58.9735 44.645 59.3712 44.645 59.8295C44.645 60.2917 44.5664 60.6922 44.4092 61.0312C44.252 61.3684 44.0342 61.6297 43.7558 61.8153C43.4774 61.9991 43.1563 62.0909 42.7927 62.0909C42.5124 62.0909 42.288 62.0445 42.1194 61.9517C41.9508 61.857 41.8211 61.75 41.7302 61.6307C41.6393 61.5095 41.5692 61.4091 41.52 61.3295H41.4632V63.6364H40.7927ZM41.4518 59.8182C41.4518 60.1477 41.5001 60.4384 41.5967 60.6903C41.6933 60.9403 41.8344 61.1364 42.02 61.2784C42.2056 61.4186 42.4328 61.4886 42.7018 61.4886C42.9821 61.4886 43.216 61.4148 43.4035 61.267C43.5929 61.1174 43.7349 60.9167 43.8296 60.6648C43.9262 60.411 43.9745 60.1288 43.9745 59.8182C43.9745 59.5114 43.9272 59.2348 43.8325 58.9886C43.7397 58.7405 43.5986 58.5445 43.4092 58.4006C43.2217 58.2547 42.9859 58.1818 42.7018 58.1818C42.4291 58.1818 42.1999 58.2509 42.0143 58.3892C41.8287 58.5256 41.6885 58.7169 41.5938 58.9631C41.4991 59.2074 41.4518 59.4924 41.4518 59.8182ZM46.8318 62.1023C46.5553 62.1023 46.3043 62.0502 46.0789 61.946C45.8536 61.84 45.6746 61.6875 45.542 61.4886C45.4094 61.2879 45.3432 61.0455 45.3432 60.7614C45.3432 60.5114 45.3924 60.3087 45.4909 60.1534C45.5894 59.9962 45.721 59.8731 45.8858 59.7841C46.0505 59.6951 46.2324 59.6288 46.4312 59.5852C46.632 59.5398 46.8337 59.5038 47.0363 59.4773C47.3015 59.4432 47.5164 59.4176 47.6812 59.4006C47.8479 59.3816 47.9691 59.3504 48.0449 59.3068C48.1225 59.2633 48.1613 59.1875 48.1613 59.0795V59.0568C48.1613 58.7765 48.0846 58.5587 47.9312 58.4034C47.7797 58.2481 47.5496 58.1705 47.2409 58.1705C46.9208 58.1705 46.6699 58.2405 46.488 58.3807C46.3062 58.5208 46.1784 58.6705 46.1045 58.8295L45.4682 58.6023C45.5818 58.3371 45.7333 58.1307 45.9227 57.983C46.114 57.8333 46.3223 57.7292 46.5477 57.6705C46.775 57.6098 46.9985 57.5795 47.2182 57.5795C47.3583 57.5795 47.5193 57.5966 47.7011 57.6307C47.8848 57.6629 48.0619 57.7301 48.2324 57.8324C48.4047 57.9347 48.5477 58.089 48.6613 58.2955C48.775 58.5019 48.8318 58.7784 48.8318 59.125V62H48.1613V61.4091H48.1272C48.0818 61.5038 48.006 61.6051 47.9 61.7131C47.7939 61.821 47.6528 61.9129 47.4767 61.9886C47.3005 62.0644 47.0856 62.1023 46.8318 62.1023ZM46.9341 61.5C47.1992 61.5 47.4227 61.4479 47.6045 61.3438C47.7882 61.2396 47.9265 61.1051 48.0193 60.9403C48.114 60.7756 48.1613 60.6023 48.1613 60.4205V59.8068C48.1329 59.8409 48.0704 59.8722 47.9738 59.9006C47.8791 59.9271 47.7693 59.9508 47.6443 59.9716C47.5212 59.9905 47.4009 60.0076 47.2835 60.0227C47.168 60.036 47.0742 60.0473 47.0022 60.0568C46.828 60.0795 46.6651 60.1165 46.5136 60.1676C46.364 60.2169 46.2428 60.2917 46.15 60.392C46.0591 60.4905 46.0136 60.625 46.0136 60.7955C46.0136 61.0284 46.0998 61.2045 46.2721 61.3239C46.4464 61.4413 46.667 61.5 46.9341 61.5ZM53.1741 56L53.5151 56.4091C53.3825 56.5379 53.2291 56.6278 53.0548 56.679C52.8806 56.7301 52.6836 56.7614 52.4639 56.7727C52.2442 56.7841 51.9999 56.7955 51.731 56.8068C51.4279 56.8182 51.177 56.892 50.9781 57.0284C50.7793 57.1648 50.6259 57.3617 50.5179 57.6193C50.4099 57.8769 50.3408 58.1932 50.3105 58.5682H50.3673C50.5151 58.2955 50.7196 58.0947 50.981 57.9659C51.2423 57.8371 51.5226 57.7727 51.8219 57.7727C52.1628 57.7727 52.4696 57.8523 52.7423 58.0114C53.0151 58.1705 53.231 58.4062 53.3901 58.7188C53.5491 59.0312 53.6287 59.4167 53.6287 59.875C53.6287 60.3314 53.5473 60.7254 53.3844 61.0568C53.2234 61.3883 52.9971 61.6439 52.7054 61.8239C52.4156 62.0019 52.0757 62.0909 51.6855 62.0909C51.2954 62.0909 50.9535 61.9991 50.6599 61.8153C50.3664 61.6297 50.1382 61.3551 49.9753 60.9915C49.8124 60.6259 49.731 60.1742 49.731 59.6364V59.1705C49.731 58.1989 49.8957 57.4621 50.2253 56.9602C50.5567 56.4583 51.0548 56.1989 51.7196 56.1818C51.9545 56.1742 52.1637 56.1723 52.3474 56.1761C52.5312 56.1799 52.6912 56.1714 52.8276 56.1506C52.9639 56.1297 53.0795 56.0795 53.1741 56ZM51.6855 61.4886C51.9488 61.4886 52.1751 61.4223 52.3645 61.2898C52.5558 61.1572 52.7026 60.9706 52.8048 60.7301C52.9071 60.4877 52.9582 60.2027 52.9582 59.875C52.9582 59.5568 52.9062 59.286 52.802 59.0625C52.6997 58.839 52.5529 58.6686 52.3616 58.5511C52.1704 58.4337 51.9412 58.375 51.6741 58.375C51.4791 58.375 51.3039 58.4081 51.1486 58.4744C50.9933 58.5407 50.8607 58.6383 50.7509 58.767C50.641 58.8958 50.5558 59.053 50.4952 59.2386C50.4365 59.4242 50.4052 59.6364 50.4014 59.875C50.4014 60.3636 50.516 60.7547 50.7452 61.0483C50.9743 61.3419 51.2878 61.4886 51.6855 61.4886ZM56.307 62.0909C55.913 62.0909 55.5674 61.9972 55.2701 61.8097C54.9746 61.6222 54.7435 61.3598 54.5769 61.0227C54.4121 60.6856 54.3297 60.2917 54.3297 59.8409C54.3297 59.3864 54.4121 58.9896 54.5769 58.6506C54.7435 58.3116 54.9746 58.0483 55.2701 57.8608C55.5674 57.6733 55.913 57.5795 56.307 57.5795C56.7009 57.5795 57.0456 57.6733 57.3411 57.8608C57.6384 58.0483 57.8695 58.3116 58.0343 58.6506C58.2009 58.9896 58.2843 59.3864 58.2843 59.8409C58.2843 60.2917 58.2009 60.6856 58.0343 61.0227C57.8695 61.3598 57.6384 61.6222 57.3411 61.8097C57.0456 61.9972 56.7009 62.0909 56.307 62.0909ZM56.307 61.4886C56.6062 61.4886 56.8524 61.4119 57.0456 61.2585C57.2388 61.1051 57.3818 60.9034 57.4746 60.6534C57.5674 60.4034 57.6138 60.1326 57.6138 59.8409C57.6138 59.5492 57.5674 59.2775 57.4746 59.0256C57.3818 58.7737 57.2388 58.5701 57.0456 58.4148C56.8524 58.2595 56.6062 58.1818 56.307 58.1818C56.0077 58.1818 55.7615 58.2595 55.5684 58.4148C55.3752 58.5701 55.2322 58.7737 55.1394 59.0256C55.0466 59.2775 55.0002 59.5492 55.0002 59.8409C55.0002 60.1326 55.0466 60.4034 55.1394 60.6534C55.2322 60.9034 55.3752 61.1051 55.5684 61.2585C55.7615 61.4119 56.0077 61.4886 56.307 61.4886ZM58.6174 58.2614V57.6364H62.1628V58.2614H60.731V62H60.0606V58.2614H58.6174ZM63.0208 62V57.6364H63.6913V59.5341H64.1345L65.7026 57.6364H66.5663L64.8049 59.7386L66.589 62H65.7254L64.2936 60.1591H63.6913V62H63.0208ZM68.4818 62.1023C68.2053 62.1023 67.9543 62.0502 67.7289 61.946C67.5036 61.84 67.3246 61.6875 67.192 61.4886C67.0594 61.2879 66.9932 61.0455 66.9932 60.7614C66.9932 60.5114 67.0424 60.3087 67.1409 60.1534C67.2394 59.9962 67.371 59.8731 67.5358 59.7841C67.7005 59.6951 67.8824 59.6288 68.0812 59.5852C68.282 59.5398 68.4837 59.5038 68.6863 59.4773C68.9515 59.4432 69.1664 59.4176 69.3312 59.4006C69.4979 59.3816 69.6191 59.3504 69.6949 59.3068C69.7725 59.2633 69.8113 59.1875 69.8113 59.0795V59.0568C69.8113 58.7765 69.7346 58.5587 69.5812 58.4034C69.4297 58.2481 69.1996 58.1705 68.8909 58.1705C68.5708 58.1705 68.3199 58.2405 68.138 58.3807C67.9562 58.5208 67.8284 58.6705 67.7545 58.8295L67.1182 58.6023C67.2318 58.3371 67.3833 58.1307 67.5727 57.983C67.764 57.8333 67.9723 57.7292 68.1977 57.6705C68.425 57.6098 68.6485 57.5795 68.8682 57.5795C69.0083 57.5795 69.1693 57.5966 69.3511 57.6307C69.5348 57.6629 69.7119 57.7301 69.8824 57.8324C70.0547 57.9347 70.1977 58.089 70.3113 58.2955C70.425 58.5019 70.4818 58.7784 70.4818 59.125V62H69.8113V61.4091H69.7772C69.7318 61.5038 69.656 61.6051 69.55 61.7131C69.4439 61.821 69.3028 61.9129 69.1267 61.9886C68.9505 62.0644 68.7356 62.1023 68.4818 62.1023ZM68.5841 61.5C68.8492 61.5 69.0727 61.4479 69.2545 61.3438C69.4382 61.2396 69.5765 61.1051 69.6693 60.9403C69.764 60.7756 69.8113 60.6023 69.8113 60.4205V59.8068C69.7829 59.8409 69.7204 59.8722 69.6238 59.9006C69.5291 59.9271 69.4193 59.9508 69.2943 59.9716C69.1712 59.9905 69.0509 60.0076 68.9335 60.0227C68.818 60.036 68.7242 60.0473 68.6522 60.0568C68.478 60.0795 68.3151 60.1165 68.1636 60.1676C68.014 60.2169 67.8928 60.2917 67.8 60.392C67.7091 60.4905 67.6636 60.625 67.6636 60.7955C67.6636 61.0284 67.7498 61.2045 67.9221 61.3239C68.0964 61.4413 68.317 61.5 68.5841 61.5ZM28.2841 71.0114L30.3864 67.6364H31.1591V72H30.4886V68.625L28.3977 72H27.6136V67.6364H28.2841V71.0114ZM35.1875 69.5114V70.1364H32.7784V69.5114H35.1875ZM32.9375 67.6364V72H32.2671V67.6364H32.9375ZM35.6989 67.6364V72H35.0284V67.6364H35.6989ZM36.2096 68.2614V67.6364H39.755V68.2614H38.3232V72H37.6528V68.2614H36.2096ZM42.216 72.0909C41.7955 72.0909 41.4328 71.9981 41.1279 71.8125C40.8249 71.625 40.591 71.3636 40.4262 71.0284C40.2633 70.6913 40.1819 70.2992 40.1819 69.8523C40.1819 69.4053 40.2633 69.0114 40.4262 68.6705C40.591 68.3277 40.8202 68.0606 41.1137 67.8693C41.4092 67.6761 41.7539 67.5795 42.1478 67.5795C42.3751 67.5795 42.5995 67.6174 42.8211 67.6932C43.0427 67.7689 43.2444 67.892 43.4262 68.0625C43.608 68.2311 43.7529 68.4545 43.8609 68.733C43.9688 69.0114 44.0228 69.3542 44.0228 69.7614V70.0455H40.6592V69.4659H43.341C43.341 69.2197 43.2918 69 43.1933 68.8068C43.0967 68.6136 42.9584 68.4612 42.7785 68.3494C42.6005 68.2377 42.3902 68.1818 42.1478 68.1818C41.8808 68.1818 41.6497 68.2481 41.4546 68.3807C41.2614 68.5114 41.1128 68.6818 41.0086 68.892C40.9044 69.1023 40.8524 69.3277 40.8524 69.5682V69.9545C40.8524 70.2841 40.9092 70.5634 41.0228 70.7926C41.1383 71.0199 41.2984 71.1932 41.5029 71.3125C41.7075 71.4299 41.9452 71.4886 42.216 71.4886C42.3921 71.4886 42.5512 71.464 42.6933 71.4148C42.8372 71.3636 42.9613 71.2879 43.0654 71.1875C43.1696 71.0852 43.2501 70.9583 43.3069 70.8068L43.9546 70.9886C43.8864 71.2083 43.7719 71.4015 43.6109 71.5682C43.4499 71.733 43.251 71.8617 43.0143 71.9545C42.7775 72.0455 42.5114 72.0909 42.216 72.0909ZM44.9227 73.6364V67.6364H45.5704V68.3295H45.65C45.6992 68.2538 45.7674 68.1572 45.8545 68.0398C45.9435 67.9205 46.0704 67.8144 46.2352 67.7216C46.4019 67.6269 46.6272 67.5795 46.9113 67.5795C47.2788 67.5795 47.6026 67.6714 47.8829 67.8551C48.1632 68.0388 48.382 68.2992 48.5392 68.6364C48.6964 68.9735 48.775 69.3712 48.775 69.8295C48.775 70.2917 48.6964 70.6922 48.5392 71.0312C48.382 71.3684 48.1642 71.6297 47.8858 71.8153C47.6074 71.9991 47.2863 72.0909 46.9227 72.0909C46.6424 72.0909 46.418 72.0445 46.2494 71.9517C46.0808 71.857 45.9511 71.75 45.8602 71.6307C45.7693 71.5095 45.6992 71.4091 45.65 71.3295H45.5932V73.6364H44.9227ZM45.5818 69.8182C45.5818 70.1477 45.6301 70.4384 45.7267 70.6903C45.8233 70.9403 45.9644 71.1364 46.15 71.2784C46.3356 71.4186 46.5629 71.4886 46.8318 71.4886C47.1121 71.4886 47.346 71.4148 47.5335 71.267C47.7229 71.1174 47.8649 70.9167 47.9596 70.6648C48.0562 70.411 48.1045 70.1288 48.1045 69.8182C48.1045 69.5114 48.0572 69.2348 47.9625 68.9886C47.8697 68.7405 47.7286 68.5445 47.5392 68.4006C47.3517 68.2547 47.1159 68.1818 46.8318 68.1818C46.5591 68.1818 46.3299 68.2509 46.1443 68.3892C45.9587 68.5256 45.8185 68.7169 45.7238 68.9631C45.6291 69.2074 45.5818 69.4924 45.5818 69.8182ZM52.5982 69.5114V70.1364H50.1891V69.5114H52.5982ZM50.3482 67.6364V72H49.6777V67.6364H50.3482ZM53.1095 67.6364V72H52.4391V67.6364H53.1095ZM56.0435 72.0909C55.623 72.0909 55.2603 71.9981 54.9554 71.8125C54.6524 71.625 54.4185 71.3636 54.2537 71.0284C54.0908 70.6913 54.0094 70.2992 54.0094 69.8523C54.0094 69.4053 54.0908 69.0114 54.2537 68.6705C54.4185 68.3277 54.6477 68.0606 54.9412 67.8693C55.2367 67.6761 55.5814 67.5795 55.9753 67.5795C56.2026 67.5795 56.427 67.6174 56.6486 67.6932C56.8702 67.7689 57.0719 67.892 57.2537 68.0625C57.4355 68.2311 57.5804 68.4545 57.6884 68.733C57.7963 69.0114 57.8503 69.3542 57.8503 69.7614V70.0455H54.4867V69.4659H57.1685C57.1685 69.2197 57.1193 69 57.0208 68.8068C56.9242 68.6136 56.7859 68.4612 56.606 68.3494C56.428 68.2377 56.2177 68.1818 55.9753 68.1818C55.7083 68.1818 55.4772 68.2481 55.2821 68.3807C55.0889 68.5114 54.9403 68.6818 54.8361 68.892C54.7319 69.1023 54.6799 69.3277 54.6799 69.5682V69.9545C54.6799 70.2841 54.7367 70.5634 54.8503 70.7926C54.9658 71.0199 55.1259 71.1932 55.3304 71.3125C55.535 71.4299 55.7727 71.4886 56.0435 71.4886C56.2196 71.4886 56.3787 71.464 56.5208 71.4148C56.6647 71.3636 56.7888 71.2879 56.8929 71.1875C56.9971 71.0852 57.0776 70.9583 57.1344 70.8068L57.7821 70.9886C57.7139 71.2083 57.5994 71.4015 57.4384 71.5682C57.2774 71.733 57.0785 71.8617 56.8418 71.9545C56.605 72.0455 56.3389 72.0909 56.0435 72.0909ZM58.3439 68.2614V67.6364H61.8894V68.2614H60.4576V72H59.7871V68.2614H58.3439ZM30 81.0909L31.5227 77.6364H32.1591L30.2727 82H29.7273L27.875 77.6364H28.5L30 81.0909ZM28.2841 77.6364V82H27.6136V77.6364H28.2841ZM31.7159 82V77.6364H32.3864V82H31.7159ZM34.7777 82.1023C34.5012 82.1023 34.2503 82.0502 34.0249 81.946C33.7995 81.84 33.6205 81.6875 33.488 81.4886C33.3554 81.2879 33.2891 81.0455 33.2891 80.7614C33.2891 80.5114 33.3383 80.3087 33.4368 80.1534C33.5353 79.9962 33.6669 79.8731 33.8317 79.7841C33.9965 79.6951 34.1783 79.6288 34.3772 79.5852C34.5779 79.5398 34.7796 79.5038 34.9823 79.4773C35.2474 79.4432 35.4624 79.4176 35.6272 79.4006C35.7938 79.3816 35.915 79.3504 35.9908 79.3068C36.0684 79.2633 36.1073 79.1875 36.1073 79.0795V79.0568C36.1073 78.7765 36.0306 78.5587 35.8772 78.4034C35.7256 78.2481 35.4955 78.1705 35.1868 78.1705C34.8667 78.1705 34.6158 78.2405 34.434 78.3807C34.2522 78.5208 34.1243 78.6705 34.0505 78.8295L33.4141 78.6023C33.5277 78.3371 33.6792 78.1307 33.8686 77.983C34.0599 77.8333 34.2683 77.7292 34.4936 77.6705C34.7209 77.6098 34.9444 77.5795 35.1641 77.5795C35.3042 77.5795 35.4652 77.5966 35.647 77.6307C35.8308 77.6629 36.0078 77.7301 36.1783 77.8324C36.3506 77.9347 36.4936 78.089 36.6073 78.2955C36.7209 78.5019 36.7777 78.7784 36.7777 79.125V82H36.1073V81.4091H36.0732C36.0277 81.5038 35.952 81.6051 35.8459 81.7131C35.7398 81.821 35.5987 81.9129 35.4226 81.9886C35.2465 82.0644 35.0315 82.1023 34.7777 82.1023ZM34.88 81.5C35.1452 81.5 35.3686 81.4479 35.5505 81.3438C35.7342 81.2396 35.8724 81.1051 35.9652 80.9403C36.0599 80.7756 36.1073 80.6023 36.1073 80.4205V79.8068C36.0789 79.8409 36.0164 79.8722 35.9198 79.9006C35.8251 79.9271 35.7152 79.9508 35.5902 79.9716C35.4671 79.9905 35.3469 80.0076 35.2294 80.0227C35.1139 80.036 35.0202 80.0473 34.9482 80.0568C34.7739 80.0795 34.6111 80.1165 34.4595 80.1676C34.3099 80.2169 34.1887 80.2917 34.0959 80.392C34.005 80.4905 33.9595 80.625 33.9595 80.7955C33.9595 81.0284 34.0457 81.2045 34.2181 81.3239C34.3923 81.4413 34.613 81.5 34.88 81.5ZM40.5746 77.6364V78.2614H38.5519V82H37.8814V77.6364H40.5746ZM42.4909 82.1023C42.2143 82.1023 41.9634 82.0502 41.738 81.946C41.5126 81.84 41.3337 81.6875 41.2011 81.4886C41.0685 81.2879 41.0022 81.0455 41.0022 80.7614C41.0022 80.5114 41.0515 80.3087 41.1499 80.1534C41.2484 79.9962 41.3801 79.8731 41.5448 79.7841C41.7096 79.6951 41.8914 79.6288 42.0903 79.5852C42.291 79.5398 42.4927 79.5038 42.6954 79.4773C42.9605 79.4432 43.1755 79.4176 43.3403 79.4006C43.507 79.3816 43.6282 79.3504 43.7039 79.3068C43.7816 79.2633 43.8204 79.1875 43.8204 79.0795V79.0568C43.8204 78.7765 43.7437 78.5587 43.5903 78.4034C43.4388 78.2481 43.2087 78.1705 42.8999 78.1705C42.5799 78.1705 42.3289 78.2405 42.1471 78.3807C41.9653 78.5208 41.8374 78.6705 41.7636 78.8295L41.1272 78.6023C41.2409 78.3371 41.3924 78.1307 41.5818 77.983C41.773 77.8333 41.9814 77.7292 42.2068 77.6705C42.434 77.6098 42.6575 77.5795 42.8772 77.5795C43.0174 77.5795 43.1784 77.5966 43.3602 77.6307C43.5439 77.6629 43.721 77.7301 43.8914 77.8324C44.0638 77.9347 44.2068 78.089 44.3204 78.2955C44.434 78.5019 44.4909 78.7784 44.4909 79.125V82H43.8204V81.4091H43.7863C43.7409 81.5038 43.6651 81.6051 43.559 81.7131C43.453 81.821 43.3119 81.9129 43.1357 81.9886C42.9596 82.0644 42.7446 82.1023 42.4909 82.1023ZM42.5931 81.5C42.8583 81.5 43.0818 81.4479 43.2636 81.3438C43.4473 81.2396 43.5855 81.1051 43.6784 80.9403C43.773 80.7756 43.8204 80.6023 43.8204 80.4205V79.8068C43.792 79.8409 43.7295 79.8722 43.6329 79.9006C43.5382 79.9271 43.4284 79.9508 43.3034 79.9716C43.1802 79.9905 43.06 80.0076 42.9426 80.0227C42.827 80.036 42.7333 80.0473 42.6613 80.0568C42.4871 80.0795 42.3242 80.1165 42.1727 80.1676C42.023 80.2169 41.9018 80.2917 41.809 80.392C41.7181 80.4905 41.6727 80.625 41.6727 80.7955C41.6727 81.0284 41.7588 81.2045 41.9312 81.3239C42.1054 81.4413 42.3261 81.5 42.5931 81.5ZM45.3218 80.8864H46.0378C46.0529 81.0833 46.1419 81.233 46.3048 81.3352C46.4696 81.4375 46.6836 81.4886 46.9468 81.4886C47.2158 81.4886 47.4459 81.4337 47.6372 81.3239C47.8285 81.2121 47.9241 81.0322 47.9241 80.7841C47.9241 80.6383 47.8881 80.5114 47.8162 80.4034C47.7442 80.2936 47.6429 80.2083 47.5122 80.1477C47.3815 80.0871 47.2272 80.0568 47.0491 80.0568H46.2991V79.4545H47.0491C47.3162 79.4545 47.5131 79.3939 47.64 79.2727C47.7688 79.1515 47.8332 79 47.8332 78.8182C47.8332 78.6231 47.7641 78.4669 47.6258 78.3494C47.4876 78.2301 47.2915 78.1705 47.0378 78.1705C46.7821 78.1705 46.569 78.2282 46.3986 78.3438C46.2281 78.4574 46.1381 78.6042 46.1287 78.7841H45.4241C45.4317 78.5492 45.5037 78.3419 45.64 78.1619C45.7764 77.9801 45.962 77.8381 46.1968 77.7358C46.4317 77.6316 46.7006 77.5795 47.0037 77.5795C47.3105 77.5795 47.5766 77.6335 47.802 77.7415C48.0292 77.8475 48.2044 77.9924 48.3275 78.1761C48.4525 78.358 48.515 78.5644 48.515 78.7955C48.515 79.0417 48.4459 79.2405 48.3076 79.392C48.1694 79.5436 47.9961 79.6515 47.7878 79.7159V79.7614C47.9525 79.7727 48.0955 79.8258 48.2167 79.9205C48.3398 80.0133 48.4355 80.1354 48.5037 80.2869C48.5718 80.4366 48.6059 80.6023 48.6059 80.7841C48.6059 81.0492 48.5349 81.2803 48.3929 81.4773C48.2508 81.6723 48.0557 81.8239 47.8076 81.9318C47.5595 82.0379 47.2764 82.0909 46.9582 82.0909C46.6495 82.0909 46.373 82.0407 46.1287 81.9403C45.8843 81.8381 45.6902 81.697 45.5463 81.517C45.4042 81.3352 45.3294 81.125 45.3218 80.8864ZM50.0982 81.0114L52.2004 77.6364H52.9732V82H52.3027V78.625L50.2118 82H49.4277V77.6364H50.0982V81.0114ZM57.0016 79.5114V80.1364H54.5925V79.5114H57.0016ZM54.7516 77.6364V82H54.0811V77.6364H54.7516ZM57.513 77.6364V82H56.8425V77.6364H57.513ZM60.3901 82.0909C59.9962 82.0909 59.6505 81.9972 59.3532 81.8097C59.0577 81.6222 58.8267 81.3598 58.66 81.0227C58.4952 80.6856 58.4128 80.2917 58.4128 79.8409C58.4128 79.3864 58.4952 78.9896 58.66 78.6506C58.8267 78.3116 59.0577 78.0483 59.3532 77.8608C59.6505 77.6733 59.9962 77.5795 60.3901 77.5795C60.7841 77.5795 61.1287 77.6733 61.4242 77.8608C61.7216 78.0483 61.9526 78.3116 62.1174 78.6506C62.2841 78.9896 62.3674 79.3864 62.3674 79.8409C62.3674 80.2917 62.2841 80.6856 62.1174 81.0227C61.9526 81.3598 61.7216 81.6222 61.4242 81.8097C61.1287 81.9972 60.7841 82.0909 60.3901 82.0909ZM60.3901 81.4886C60.6894 81.4886 60.9356 81.4119 61.1287 81.2585C61.3219 81.1051 61.4649 80.9034 61.5577 80.6534C61.6505 80.4034 61.6969 80.1326 61.6969 79.8409C61.6969 79.5492 61.6505 79.2775 61.5577 79.0256C61.4649 78.7737 61.3219 78.5701 61.1287 78.4148C60.9356 78.2595 60.6894 78.1818 60.3901 78.1818C60.0909 78.1818 59.8447 78.2595 59.6515 78.4148C59.4583 78.5701 59.3153 78.7737 59.2225 79.0256C59.1297 79.2775 59.0833 79.5492 59.0833 79.8409C59.0833 80.1326 59.1297 80.4034 59.2225 80.6534C59.3153 80.9034 59.4583 81.1051 59.6515 81.2585C59.8447 81.4119 60.0909 81.4886 60.3901 81.4886ZM63.2708 82V77.6364H65.0549C65.5246 77.6364 65.8977 77.7424 66.1742 77.9545C66.4507 78.1667 66.589 78.447 66.589 78.7955C66.589 79.0606 66.5104 79.2661 66.3532 79.4119C66.196 79.5559 65.9943 79.6534 65.7481 79.7045C65.9091 79.7273 66.0653 79.7841 66.2168 79.875C66.3703 79.9659 66.4972 80.0909 66.5975 80.25C66.6979 80.4072 66.7481 80.6004 66.7481 80.8295C66.7481 81.053 66.6913 81.2528 66.5776 81.429C66.464 81.6051 66.3011 81.7443 66.089 81.8466C65.8769 81.9489 65.6231 82 65.3276 82H63.2708ZM63.9072 81.3864H65.3276C65.5587 81.3864 65.7396 81.3314 65.8703 81.2216C66.0009 81.1117 66.0663 80.9621 66.0663 80.7727C66.0663 80.5473 66.0009 80.3703 65.8703 80.2415C65.7396 80.1108 65.5587 80.0455 65.3276 80.0455H63.9072V81.3864ZM63.9072 79.4659H65.0549C65.2348 79.4659 65.3892 79.4413 65.518 79.392C65.6468 79.3409 65.7453 79.2689 65.8134 79.1761C65.8835 79.0814 65.9186 78.9697 65.9186 78.8409C65.9186 78.6572 65.8418 78.5133 65.6884 78.4091C65.535 78.303 65.3239 78.25 65.0549 78.25H63.9072V79.4659ZM70.4435 81.0114L72.5457 77.6364H73.3185V82H72.648V78.625L70.5571 82H69.773V77.6364H70.4435V81.0114ZM28.0455 93.6364C27.9318 93.6364 27.8305 93.6269 27.7415 93.608C27.6525 93.5909 27.5909 93.5739 27.5568 93.5568L27.7273 92.9659C27.8902 93.0076 28.0341 93.0227 28.1591 93.0114C28.2841 93 28.3949 92.9441 28.4915 92.8438C28.59 92.7453 28.6799 92.5852 28.7614 92.3636L28.8864 92.0227L27.2727 87.6364H28L29.2045 91.1136H29.25L30.4545 87.6364H31.1818L29.3295 92.6364C29.2462 92.8617 29.143 93.0483 29.0199 93.196C28.8968 93.3456 28.7538 93.4564 28.5909 93.5284C28.4299 93.6004 28.2481 93.6364 28.0455 93.6364ZM33.5632 92.0909C33.1541 92.0909 32.8019 91.9943 32.5064 91.8011C32.211 91.608 31.9837 91.3419 31.8246 91.0028C31.6655 90.6638 31.586 90.2765 31.586 89.8409C31.586 89.3977 31.6674 89.0066 31.8303 88.6676C31.9951 88.3267 32.2242 88.0606 32.5178 87.8693C32.8132 87.6761 33.1579 87.5795 33.5519 87.5795C33.8587 87.5795 34.1352 87.6364 34.3814 87.75C34.6276 87.8636 34.8293 88.0227 34.9865 88.2273C35.1437 88.4318 35.2413 88.6705 35.2791 88.9432H34.6087C34.5576 88.7443 34.4439 88.5682 34.2678 88.4148C34.0935 88.2595 33.8587 88.1818 33.5632 88.1818C33.3019 88.1818 33.0727 88.25 32.8757 88.3864C32.6807 88.5208 32.5282 88.7112 32.4184 88.9574C32.3104 89.2017 32.2564 89.4886 32.2564 89.8182C32.2564 90.1553 32.3094 90.4489 32.4155 90.6989C32.5235 90.9489 32.675 91.143 32.8701 91.2812C33.067 91.4195 33.2981 91.4886 33.5632 91.4886C33.7375 91.4886 33.8956 91.4583 34.0377 91.3977C34.1797 91.3371 34.3 91.25 34.3985 91.1364C34.4969 91.0227 34.567 90.8864 34.6087 90.7273H35.2791C35.2413 90.9848 35.1475 91.2169 34.9979 91.4233C34.8502 91.6278 34.6541 91.7907 34.4098 91.9119C34.1674 92.0312 33.8852 92.0909 33.5632 92.0909ZM35.7955 88.2614V87.6364H39.341V88.2614H37.9091V92H37.2387V88.2614H35.7955ZM41.2565 92.1023C40.98 92.1023 40.729 92.0502 40.5036 91.946C40.2783 91.84 40.0993 91.6875 39.9667 91.4886C39.8341 91.2879 39.7678 91.0455 39.7678 90.7614C39.7678 90.5114 39.8171 90.3087 39.9156 90.1534C40.0141 89.9962 40.1457 89.8731 40.3105 89.7841C40.4752 89.6951 40.657 89.6288 40.8559 89.5852C41.0567 89.5398 41.2584 89.5038 41.461 89.4773C41.7262 89.4432 41.9411 89.4176 42.1059 89.4006C42.2726 89.3816 42.3938 89.3504 42.4695 89.3068C42.5472 89.2633 42.586 89.1875 42.586 89.0795V89.0568C42.586 88.7765 42.5093 88.5587 42.3559 88.4034C42.2044 88.2481 41.9743 88.1705 41.6656 88.1705C41.3455 88.1705 41.0945 88.2405 40.9127 88.3807C40.7309 88.5208 40.6031 88.6705 40.5292 88.8295L39.8928 88.6023C40.0065 88.3371 40.158 88.1307 40.3474 87.983C40.5387 87.8333 40.747 87.7292 40.9724 87.6705C41.1997 87.6098 41.4231 87.5795 41.6428 87.5795C41.783 87.5795 41.944 87.5966 42.1258 87.6307C42.3095 87.6629 42.4866 87.7301 42.657 87.8324C42.8294 87.9347 42.9724 88.089 43.086 88.2955C43.1997 88.5019 43.2565 88.7784 43.2565 89.125V92H42.586V91.4091H42.5519C42.5065 91.5038 42.4307 91.6051 42.3247 91.7131C42.2186 91.821 42.0775 91.9129 41.9014 91.9886C41.7252 92.0644 41.5103 92.1023 41.2565 92.1023ZM41.3587 91.5C41.6239 91.5 41.8474 91.4479 42.0292 91.3438C42.2129 91.2396 42.3512 91.1051 42.444 90.9403C42.5387 90.7756 42.586 90.6023 42.586 90.4205V89.8068C42.5576 89.8409 42.4951 89.8722 42.3985 89.9006C42.3038 89.9271 42.194 89.9508 42.069 89.9716C41.9459 89.9905 41.8256 90.0076 41.7082 90.0227C41.5927 90.036 41.4989 90.0473 41.4269 90.0568C41.2527 90.0795 41.0898 90.1165 40.9383 90.1676C40.7887 90.2169 40.6675 90.2917 40.5747 90.392C40.4837 90.4905 40.4383 90.625 40.4383 90.7955C40.4383 91.0284 40.5245 91.2045 40.6968 91.3239C40.8711 91.4413 41.0917 91.5 41.3587 91.5ZM47.2807 89.5114V90.1364H44.8716V89.5114H47.2807ZM45.0307 87.6364V92H44.3602V87.6364H45.0307ZM47.792 87.6364V92H47.1216V87.6364H47.792ZM50.6692 92.0909C50.2752 92.0909 49.9296 91.9972 49.6322 91.8097C49.3368 91.6222 49.1057 91.3598 48.9391 91.0227C48.7743 90.6856 48.6919 90.2917 48.6919 89.8409C48.6919 89.3864 48.7743 88.9896 48.9391 88.6506C49.1057 88.3116 49.3368 88.0483 49.6322 87.8608C49.9296 87.6733 50.2752 87.5795 50.6692 87.5795C51.0631 87.5795 51.4078 87.6733 51.7033 87.8608C52.0006 88.0483 52.2317 88.3116 52.3965 88.6506C52.5631 88.9896 52.6465 89.3864 52.6465 89.8409C52.6465 90.2917 52.5631 90.6856 52.3965 91.0227C52.2317 91.3598 52.0006 91.6222 51.7033 91.8097C51.4078 91.9972 51.0631 92.0909 50.6692 92.0909ZM50.6692 91.4886C50.9684 91.4886 51.2146 91.4119 51.4078 91.2585C51.601 91.1051 51.744 90.9034 51.8368 90.6534C51.9296 90.4034 51.976 90.1326 51.976 89.8409C51.976 89.5492 51.9296 89.2775 51.8368 89.0256C51.744 88.7737 51.601 88.5701 51.4078 88.4148C51.2146 88.2595 50.9684 88.1818 50.6692 88.1818C50.3699 88.1818 50.1237 88.2595 49.9305 88.4148C49.7374 88.5701 49.5944 88.7737 49.5016 89.0256C49.4088 89.2775 49.3624 89.5492 49.3624 89.8409C49.3624 90.1326 49.4088 90.4034 49.5016 90.6534C49.5944 90.9034 49.7374 91.1051 49.9305 91.2585C50.1237 91.4119 50.3699 91.4886 50.6692 91.4886ZM53.5499 92V87.6364H55.334C55.8037 87.6364 56.1768 87.7424 56.4533 87.9545C56.7298 88.1667 56.8681 88.447 56.8681 88.7955C56.8681 89.0606 56.7895 89.2661 56.6323 89.4119C56.4751 89.5559 56.2734 89.6534 56.0272 89.7045C56.1881 89.7273 56.3444 89.7841 56.4959 89.875C56.6493 89.9659 56.7762 90.0909 56.8766 90.25C56.977 90.4072 57.0272 90.6004 57.0272 90.8295C57.0272 91.053 56.9703 91.2528 56.8567 91.429C56.7431 91.6051 56.5802 91.7443 56.3681 91.8466C56.1559 91.9489 55.9022 92 55.6067 92H53.5499ZM54.1862 91.3864H55.6067C55.8378 91.3864 56.0186 91.3314 56.1493 91.2216C56.28 91.1117 56.3453 90.9621 56.3453 90.7727C56.3453 90.5473 56.28 90.3703 56.1493 90.2415C56.0186 90.1108 55.8378 90.0455 55.6067 90.0455H54.1862V91.3864ZM54.1862 89.4659H55.334C55.5139 89.4659 55.6683 89.4413 55.797 89.392C55.9258 89.3409 56.0243 89.2689 56.0925 89.1761C56.1626 89.0814 56.1976 88.9697 56.1976 88.8409C56.1976 88.6572 56.1209 88.5133 55.9675 88.4091C55.8141 88.303 55.6029 88.25 55.334 88.25H54.1862V89.4659ZM57.9221 92V87.6364H58.5925V89.5341H59.0357L60.6039 87.6364H61.4675L59.7062 89.7386L61.4903 92H60.6266L59.1948 90.1591H58.5925V92H57.9221ZM63.383 92.1023C63.1065 92.1023 62.8556 92.0502 62.6302 91.946C62.4048 91.84 62.2258 91.6875 62.0933 91.4886C61.9607 91.2879 61.8944 91.0455 61.8944 90.7614C61.8944 90.5114 61.9436 90.3087 62.0421 90.1534C62.1406 89.9962 62.2722 89.8731 62.437 89.7841C62.6018 89.6951 62.7836 89.6288 62.9825 89.5852C63.1832 89.5398 63.3849 89.5038 63.5876 89.4773C63.8527 89.4432 64.0677 89.4176 64.2325 89.4006C64.3991 89.3816 64.5204 89.3504 64.5961 89.3068C64.6738 89.2633 64.7126 89.1875 64.7126 89.0795V89.0568C64.7126 88.7765 64.6359 88.5587 64.4825 88.4034C64.331 88.2481 64.1008 88.1705 63.7921 88.1705C63.4721 88.1705 63.2211 88.2405 63.0393 88.3807C62.8575 88.5208 62.7296 88.6705 62.6558 88.8295L62.0194 88.6023C62.133 88.3371 62.2846 88.1307 62.4739 87.983C62.6652 87.8333 62.8736 87.7292 63.0989 87.6705C63.3262 87.6098 63.5497 87.5795 63.7694 87.5795C63.9096 87.5795 64.0705 87.5966 64.2524 87.6307C64.4361 87.6629 64.6132 87.7301 64.7836 87.8324C64.956 87.9347 65.0989 88.089 65.2126 88.2955C65.3262 88.5019 65.383 88.7784 65.383 89.125V92H64.7126V91.4091H64.6785C64.633 91.5038 64.5573 91.6051 64.4512 91.7131C64.3452 91.821 64.2041 91.9129 64.0279 91.9886C63.8518 92.0644 63.6368 92.1023 63.383 92.1023ZM63.4853 91.5C63.7505 91.5 63.9739 91.4479 64.1558 91.3438C64.3395 91.2396 64.4777 91.1051 64.5705 90.9403C64.6652 90.7756 64.7126 90.6023 64.7126 90.4205V89.8068C64.6842 89.8409 64.6217 89.8722 64.5251 89.9006C64.4304 89.9271 64.3205 89.9508 64.1955 89.9716C64.0724 89.9905 63.9522 90.0076 63.8347 90.0227C63.7192 90.036 63.6255 90.0473 63.5535 90.0568C63.3793 90.0795 63.2164 90.1165 63.0649 90.1676C62.9152 90.2169 62.794 90.2917 62.7012 90.392C62.6103 90.4905 62.5649 90.625 62.5649 90.7955C62.5649 91.0284 62.651 91.2045 62.8234 91.3239C62.9976 91.4413 63.2183 91.5 63.4853 91.5ZM73.0599 86.1818V92H72.3554V86.8068H69.4236V92H68.719V86.1818H73.0599ZM79.2702 89.0909C79.2702 89.7045 79.1594 90.2348 78.9378 90.6818C78.7162 91.1288 78.4122 91.4735 78.0259 91.7159C77.6395 91.9583 77.1982 92.0795 76.702 92.0795C76.2058 92.0795 75.7645 91.9583 75.3782 91.7159C74.9918 91.4735 74.6878 91.1288 74.4662 90.6818C74.2446 90.2348 74.1338 89.7045 74.1338 89.0909C74.1338 88.4773 74.2446 87.947 74.4662 87.5C74.6878 87.053 74.9918 86.7083 75.3782 86.4659C75.7645 86.2235 76.2058 86.1023 76.702 86.1023C77.1982 86.1023 77.6395 86.2235 78.0259 86.4659C78.4122 86.7083 78.7162 87.053 78.9378 87.5C79.1594 87.947 79.2702 88.4773 79.2702 89.0909ZM78.5884 89.0909C78.5884 88.5871 78.5041 88.1619 78.3355 87.8153C78.1689 87.4688 77.9425 87.2064 77.6566 87.0284C77.3725 86.8504 77.0543 86.7614 76.702 86.7614C76.3497 86.7614 76.0306 86.8504 75.7446 87.0284C75.4605 87.2064 75.2342 87.4688 75.0657 87.8153C74.899 88.1619 74.8157 88.5871 74.8157 89.0909C74.8157 89.5947 74.899 90.0199 75.0657 90.3665C75.2342 90.7131 75.4605 90.9754 75.7446 91.1534C76.0306 91.3314 76.3497 91.4205 76.702 91.4205C77.0543 91.4205 77.3725 91.3314 77.6566 91.1534C77.9425 90.9754 78.1689 90.7131 78.3355 90.3665C78.5041 90.0199 78.5884 89.5947 78.5884 89.0909ZM27.1477 103.25V101.375H27.5114C27.6004 101.282 27.6771 101.182 27.7415 101.074C27.8059 100.966 27.8617 100.838 27.9091 100.69C27.9583 100.541 28 100.359 28.0341 100.145C28.0682 99.929 28.0985 99.6686 28.125 99.3636L28.2727 97.6364H31.0455V101.375H31.7159V103.25H31.0455V102H27.8182V103.25H27.1477ZM28.2727 101.375H30.375V98.2614H28.8977L28.7841 99.3636C28.7367 99.8201 28.678 100.219 28.608 100.56C28.5379 100.901 28.4261 101.172 28.2727 101.375ZM32.0995 102V101.375H32.2586C32.3892 101.375 32.4981 101.349 32.5853 101.298C32.6724 101.245 32.7425 101.153 32.7955 101.023C32.8504 100.89 32.8921 100.706 32.9205 100.472C32.9508 100.235 32.9726 99.9337 32.9858 99.5682L33.0654 97.6364H35.9745V102H35.304V98.2614H33.7017L33.6336 99.8182C33.6184 100.176 33.5862 100.491 33.537 100.764C33.4896 101.035 33.4167 101.262 33.3182 101.446C33.2216 101.63 33.0928 101.768 32.9318 101.861C32.7709 101.954 32.5692 102 32.3267 102H32.0995ZM39.7096 102V98.25H38.5505C38.2891 98.25 38.0836 98.3106 37.934 98.4318C37.7844 98.553 37.7096 98.7197 37.7096 98.9318C37.7096 99.1402 37.7768 99.304 37.9113 99.4233C38.0476 99.5426 38.2342 99.6023 38.4709 99.6023H39.88V100.227H38.4709C38.1755 100.227 37.9207 100.175 37.7067 100.071C37.4927 99.9669 37.3279 99.8182 37.2124 99.625C37.0969 99.4299 37.0391 99.1989 37.0391 98.9318C37.0391 98.6629 37.0997 98.4318 37.2209 98.2386C37.3421 98.0455 37.5154 97.8968 37.7408 97.7926C37.9681 97.6884 38.238 97.6364 38.5505 97.6364H40.3459V102H39.7096ZM36.8005 102L38.0391 99.8295H38.7664L37.5278 102H36.8005ZM43.5868 102V97.6364H45.3709C45.8405 97.6364 46.2137 97.7424 46.4902 97.9545C46.7667 98.1667 46.9049 98.447 46.9049 98.7955C46.9049 99.0606 46.8263 99.2661 46.6691 99.4119C46.512 99.5559 46.3102 99.6534 46.064 99.7045C46.225 99.7273 46.3813 99.7841 46.5328 99.875C46.6862 99.9659 46.8131 100.091 46.9135 100.25C47.0138 100.407 47.064 100.6 47.064 100.83C47.064 101.053 47.0072 101.253 46.8936 101.429C46.7799 101.605 46.6171 101.744 46.4049 101.847C46.1928 101.949 45.939 102 45.6436 102H43.5868ZM44.2231 101.386H45.6436C45.8746 101.386 46.0555 101.331 46.1862 101.222C46.3169 101.112 46.3822 100.962 46.3822 100.773C46.3822 100.547 46.3169 100.37 46.1862 100.241C46.0555 100.111 45.8746 100.045 45.6436 100.045H44.2231V101.386ZM44.2231 99.4659H45.3709C45.5508 99.4659 45.7051 99.4413 45.8339 99.392C45.9627 99.3409 46.0612 99.2689 46.1294 99.1761C46.1995 99.0814 46.2345 98.9697 46.2345 98.8409C46.2345 98.6572 46.1578 98.5133 46.0044 98.4091C45.851 98.303 45.6398 98.25 45.3709 98.25H44.2231V99.4659ZM49.243 102.102C48.9665 102.102 48.7156 102.05 48.4902 101.946C48.2648 101.84 48.0858 101.688 47.9533 101.489C47.8207 101.288 47.7544 101.045 47.7544 100.761C47.7544 100.511 47.8036 100.309 47.9021 100.153C48.0006 99.9962 48.1322 99.8731 48.297 99.7841C48.4618 99.6951 48.6436 99.6288 48.8425 99.5852C49.0432 99.5398 49.2449 99.5038 49.4476 99.4773C49.7127 99.4432 49.9277 99.4176 50.0925 99.4006C50.2591 99.3816 50.3804 99.3504 50.4561 99.3068C50.5338 99.2633 50.5726 99.1875 50.5726 99.0795V99.0568C50.5726 98.7765 50.4959 98.5587 50.3425 98.4034C50.191 98.2481 49.9608 98.1705 49.6521 98.1705C49.3321 98.1705 49.0811 98.2405 48.8993 98.3807C48.7175 98.5208 48.5896 98.6705 48.5158 98.8295L47.8794 98.6023C47.993 98.3371 48.1446 98.1307 48.334 97.983C48.5252 97.8333 48.7336 97.7292 48.959 97.6705C49.1862 97.6098 49.4097 97.5795 49.6294 97.5795C49.7696 97.5795 49.9305 97.5966 50.1124 97.6307C50.2961 97.6629 50.4732 97.7301 50.6436 97.8324C50.816 97.9347 50.959 98.089 51.0726 98.2955C51.1862 98.5019 51.243 98.7784 51.243 99.125V102H50.5726V101.409H50.5385C50.493 101.504 50.4173 101.605 50.3112 101.713C50.2052 101.821 50.0641 101.913 49.8879 101.989C49.7118 102.064 49.4968 102.102 49.243 102.102ZM49.3453 101.5C49.6105 101.5 49.834 101.448 50.0158 101.344C50.1995 101.24 50.3377 101.105 50.4305 100.94C50.5252 100.776 50.5726 100.602 50.5726 100.42V99.8068C50.5442 99.8409 50.4817 99.8722 50.3851 99.9006C50.2904 99.9271 50.1805 99.9508 50.0555 99.9716C49.9324 99.9905 49.8122 100.008 49.6947 100.023C49.5792 100.036 49.4855 100.047 49.4135 100.057C49.2393 100.08 49.0764 100.116 48.9249 100.168C48.7752 100.217 48.654 100.292 48.5612 100.392C48.4703 100.491 48.4249 100.625 48.4249 100.795C48.4249 101.028 48.511 101.205 48.6834 101.324C48.8576 101.441 49.0783 101.5 49.3453 101.5ZM52.3468 97.6364H53.0172V101.375H54.6649V97.6364H55.3354V101.375H56.9831V97.6364H57.6536V102H52.3468V97.6364ZM60.5876 102.091C60.1671 102.091 59.8044 101.998 59.4995 101.812C59.1965 101.625 58.9626 101.364 58.7978 101.028C58.6349 100.691 58.5535 100.299 58.5535 99.8523C58.5535 99.4053 58.6349 99.0114 58.7978 98.6705C58.9626 98.3277 59.1917 98.0606 59.4853 97.8693C59.7807 97.6761 60.1254 97.5795 60.5194 97.5795C60.7466 97.5795 60.9711 97.6174 61.1927 97.6932C61.4143 97.7689 61.616 97.892 61.7978 98.0625C61.9796 98.2311 62.1245 98.4545 62.2324 98.733C62.3404 99.0114 62.3944 99.3542 62.3944 99.7614V100.045H59.0307V99.4659H61.7126C61.7126 99.2197 61.6633 99 61.5648 98.8068C61.4682 98.6136 61.33 98.4612 61.1501 98.3494C60.972 98.2377 60.7618 98.1818 60.5194 98.1818C60.2523 98.1818 60.0213 98.2481 59.8262 98.3807C59.633 98.5114 59.4843 98.6818 59.3802 98.892C59.276 99.1023 59.2239 99.3277 59.2239 99.5682V99.9545C59.2239 100.284 59.2807 100.563 59.3944 100.793C59.5099 101.02 59.6699 101.193 59.8745 101.312C60.079 101.43 60.3167 101.489 60.5876 101.489C60.7637 101.489 60.9228 101.464 61.0648 101.415C61.2088 101.364 61.3328 101.288 61.437 101.188C61.5412 101.085 61.6216 100.958 61.6785 100.807L62.3262 100.989C62.258 101.208 62.1434 101.402 61.9824 101.568C61.8215 101.733 61.6226 101.862 61.3859 101.955C61.1491 102.045 60.883 102.091 60.5876 102.091ZM65.9874 97.6364V98.2614H63.9647V102H63.2943V97.6364H65.9874ZM68.3923 102.091C67.9984 102.091 67.6527 101.997 67.3554 101.81C67.0599 101.622 66.8289 101.36 66.6622 101.023C66.4974 100.686 66.415 100.292 66.415 99.8409C66.415 99.3864 66.4974 98.9896 66.6622 98.6506C66.8289 98.3116 67.0599 98.0483 67.3554 97.8608C67.6527 97.6733 67.9984 97.5795 68.3923 97.5795C68.7862 97.5795 69.1309 97.6733 69.4264 97.8608C69.7237 98.0483 69.9548 98.3116 70.1196 98.6506C70.2862 98.9896 70.3696 99.3864 70.3696 99.8409C70.3696 100.292 70.2862 100.686 70.1196 101.023C69.9548 101.36 69.7237 101.622 69.4264 101.81C69.1309 101.997 68.7862 102.091 68.3923 102.091ZM68.3923 101.489C68.6915 101.489 68.9378 101.412 69.1309 101.259C69.3241 101.105 69.4671 100.903 69.5599 100.653C69.6527 100.403 69.6991 100.133 69.6991 99.8409C69.6991 99.5492 69.6527 99.2775 69.5599 99.0256C69.4671 98.7737 69.3241 98.5701 69.1309 98.4148C68.9378 98.2595 68.6915 98.1818 68.3923 98.1818C68.0931 98.1818 67.8468 98.2595 67.6537 98.4148C67.4605 98.5701 67.3175 98.7737 67.2247 99.0256C67.1319 99.2775 67.0855 99.5492 67.0855 99.8409C67.0855 100.133 67.1319 100.403 67.2247 100.653C67.3175 100.903 67.4605 101.105 67.6537 101.259C67.8468 101.412 68.0931 101.489 68.3923 101.489ZM30.8523 106L31.1932 106.409C31.0606 106.538 30.9072 106.628 30.733 106.679C30.5587 106.73 30.3617 106.761 30.142 106.773C29.9223 106.784 29.678 106.795 29.4091 106.807C29.1061 106.818 28.8551 106.892 28.6562 107.028C28.4574 107.165 28.304 107.362 28.196 107.619C28.0881 107.877 28.0189 108.193 27.9886 108.568H28.0455C28.1932 108.295 28.3977 108.095 28.6591 107.966C28.9205 107.837 29.2008 107.773 29.5 107.773C29.8409 107.773 30.1477 107.852 30.4205 108.011C30.6932 108.17 30.9091 108.406 31.0682 108.719C31.2273 109.031 31.3068 109.417 31.3068 109.875C31.3068 110.331 31.2254 110.725 31.0625 111.057C30.9015 111.388 30.6752 111.644 30.3835 111.824C30.0938 112.002 29.7538 112.091 29.3636 112.091C28.9735 112.091 28.6316 111.999 28.3381 111.815C28.0445 111.63 27.8163 111.355 27.6534 110.991C27.4905 110.626 27.4091 110.174 27.4091 109.636V109.17C27.4091 108.199 27.5739 107.462 27.9034 106.96C28.2348 106.458 28.733 106.199 29.3977 106.182C29.6326 106.174 29.8419 106.172 30.0256 106.176C30.2093 106.18 30.3693 106.171 30.5057 106.151C30.642 106.13 30.7576 106.08 30.8523 106ZM29.3636 111.489C29.6269 111.489 29.8532 111.422 30.0426 111.29C30.2339 111.157 30.3807 110.971 30.483 110.73C30.5852 110.488 30.6364 110.203 30.6364 109.875C30.6364 109.557 30.5843 109.286 30.4801 109.062C30.3778 108.839 30.2311 108.669 30.0398 108.551C29.8485 108.434 29.6193 108.375 29.3523 108.375C29.1572 108.375 28.982 108.408 28.8267 108.474C28.6714 108.541 28.5388 108.638 28.429 108.767C28.3191 108.896 28.2339 109.053 28.1733 109.239C28.1146 109.424 28.0833 109.636 28.0795 109.875C28.0795 110.364 28.1941 110.755 28.4233 111.048C28.6525 111.342 28.9659 111.489 29.3636 111.489ZM32.8828 111.011L34.9851 107.636H35.7578V112H35.0874V108.625L32.9965 112H32.2124V107.636H32.8828V111.011ZM36.5931 110.886H37.309C37.3242 111.083 37.4132 111.233 37.5761 111.335C37.7408 111.438 37.9548 111.489 38.2181 111.489C38.487 111.489 38.7171 111.434 38.9084 111.324C39.0997 111.212 39.1954 111.032 39.1954 110.784C39.1954 110.638 39.1594 110.511 39.0874 110.403C39.0154 110.294 38.9141 110.208 38.7834 110.148C38.6528 110.087 38.4984 110.057 38.3204 110.057H37.5704V109.455H38.3204C38.5874 109.455 38.7844 109.394 38.9113 109.273C39.0401 109.152 39.1045 109 39.1045 108.818C39.1045 108.623 39.0353 108.467 38.8971 108.349C38.7588 108.23 38.5628 108.17 38.309 108.17C38.0533 108.17 37.8403 108.228 37.6698 108.344C37.4993 108.457 37.4094 108.604 37.3999 108.784H36.6954C36.7029 108.549 36.7749 108.342 36.9113 108.162C37.0476 107.98 37.2332 107.838 37.4681 107.736C37.7029 107.632 37.9719 107.58 38.2749 107.58C38.5817 107.58 38.8478 107.634 39.0732 107.741C39.3005 107.848 39.4757 107.992 39.5988 108.176C39.7238 108.358 39.7863 108.564 39.7863 108.795C39.7863 109.042 39.7171 109.241 39.5789 109.392C39.4406 109.544 39.2673 109.652 39.059 109.716V109.761C39.2238 109.773 39.3668 109.826 39.488 109.92C39.6111 110.013 39.7067 110.135 39.7749 110.287C39.8431 110.437 39.8772 110.602 39.8772 110.784C39.8772 111.049 39.8062 111.28 39.6641 111.477C39.5221 111.672 39.327 111.824 39.0789 111.932C38.8308 112.038 38.5476 112.091 38.2295 112.091C37.9207 112.091 37.6442 112.041 37.3999 111.94C37.1556 111.838 36.9615 111.697 36.8175 111.517C36.6755 111.335 36.6007 111.125 36.5931 110.886ZM43.6194 109.511V110.136H41.2103V109.511H43.6194ZM41.3694 107.636V112H40.6989V107.636H41.3694ZM44.1308 107.636V112H43.4603V107.636H44.1308ZM47.0647 112.091C46.6443 112.091 46.2816 111.998 45.9767 111.812C45.6736 111.625 45.4397 111.364 45.275 111.028C45.1121 110.691 45.0307 110.299 45.0307 109.852C45.0307 109.405 45.1121 109.011 45.275 108.67C45.4397 108.328 45.6689 108.061 45.9625 107.869C46.2579 107.676 46.6026 107.58 46.9966 107.58C47.2238 107.58 47.4483 107.617 47.6699 107.693C47.8914 107.769 48.0932 107.892 48.275 108.062C48.4568 108.231 48.6017 108.455 48.7096 108.733C48.8176 109.011 48.8716 109.354 48.8716 109.761V110.045H45.5079V109.466H48.1897C48.1897 109.22 48.1405 109 48.042 108.807C47.9454 108.614 47.8072 108.461 47.6272 108.349C47.4492 108.238 47.239 108.182 46.9966 108.182C46.7295 108.182 46.4985 108.248 46.3034 108.381C46.1102 108.511 45.9615 108.682 45.8574 108.892C45.7532 109.102 45.7011 109.328 45.7011 109.568V109.955C45.7011 110.284 45.7579 110.563 45.8716 110.793C45.9871 111.02 46.1471 111.193 46.3517 111.312C46.5562 111.43 46.7939 111.489 47.0647 111.489C47.2409 111.489 47.4 111.464 47.542 111.415C47.686 111.364 47.81 111.288 47.9142 111.188C48.0183 111.085 48.0988 110.958 48.1557 110.807L48.8034 110.989C48.7352 111.208 48.6206 111.402 48.4596 111.568C48.2986 111.733 48.0998 111.862 47.863 111.955C47.6263 112.045 47.3602 112.091 47.0647 112.091ZM51.5442 112.091C51.1351 112.091 50.7828 111.994 50.4874 111.801C50.1919 111.608 49.9646 111.342 49.8055 111.003C49.6465 110.664 49.5669 110.277 49.5669 109.841C49.5669 109.398 49.6483 109.007 49.8112 108.668C49.976 108.327 50.2052 108.061 50.4987 107.869C50.7942 107.676 51.1389 107.58 51.5328 107.58C51.8396 107.58 52.1161 107.636 52.3624 107.75C52.6086 107.864 52.8103 108.023 52.9675 108.227C53.1247 108.432 53.2222 108.67 53.2601 108.943H52.5896C52.5385 108.744 52.4249 108.568 52.2487 108.415C52.0745 108.259 51.8396 108.182 51.5442 108.182C51.2828 108.182 51.0536 108.25 50.8567 108.386C50.6616 108.521 50.5091 108.711 50.3993 108.957C50.2913 109.202 50.2374 109.489 50.2374 109.818C50.2374 110.155 50.2904 110.449 50.3965 110.699C50.5044 110.949 50.6559 111.143 50.851 111.281C51.048 111.42 51.279 111.489 51.5442 111.489C51.7184 111.489 51.8766 111.458 52.0186 111.398C52.1607 111.337 52.2809 111.25 52.3794 111.136C52.4779 111.023 52.548 110.886 52.5896 110.727H53.2601C53.2222 110.985 53.1285 111.217 52.9788 111.423C52.8311 111.628 52.6351 111.791 52.3908 111.912C52.1483 112.031 51.8661 112.091 51.5442 112.091ZM55.4043 112.102C55.1278 112.102 54.8768 112.05 54.6514 111.946C54.4261 111.84 54.2471 111.688 54.1145 111.489C53.9819 111.288 53.9157 111.045 53.9157 110.761C53.9157 110.511 53.9649 110.309 54.0634 110.153C54.1619 109.996 54.2935 109.873 54.4583 109.784C54.623 109.695 54.8049 109.629 55.0037 109.585C55.2045 109.54 55.4062 109.504 55.6088 109.477C55.874 109.443 56.0889 109.418 56.2537 109.401C56.4204 109.382 56.5416 109.35 56.6174 109.307C56.695 109.263 56.7338 109.187 56.7338 109.08V109.057C56.7338 108.777 56.6571 108.559 56.5037 108.403C56.3522 108.248 56.1221 108.17 55.8134 108.17C55.4933 108.17 55.2424 108.241 55.0605 108.381C54.8787 108.521 54.7509 108.67 54.677 108.83L54.0407 108.602C54.1543 108.337 54.3058 108.131 54.4952 107.983C54.6865 107.833 54.8948 107.729 55.1202 107.67C55.3475 107.61 55.571 107.58 55.7907 107.58C55.9308 107.58 56.0918 107.597 56.2736 107.631C56.4573 107.663 56.6344 107.73 56.8049 107.832C56.9772 107.935 57.1202 108.089 57.2338 108.295C57.3475 108.502 57.4043 108.778 57.4043 109.125V112H56.7338V111.409H56.6997C56.6543 111.504 56.5785 111.605 56.4725 111.713C56.3664 111.821 56.2253 111.913 56.0492 111.989C55.873 112.064 55.6581 112.102 55.4043 112.102ZM55.5066 111.5C55.7717 111.5 55.9952 111.448 56.177 111.344C56.3607 111.24 56.499 111.105 56.5918 110.94C56.6865 110.776 56.7338 110.602 56.7338 110.42V109.807C56.7054 109.841 56.6429 109.872 56.5463 109.901C56.4516 109.927 56.3418 109.951 56.2168 109.972C56.0937 109.991 55.9734 110.008 55.856 110.023C55.7405 110.036 55.6467 110.047 55.5747 110.057C55.4005 110.08 55.2376 110.116 55.0861 110.168C54.9365 110.217 54.8153 110.292 54.7225 110.392C54.6316 110.491 54.5861 110.625 54.5861 110.795C54.5861 111.028 54.6723 111.205 54.8446 111.324C55.0189 111.441 55.2395 111.5 55.5066 111.5Z" fill="black"/>
<g clip-path="url(#clip0_4_24)">
<path d="M172.667 56.3333H116.333V52H172.667V56.3333ZM116.377 62.4087C116.475 61.9177 116.74 61.4758 117.127 61.1583C117.514 60.8407 117.999 60.667 118.5 60.6667H170.5C171.001 60.667 171.486 60.8407 171.873 61.1583C172.26 61.4758 172.525 61.9177 172.623 62.4087L176.957 84.0753C177.019 84.3896 177.012 84.7138 176.934 85.0247C176.857 85.3356 176.711 85.6254 176.508 85.8732C176.305 86.1211 176.049 86.3208 175.76 86.458C175.47 86.5952 175.154 86.6665 174.833 86.6667H114.167C113.846 86.6665 113.53 86.5952 113.24 86.458C112.951 86.3208 112.695 86.1211 112.492 85.8732C112.289 85.6254 112.143 85.3356 112.066 85.0247C111.988 84.7138 111.981 84.3896 112.043 84.0753L116.377 62.4087ZM116.333 91V112.667H112V117H177V112.667H172.667V91H164V99.6667H125V91H116.333Z" fill="#353744"/>
<path d="M129.333 91H159.667V95.3333H129.333V91Z" fill="#353744"/>
</g>
<defs>
<filter id="filter0_d_4_24" x="3" y="4" width="194" height="137" filterUnits="userSpaceOnUse" color-interpolation-filters="sRGB">
<feFlood flood-opacity="0" result="BackgroundImageFix"/>
<feColorMatrix in="SourceAlpha" type="matrix" values="0 0 0 0 0 0 0 0 0 0 0 0 0 0 0 0 0 0 127 0" result="hardAlpha"/>
<feMorphology radius="2" operator="dilate" in="SourceAlpha" result="effect1_dropShadow_4_24"/>
<feOffset/>
<feGaussianBlur stdDeviation="5"/>
<feComposite in2="hardAlpha" operator="out"/>
<feColorMatrix type="matrix" values="0 0 0 0 0 0 0 0 0 0 0 0 0 0 0 0 0 0 0.35 0"/>
<feBlend mode="normal" in2="BackgroundImageFix" result="effect1_dropShadow_4_24"/>
<feBlend mode="normal" in="SourceGraphic" in2="effect1_dropShadow_4_24" result="shape"/>
</filter>
<clipPath id="clip0_4_24">
<rect width="65" height="65" fill="white" transform="translate(112 52)"/>
</clipPath>
</defs>
</svg>
