<svg width="67" height="67" viewBox="0 0 67 67" fill="none" xmlns="http://www.w3.org/2000/svg">
<g filter="url(#filter0_d_6_53)">
<path d="M37.661 43.9486V36.8333C37.661 36.2587 37.4327 35.7076 37.0264 35.3012C36.6201 34.8949 36.069 34.6666 35.4943 34.6666H31.161C30.5864 34.6666 30.0353 34.8949 29.6289 35.3012C29.2226 35.7076 28.9943 36.2587 28.9943 36.8333V43.9443C25.7013 44.7865 22.7295 46.5806 20.4505 49.1024C18.1715 51.6242 16.6863 54.7618 16.1807 58.123C16.1312 58.4363 16.1502 58.7566 16.2364 59.0618C16.3225 59.3671 16.4737 59.6501 16.6795 59.8913C16.8854 60.1326 17.1411 60.3265 17.429 60.4596C17.7169 60.5926 18.0302 60.6618 18.3473 60.6623H48.3427C48.6598 60.6618 48.9731 60.5926 49.261 60.4596C49.5489 60.3265 49.8046 60.1326 50.0105 59.8913C50.2163 59.6501 50.3675 59.3671 50.4536 59.0618C50.5398 58.7566 50.5588 58.4363 50.5093 58.123C50.0004 54.7581 48.5097 51.6183 46.2242 49.0969C43.9386 46.5755 40.9598 44.7846 37.661 43.9486V43.9486ZM57.7633 27.209L46.93 5.54231C46.7517 5.18045 46.4759 4.87555 46.1337 4.66195C45.7915 4.44835 45.3964 4.33453 44.993 4.33331H21.6623C21.261 4.33413 20.8678 4.44638 20.5266 4.65756C20.1853 4.86873 19.9094 5.17053 19.7297 5.52931L8.89633 27.196C8.73129 27.5253 8.65294 27.8913 8.6687 28.2594C8.68446 28.6274 8.79379 28.9854 8.98638 29.2994C9.17896 29.6134 9.44843 29.8732 9.76933 30.0541C10.0902 30.235 10.452 30.3311 10.8203 30.3333H46.3277V36.8333C46.3277 37.4079 46.5559 37.9591 46.9623 38.3654C47.3686 38.7717 47.9197 39 48.4943 39C49.069 39 49.6201 38.7717 50.0264 38.3654C50.4327 37.9591 50.661 37.4079 50.661 36.8333V30.3333H55.835C56.202 30.3307 56.5623 30.235 56.8821 30.0551C57.2019 29.8752 57.4709 29.617 57.6636 29.3047C57.8563 28.9924 57.9666 28.6363 57.984 28.2697C58.0015 27.9031 57.9255 27.5382 57.7633 27.209Z" fill="#353744"/>
</g>
<defs>
<filter id="filter0_d_6_53" x="8.66672" y="4.33331" width="49.3198" height="58.329" filterUnits="userSpaceOnUse" color-interpolation-filters="sRGB">
<feFlood flood-opacity="0" result="BackgroundImageFix"/>
<feColorMatrix in="SourceAlpha" type="matrix" values="0 0 0 0 0 0 0 0 0 0 0 0 0 0 0 0 0 0 127 0" result="hardAlpha"/>
<feOffset dy="2"/>
<feComposite in2="hardAlpha" operator="out"/>
<feColorMatrix type="matrix" values="0 0 0 0 0.921569 0 0 0 0 0.34902 0 0 0 0 0.32549 0 0 0 0.75 0"/>
<feBlend mode="normal" in2="BackgroundImageFix" result="effect1_dropShadow_6_53"/>
<feBlend mode="normal" in="SourceGraphic" in2="effect1_dropShadow_6_53" result="shape"/>
</filter>
</defs>
</svg>
