<svg width="67" height="67" viewBox="0 0 67 67" fill="none" xmlns="http://www.w3.org/2000/svg">
<g clip-path="url(#clip0_6_47)">
<g filter="url(#filter0_d_6_47)">
<path d="M61.8284 12.8766C61.5101 12.6928 61.1491 12.5961 60.7816 12.5961C60.414 12.5961 60.053 12.6928 59.7347 12.8766L41.875 21.7331V14.6562C41.8739 14.2993 41.7816 13.9486 41.6069 13.6374C41.4321 13.3262 41.1807 13.0649 40.8765 12.8782C40.5723 12.6915 40.2255 12.5856 39.8689 12.5707C39.5123 12.5557 39.1578 12.6322 38.8391 12.7928L20.9375 21.7331V6.28125C20.9375 5.72595 20.7169 5.1934 20.3243 4.80075C19.9316 4.40809 19.399 4.1875 18.8438 4.1875H6.28125C5.72595 4.1875 5.1934 4.40809 4.80075 4.80075C4.40809 5.1934 4.1875 5.72595 4.1875 6.28125V58.625H62.8125V14.6562C62.8132 14.3004 62.7232 13.9503 62.5511 13.6389C62.3789 13.3275 62.1302 13.0651 61.8284 12.8766V12.8766ZM46.0625 54.4375H37.6875V39.7812H46.0625V54.4375ZM58.625 54.4375H50.25V37.6875C50.25 37.1322 50.0294 36.5996 49.6368 36.207C49.2441 35.8143 48.7115 35.5938 48.1562 35.5938H35.5938C35.0385 35.5938 34.5059 35.8143 34.1132 36.207C33.7206 36.5996 33.5 37.1322 33.5 37.6875V54.4375H8.375V8.375H16.75V28.5169L37.6875 18.0481V28.5169L58.625 18.0481V54.4375Z" fill="#353744"/>
</g>
</g>
<defs>
<filter id="filter0_d_6_47" x="4.1875" y="4.1875" width="60.625" height="56.4375" filterUnits="userSpaceOnUse" color-interpolation-filters="sRGB">
<feFlood flood-opacity="0" result="BackgroundImageFix"/>
<feColorMatrix in="SourceAlpha" type="matrix" values="0 0 0 0 0 0 0 0 0 0 0 0 0 0 0 0 0 0 127 0" result="hardAlpha"/>
<feOffset dx="2" dy="2"/>
<feComposite in2="hardAlpha" operator="out"/>
<feColorMatrix type="matrix" values="0 0 0 0 0.921569 0 0 0 0 0.34902 0 0 0 0 0.32549 0 0 0 0.75 0"/>
<feBlend mode="normal" in2="BackgroundImageFix" result="effect1_dropShadow_6_47"/>
<feBlend mode="normal" in="SourceGraphic" in2="effect1_dropShadow_6_47" result="shape"/>
</filter>
<clipPath id="clip0_6_47">
<rect width="67" height="67" fill="white"/>
</clipPath>
</defs>
</svg>
