<svg width="67" height="67" viewBox="0 0 67 67" fill="none" xmlns="http://www.w3.org/2000/svg">
<g filter="url(#filter0_d_6_62)">
<path d="M27.0833 8.125L21.6667 13.5417V18.9583H13.5417C10.4271 18.9583 8.45 21.6667 8.125 24.375L5.41667 51.4583C5.09167 54.1667 6.87917 56.875 10.8333 56.875H54.1667C58.1208 56.875 59.9083 54.1667 59.5833 51.4583L56.875 24.375C56.55 21.6667 54.3292 18.9583 51.4583 18.9583H43.3333V13.5417L37.9167 8.125H27.0833ZM27.0833 13.5417H37.9167V18.9583H27.0833V13.5417ZM29.7917 27.0833H35.2083V35.2083H43.3333V40.625H35.2083V48.75H29.7917V40.625H21.6667V35.2083H29.7917V27.0833Z" fill="#353744"/>
</g>
<defs>
<filter id="filter0_d_6_62" x="5.37919" y="8.125" width="56.2416" height="50.75" filterUnits="userSpaceOnUse" color-interpolation-filters="sRGB">
<feFlood flood-opacity="0" result="BackgroundImageFix"/>
<feColorMatrix in="SourceAlpha" type="matrix" values="0 0 0 0 0 0 0 0 0 0 0 0 0 0 0 0 0 0 127 0" result="hardAlpha"/>
<feOffset dx="2" dy="2"/>
<feComposite in2="hardAlpha" operator="out"/>
<feColorMatrix type="matrix" values="0 0 0 0 0.921569 0 0 0 0 0.34902 0 0 0 0 0.32549 0 0 0 0.75 0"/>
<feBlend mode="normal" in2="BackgroundImageFix" result="effect1_dropShadow_6_62"/>
<feBlend mode="normal" in="SourceGraphic" in2="effect1_dropShadow_6_62" result="shape"/>
</filter>
</defs>
</svg>
