<svg width="67" height="67" viewBox="0 0 67 67" fill="none" xmlns="http://www.w3.org/2000/svg">
<g filter="url(#filter0_d_6_50)">
<path d="M51.1042 24.0209V51.1042M15.8958 51.1042V60.5834H51.1042V51.1042M15.8958 51.1042H6.41666V24.0209C6.41666 19.9584 9.125 15.2188 13.1875 11.8334C17.25 8.44794 25.375 6.41669 25.375 6.41669H41.625C41.625 6.41669 49.75 8.44794 53.8125 11.8334C57.875 15.2188 60.5833 19.9584 60.5833 24.0209V51.1042H51.1042M15.8958 51.1042V24.0209" stroke="#353744" stroke-width="5.41667" stroke-linecap="round" stroke-linejoin="round" shape-rendering="crispEdges"/>
</g>
<g filter="url(#filter1_d_6_50)">
<path d="M41.625 6.41669C41.625 8.57157 40.769 10.6382 39.2452 12.1619C37.7215 13.6857 35.6549 14.5417 33.5 14.5417C31.3451 14.5417 29.2785 13.6857 27.7548 12.1619C26.231 10.6382 25.375 8.57157 25.375 6.41669" stroke="#353744" stroke-width="5.41667" stroke-linecap="round" stroke-linejoin="round" shape-rendering="crispEdges"/>
</g>
<defs>
<filter id="filter0_d_6_50" x="3.70833" y="3.70837" width="59.5833" height="61.5833" filterUnits="userSpaceOnUse" color-interpolation-filters="sRGB">
<feFlood flood-opacity="0" result="BackgroundImageFix"/>
<feColorMatrix in="SourceAlpha" type="matrix" values="0 0 0 0 0 0 0 0 0 0 0 0 0 0 0 0 0 0 127 0" result="hardAlpha"/>
<feOffset dy="2"/>
<feComposite in2="hardAlpha" operator="out"/>
<feColorMatrix type="matrix" values="0 0 0 0 0.921569 0 0 0 0 0.34902 0 0 0 0 0.32549 0 0 0 0.75 0"/>
<feBlend mode="normal" in2="BackgroundImageFix" result="effect1_dropShadow_6_50"/>
<feBlend mode="normal" in="SourceGraphic" in2="effect1_dropShadow_6_50" result="shape"/>
</filter>
<filter id="filter1_d_6_50" x="22.6667" y="3.70837" width="21.6667" height="15.5416" filterUnits="userSpaceOnUse" color-interpolation-filters="sRGB">
<feFlood flood-opacity="0" result="BackgroundImageFix"/>
<feColorMatrix in="SourceAlpha" type="matrix" values="0 0 0 0 0 0 0 0 0 0 0 0 0 0 0 0 0 0 127 0" result="hardAlpha"/>
<feOffset dy="2"/>
<feComposite in2="hardAlpha" operator="out"/>
<feColorMatrix type="matrix" values="0 0 0 0 0.921569 0 0 0 0 0.34902 0 0 0 0 0.32549 0 0 0 0.75 0"/>
<feBlend mode="normal" in2="BackgroundImageFix" result="effect1_dropShadow_6_50"/>
<feBlend mode="normal" in="SourceGraphic" in2="effect1_dropShadow_6_50" result="shape"/>
</filter>
</defs>
</svg>
