<svg width="200" height="180" viewBox="0 0 200 180" fill="none" xmlns="http://www.w3.org/2000/svg">
<rect width="200" height="180" fill="#353744"/>
<path d="M172.059 106.406C173.603 106.406 175.09 106.992 176.219 108.045C177.347 109.099 178.034 110.542 178.14 112.082L178.153 112.5V154.473C178.153 156.017 177.567 157.504 176.514 158.633C175.46 159.761 174.017 160.448 172.476 160.554L172.059 160.567H140.914C139.369 160.567 137.883 159.981 136.754 158.928C135.626 157.874 134.939 156.431 134.833 154.89L134.82 154.473V112.5C134.82 110.955 135.406 109.469 136.459 108.34C137.513 107.212 138.956 106.525 140.496 106.419L140.914 106.406H172.059V106.406ZM172.059 110.468H140.914C140.423 110.468 139.948 110.646 139.579 110.969C139.209 111.291 138.968 111.737 138.901 112.223L138.882 112.5V154.473C138.882 155.502 139.646 156.353 140.637 156.486L140.914 156.505H172.059C172.55 156.505 173.024 156.327 173.394 156.004C173.764 155.682 174.005 155.236 174.072 154.75L174.091 154.473V112.5C174.091 112.009 173.913 111.534 173.59 111.165C173.268 110.795 172.822 110.554 172.336 110.487L172.059 110.468V110.468ZM153.843 133.551C153.311 133.467 152.835 133.175 152.518 132.739C152.202 132.303 152.072 131.76 152.156 131.228L152.438 129.44H148.429L148.045 131.864C147.948 132.385 147.652 132.848 147.22 133.154C146.787 133.46 146.252 133.585 145.729 133.502C145.205 133.419 144.735 133.134 144.418 132.71C144.102 132.285 143.964 131.753 144.034 131.228L144.315 129.44H142.284C141.745 129.44 141.229 129.226 140.848 128.845C140.467 128.464 140.253 127.948 140.253 127.409C140.253 126.87 140.467 126.354 140.848 125.973C141.229 125.592 141.745 125.378 142.284 125.378H144.96L145.602 121.315H143.635C143.097 121.315 142.58 121.101 142.199 120.72C141.818 120.339 141.604 119.823 141.604 119.284C141.604 118.745 141.818 118.229 142.199 117.848C142.58 117.467 143.097 117.253 143.635 117.253H146.244L146.785 113.84C146.89 113.328 147.188 112.875 147.619 112.577C148.049 112.279 148.577 112.159 149.094 112.241C149.611 112.323 150.076 112.601 150.392 113.018C150.709 113.434 150.853 113.957 150.794 114.477L150.36 117.25H154.369L154.91 113.84C154.952 113.577 155.045 113.324 155.185 113.096C155.324 112.869 155.507 112.671 155.723 112.514C155.939 112.358 156.184 112.245 156.443 112.183C156.703 112.12 156.972 112.11 157.235 112.152C157.499 112.193 157.752 112.287 157.979 112.426C158.207 112.566 158.404 112.748 158.561 112.964C158.718 113.18 158.831 113.425 158.893 113.684C158.955 113.944 158.966 114.213 158.924 114.477L158.483 117.25H159.885C160.424 117.25 160.941 117.464 161.322 117.845C161.703 118.226 161.917 118.743 161.917 119.281C161.917 119.82 161.703 120.337 161.322 120.718C160.941 121.098 160.424 121.312 159.885 121.312H157.838L157.196 125.375H158.531C159.07 125.375 159.587 125.589 159.968 125.97C160.348 126.351 160.563 126.868 160.563 127.406C160.563 127.945 160.348 128.462 159.968 128.843C159.587 129.223 159.07 129.437 158.531 129.437H156.551L156.167 131.864C156.082 132.396 155.79 132.872 155.354 133.189C154.919 133.505 154.375 133.636 153.843 133.551V133.551ZM149.713 121.312L149.071 125.375H153.079L153.724 121.312H149.713Z" fill="#7E85B6"/>
<g filter="url(#filter0_d_10_77)">
<path d="M72.499 12.167H68.9102V31H62.792V12.167H59.1348V7.48438H72.499V12.167ZM87.6967 21.2246C87.6967 23.3665 87.6625 24.8818 87.5941 25.7705C87.5258 26.6364 87.3549 27.3656 87.0814 27.958C86.5801 29.0518 85.7826 29.8493 84.6889 30.3506C83.6179 30.8291 82.2735 31.0684 80.6557 31.0684C79.0378 31.0684 77.682 30.8291 76.5883 30.3506C75.5173 29.8493 74.7198 29.0518 74.1957 27.958C73.9451 27.4339 73.7742 26.6706 73.683 25.668C73.6146 24.6426 73.5805 23.1615 73.5805 21.2246V17.2256C73.5805 15.0837 73.6146 13.5798 73.683 12.7139C73.7514 11.8252 73.9223 11.0846 74.1957 10.4922C74.7198 9.42122 75.5059 8.65788 76.5541 8.20215C77.6023 7.74642 78.9695 7.51855 80.6557 7.51855C82.3419 7.51855 83.6977 7.74642 84.723 8.20215C85.7712 8.63509 86.5574 9.39844 87.0814 10.4922C87.3321 11.0391 87.4916 11.8252 87.56 12.8506C87.6511 13.8532 87.6967 15.3115 87.6967 17.2256V21.2246ZM81.5785 25.1895V13.5342C81.5785 13.2835 81.5785 13.1012 81.5785 12.9873C81.5785 12.2581 81.5215 11.734 81.4076 11.415C81.3165 11.096 81.0658 10.9365 80.6557 10.9365C80.2455 10.9365 79.9835 11.1188 79.8695 11.4834C79.7556 11.8252 79.6986 12.5088 79.6986 13.5342V25.5996C79.6986 26.2148 79.7556 26.6934 79.8695 27.0352C79.9835 27.377 80.2341 27.5479 80.6215 27.5479C81.2595 27.5479 81.5785 26.7617 81.5785 25.1895ZM102.894 16.0977C102.894 17.9889 102.598 19.3105 102.006 20.0625C101.231 21.0651 99.727 21.5664 97.4939 21.5664H95.8533V31H89.7352V7.48438H95.8875C97.3686 7.48438 98.4965 7.56413 99.2713 7.72363C100.046 7.86035 100.73 8.17936 101.322 8.68066C101.915 9.18197 102.325 9.75163 102.553 10.3896C102.78 11.0049 102.894 12.224 102.894 14.0469V16.0977ZM97.7674 15.3457V13.4658C97.7674 12.6455 97.6421 12.1214 97.3914 11.8936C97.1635 11.6429 96.6508 11.5176 95.8533 11.5176V17.499H96.2977C96.8901 17.499 97.2775 17.3509 97.4598 17.0547C97.6648 16.7357 97.7674 16.166 97.7674 15.3457ZM112.794 22.5576H104.386V19.2422H112.794V22.5576ZM123.412 31H117.567V16.3027C117.567 15.4596 117.385 14.8672 117.02 14.5254C116.678 14.1608 116.006 13.9785 115.004 13.9785H114.149V11.2441C115.448 10.9707 116.576 10.5036 117.533 9.84277C118.353 9.27311 119.162 8.48698 119.96 7.48438H123.412V31ZM140.353 23.3096C140.353 24.7907 140.341 25.668 140.318 25.9414C140.204 27.2858 139.794 28.4251 139.088 29.3594C138.04 30.7493 136.467 31.4443 134.371 31.4443C133.118 31.4443 132.092 31.2962 131.295 31C130.497 30.681 129.802 30.1341 129.21 29.3594C128.618 28.5846 128.253 27.8099 128.116 27.0352C127.979 26.2376 127.911 25.1097 127.911 23.6514V15.4141C127.911 13.8646 127.979 12.6227 128.116 11.6885C128.276 10.7314 128.595 9.91113 129.073 9.22754C129.552 8.54395 130.224 8.00846 131.09 7.62109C131.956 7.23372 132.924 7.04004 133.995 7.04004C135.226 7.04004 136.308 7.2793 137.242 7.75781C138.199 8.21354 138.917 8.85156 139.396 9.67188C139.851 10.3783 140.125 11.1302 140.216 11.9277C140.307 12.7025 140.353 13.8646 140.353 15.4141V23.3096ZM135.089 25.1211V13.4658C135.089 13.1924 135.089 12.9873 135.089 12.8506C135.089 12.0758 135.032 11.5176 134.918 11.1758C134.827 10.834 134.576 10.6631 134.166 10.6631C133.801 10.6631 133.539 10.834 133.38 11.1758C133.243 11.4948 133.175 11.9619 133.175 12.5771V24.9502C133.175 25.5199 133.175 26.0895 133.175 26.6592C133.243 27.4339 133.562 27.8213 134.132 27.8213C134.565 27.8213 134.827 27.6504 134.918 27.3086C135.032 26.944 135.089 26.2148 135.089 25.1211Z" fill="white"/>
</g>
<path d="M15.016 60.492C15.016 60.564 15.012 60.668 15.004 60.804C15.004 60.932 15 61.072 14.992 61.224C14.984 61.368 14.976 61.508 14.968 61.644C14.96 61.772 14.952 61.876 14.944 61.956L18.388 56.568H19.684V63H18.7V59.208C18.7 59.08 18.7 58.912 18.7 58.704C18.708 58.496 18.716 58.292 18.724 58.092C18.732 57.884 18.74 57.728 18.748 57.624L15.328 63H14.02V56.568H15.016V60.492ZM23.2429 56.448C23.7309 56.448 24.1549 56.516 24.5149 56.652C24.8749 56.78 25.1549 56.972 25.3549 57.228C25.5549 57.476 25.6549 57.78 25.6549 58.14C25.6549 58.532 25.5469 58.844 25.3309 59.076C25.1149 59.3 24.8189 59.464 24.4429 59.568V59.616C24.6989 59.688 24.9349 59.788 25.1509 59.916C25.3669 60.044 25.5389 60.212 25.6669 60.42C25.8029 60.628 25.8709 60.896 25.8709 61.224C25.8709 61.576 25.7709 61.896 25.5709 62.184C25.3789 62.472 25.0789 62.7 24.6709 62.868C24.2709 63.036 23.7549 63.12 23.1229 63.12C22.8189 63.12 22.5269 63.104 22.2469 63.072C21.9749 63.04 21.7269 62.992 21.5029 62.928C21.2869 62.864 21.0949 62.788 20.9269 62.7V61.752C21.1989 61.88 21.5189 61.996 21.8869 62.1C22.2629 62.204 22.6709 62.256 23.1109 62.256C23.4309 62.256 23.7189 62.22 23.9749 62.148C24.2389 62.076 24.4469 61.964 24.5989 61.812C24.7509 61.652 24.8269 61.436 24.8269 61.164C24.8269 60.916 24.7589 60.716 24.6229 60.564C24.4869 60.404 24.2829 60.284 24.0109 60.204C23.7469 60.124 23.4069 60.084 22.9909 60.084H22.1269V59.22H22.8229C23.3749 59.22 23.8149 59.148 24.1429 59.004C24.4789 58.852 24.6469 58.596 24.6469 58.236C24.6469 57.932 24.5189 57.704 24.2629 57.552C24.0149 57.4 23.6549 57.324 23.1829 57.324C22.8309 57.324 22.5189 57.36 22.2469 57.432C21.9829 57.496 21.6909 57.596 21.3709 57.732L20.9989 56.892C21.3429 56.74 21.7029 56.628 22.0789 56.556C22.4549 56.484 22.8429 56.448 23.2429 56.448ZM31.3794 55.056V63H30.4314V55.056H31.3794ZM37.5712 55.056V55.908H35.3152V63H34.3552V55.908H32.0992V55.056H37.5712ZM40.5543 59.568V60.396H37.9863V59.568H40.5543ZM45.6893 56.568H46.8413L44.0933 59.664L47.0693 63H45.8453L42.9413 59.736V63H41.8853V56.568H42.9413V59.688L45.6893 56.568ZM53.4145 59.772C53.4145 60.308 53.3425 60.784 53.1985 61.2C53.0625 61.608 52.8625 61.956 52.5985 62.244C52.3425 62.532 52.0265 62.752 51.6505 62.904C51.2825 63.048 50.8705 63.12 50.4145 63.12C49.9905 63.12 49.5985 63.048 49.2385 62.904C48.8785 62.752 48.5665 62.532 48.3025 62.244C48.0385 61.956 47.8305 61.608 47.6785 61.2C47.5345 60.784 47.4625 60.308 47.4625 59.772C47.4625 59.06 47.5825 58.46 47.8225 57.972C48.0625 57.476 48.4065 57.1 48.8545 56.844C49.3025 56.58 49.8345 56.448 50.4505 56.448C51.0345 56.448 51.5465 56.58 51.9865 56.844C52.4345 57.1 52.7825 57.476 53.0305 57.972C53.2865 58.46 53.4145 59.06 53.4145 59.772ZM48.5545 59.772C48.5545 60.276 48.6185 60.716 48.7465 61.092C48.8825 61.46 49.0905 61.744 49.3705 61.944C49.6505 62.144 50.0065 62.244 50.4385 62.244C50.8705 62.244 51.2265 62.144 51.5065 61.944C51.7865 61.744 51.9905 61.46 52.1185 61.092C52.2545 60.716 52.3225 60.276 52.3225 59.772C52.3225 59.26 52.2545 58.824 52.1185 58.464C51.9825 58.104 51.7745 57.828 51.4945 57.636C51.2225 57.436 50.8665 57.336 50.4265 57.336C49.7705 57.336 49.2945 57.552 48.9985 57.984C48.7025 58.416 48.5545 59.012 48.5545 59.772ZM61.8081 56.568V63H60.8601V58.896C60.8601 58.728 60.8641 58.552 60.8721 58.368C60.8881 58.184 60.9041 58.004 60.9201 57.828H60.8841L58.7841 63H57.8961L55.8561 57.828H55.8201C55.8361 58.004 55.8441 58.184 55.8441 58.368C55.8521 58.552 55.8561 58.74 55.8561 58.932V63H54.9081V56.568H56.3121L58.3401 61.74L60.4041 56.568H61.8081ZM69.1173 56.568V63H68.0613V57.468H64.7373V63H63.6813V56.568H69.1173ZM73.4255 56.46C74.2095 56.46 74.7895 56.632 75.1655 56.976C75.5415 57.32 75.7295 57.868 75.7295 58.62V63H74.9615L74.7575 62.088H74.7095C74.5255 62.32 74.3335 62.516 74.1335 62.676C73.9415 62.828 73.7175 62.94 73.4615 63.012C73.2135 63.084 72.9095 63.12 72.5495 63.12C72.1655 63.12 71.8175 63.052 71.5055 62.916C71.2015 62.78 70.9615 62.572 70.7855 62.292C70.6095 62.004 70.5215 61.644 70.5215 61.212C70.5215 60.572 70.7735 60.08 71.2775 59.736C71.7815 59.384 72.5575 59.192 73.6055 59.16L74.6975 59.124V58.74C74.6975 58.204 74.5815 57.832 74.3495 57.624C74.1175 57.416 73.7895 57.312 73.3655 57.312C73.0295 57.312 72.7095 57.364 72.4055 57.468C72.1015 57.564 71.8175 57.676 71.5535 57.804L71.2295 57.012C71.5095 56.86 71.8415 56.732 72.2255 56.628C72.6095 56.516 73.0095 56.46 73.4255 56.46ZM73.7375 59.892C72.9375 59.924 72.3815 60.052 72.0695 60.276C71.7655 60.5 71.6135 60.816 71.6135 61.224C71.6135 61.584 71.7215 61.848 71.9375 62.016C72.1615 62.184 72.4455 62.268 72.7895 62.268C73.3335 62.268 73.7855 62.12 74.1455 61.824C74.5055 61.52 74.6855 61.056 74.6855 60.432V59.856L73.7375 59.892ZM78.5921 56.568V59.244H82.0841V56.568H83.1401V63H82.0841V60.132H78.5921V63H77.5361V56.568H78.5921ZM85.9927 60.492C85.9927 60.564 85.9887 60.668 85.9807 60.804C85.9807 60.932 85.9767 61.072 85.9687 61.224C85.9607 61.368 85.9527 61.508 85.9447 61.644C85.9367 61.772 85.9287 61.876 85.9207 61.956L89.3647 56.568H90.6607V63H89.6767V59.208C89.6767 59.08 89.6767 58.912 89.6767 58.704C89.6847 58.496 89.6927 58.292 89.7007 58.092C89.7087 57.884 89.7167 57.728 89.7247 57.624L86.3047 63H84.9967V56.568H85.9927V60.492ZM97.7357 53.904C97.7037 54.304 97.6037 54.64 97.4357 54.912C97.2757 55.184 97.0357 55.388 96.7157 55.524C96.3957 55.66 95.9797 55.728 95.4677 55.728C94.9477 55.728 94.5277 55.66 94.2077 55.524C93.8957 55.388 93.6677 55.188 93.5237 54.924C93.3797 54.652 93.2917 54.312 93.2597 53.904H94.2437C94.2837 54.336 94.3957 54.628 94.5797 54.78C94.7717 54.924 95.0757 54.996 95.4917 54.996C95.8597 54.996 96.1477 54.92 96.3557 54.768C96.5717 54.608 96.6997 54.32 96.7397 53.904H97.7357ZM93.5237 60.492C93.5237 60.564 93.5197 60.668 93.5117 60.804C93.5117 60.932 93.5077 61.072 93.4997 61.224C93.4917 61.368 93.4837 61.508 93.4757 61.644C93.4677 61.772 93.4597 61.876 93.4517 61.956L96.8957 56.568H98.1917V63H97.2077V59.208C97.2077 59.08 97.2077 58.912 97.2077 58.704C97.2157 58.496 97.2237 58.292 97.2317 58.092C97.2397 57.884 97.2477 57.728 97.2557 57.624L93.8357 63H92.5277V56.568H93.5237V60.492ZM16.612 69.432C17.324 69.432 17.92 69.5 18.4 69.636C18.888 69.772 19.252 69.996 19.492 70.308C19.74 70.62 19.864 71.036 19.864 71.556C19.864 71.892 19.8 72.192 19.672 72.456C19.552 72.712 19.368 72.928 19.12 73.104C18.88 73.272 18.584 73.388 18.232 73.452V73.512C18.592 73.568 18.916 73.672 19.204 73.824C19.5 73.976 19.732 74.192 19.9 74.472C20.068 74.752 20.152 75.116 20.152 75.564C20.152 76.084 20.032 76.528 19.792 76.896C19.552 77.256 19.208 77.532 18.76 77.724C18.32 77.908 17.792 78 17.176 78H14.164V69.432H16.612ZM16.828 73.08C17.564 73.08 18.068 72.964 18.34 72.732C18.612 72.492 18.748 72.14 18.748 71.676C18.748 71.204 18.58 70.868 18.244 70.668C17.916 70.46 17.388 70.356 16.66 70.356H15.244V73.08H16.828ZM15.244 73.98V77.088H16.972C17.732 77.088 18.26 76.94 18.556 76.644C18.852 76.348 19 75.96 19 75.48C19 75.176 18.932 74.912 18.796 74.688C18.668 74.464 18.448 74.292 18.136 74.172C17.832 74.044 17.416 73.98 16.888 73.98H15.244ZM28.1223 71.448C28.9143 71.448 29.5503 71.724 30.0303 72.276C30.5183 72.828 30.7623 73.66 30.7623 74.772C30.7623 75.5 30.6503 76.116 30.4263 76.62C30.2103 77.116 29.9023 77.492 29.5023 77.748C29.1103 77.996 28.6463 78.12 28.1103 78.12C27.7823 78.12 27.4903 78.076 27.2343 77.988C26.9783 77.9 26.7583 77.788 26.5743 77.652C26.3983 77.508 26.2463 77.352 26.1183 77.184H26.0463C26.0623 77.32 26.0783 77.492 26.0943 77.7C26.1103 77.908 26.1183 78.088 26.1183 78.24V80.88H25.0623V71.568H25.9263L26.0703 72.444H26.1183C26.2463 72.26 26.3983 72.092 26.5743 71.94C26.7583 71.788 26.9743 71.668 27.2223 71.58C27.4783 71.492 27.7783 71.448 28.1223 71.448ZM27.9303 72.336C27.4983 72.336 27.1503 72.42 26.8863 72.588C26.6223 72.748 26.4303 72.992 26.3103 73.32C26.1903 73.648 26.1263 74.064 26.1183 74.568V74.772C26.1183 75.3 26.1743 75.748 26.2863 76.116C26.3983 76.484 26.5863 76.764 26.8503 76.956C27.1223 77.148 27.4903 77.244 27.9543 77.244C28.3463 77.244 28.6663 77.136 28.9143 76.92C29.1703 76.704 29.3583 76.412 29.4783 76.044C29.6063 75.668 29.6703 75.24 29.6703 74.76C29.6703 74.024 29.5263 73.436 29.2383 72.996C28.9583 72.556 28.5223 72.336 27.9303 72.336ZM34.7492 71.448C35.3012 71.448 35.7732 71.568 36.1652 71.808C36.5652 72.048 36.8692 72.388 37.0772 72.828C37.2932 73.26 37.4012 73.768 37.4012 74.352V74.988H32.9972C33.0132 75.716 33.1972 76.272 33.5492 76.656C33.9092 77.032 34.4092 77.22 35.0492 77.22C35.4572 77.22 35.8172 77.184 36.1292 77.112C36.4492 77.032 36.7772 76.92 37.1132 76.776V77.7C36.7852 77.844 36.4612 77.948 36.1412 78.012C35.8212 78.084 35.4412 78.12 35.0012 78.12C34.3932 78.12 33.8532 77.996 33.3812 77.748C32.9172 77.5 32.5532 77.132 32.2892 76.644C32.0332 76.148 31.9052 75.544 31.9052 74.832C31.9052 74.128 32.0212 73.524 32.2532 73.02C32.4932 72.516 32.8252 72.128 33.2492 71.856C33.6812 71.584 34.1812 71.448 34.7492 71.448ZM34.7372 72.312C34.2332 72.312 33.8332 72.476 33.5372 72.804C33.2492 73.124 33.0772 73.572 33.0212 74.148H36.2972C36.2972 73.78 36.2412 73.46 36.1292 73.188C36.0172 72.916 35.8452 72.704 35.6132 72.552C35.3892 72.392 35.0972 72.312 34.7372 72.312ZM44.0666 68.904C44.0346 69.304 43.9346 69.64 43.7666 69.912C43.6066 70.184 43.3666 70.388 43.0466 70.524C42.7266 70.66 42.3106 70.728 41.7986 70.728C41.2786 70.728 40.8586 70.66 40.5386 70.524C40.2266 70.388 39.9986 70.188 39.8546 69.924C39.7106 69.652 39.6226 69.312 39.5906 68.904H40.5746C40.6146 69.336 40.7266 69.628 40.9106 69.78C41.1026 69.924 41.4066 69.996 41.8226 69.996C42.1906 69.996 42.4786 69.92 42.6866 69.768C42.9026 69.608 43.0306 69.32 43.0706 68.904H44.0666ZM39.8546 75.492C39.8546 75.564 39.8506 75.668 39.8426 75.804C39.8426 75.932 39.8386 76.072 39.8306 76.224C39.8226 76.368 39.8146 76.508 39.8066 76.644C39.7986 76.772 39.7906 76.876 39.7826 76.956L43.2266 71.568H44.5226V78H43.5386V74.208C43.5386 74.08 43.5386 73.912 43.5386 73.704C43.5466 73.496 43.5546 73.292 43.5626 73.092C43.5706 72.884 43.5786 72.728 43.5866 72.624L40.1666 78H38.8586V71.568H39.8546V75.492ZM50.8295 72.456H48.7295V78H47.6855V72.456H45.6095V71.568H50.8295V72.456ZM52.9126 75.492C52.9126 75.564 52.9086 75.668 52.9006 75.804C52.9006 75.932 52.8966 76.072 52.8886 76.224C52.8806 76.368 52.8726 76.508 52.8646 76.644C52.8566 76.772 52.8486 76.876 52.8406 76.956L56.2846 71.568H57.5806V78H56.5966V74.208C56.5966 74.08 56.5966 73.912 56.5966 73.704C56.6046 73.496 56.6126 73.292 56.6206 73.092C56.6286 72.884 56.6366 72.728 56.6446 72.624L53.2246 78H51.9166V71.568H52.9126V75.492ZM60.5035 71.568V74.244H63.9955V71.568H65.0515V78H63.9955V75.132H60.5035V78H59.4475V71.568H60.5035ZM70.8321 71.568V72.456H67.9641V78H66.9081V71.568H70.8321ZM74.3555 71.46C75.1395 71.46 75.7195 71.632 76.0955 71.976C76.4715 72.32 76.6595 72.868 76.6595 73.62V78H75.8915L75.6875 77.088H75.6395C75.4555 77.32 75.2635 77.516 75.0635 77.676C74.8715 77.828 74.6475 77.94 74.3915 78.012C74.1435 78.084 73.8395 78.12 73.4795 78.12C73.0955 78.12 72.7475 78.052 72.4355 77.916C72.1315 77.78 71.8915 77.572 71.7155 77.292C71.5395 77.004 71.4515 76.644 71.4515 76.212C71.4515 75.572 71.7035 75.08 72.2075 74.736C72.7115 74.384 73.4875 74.192 74.5355 74.16L75.6275 74.124V73.74C75.6275 73.204 75.5115 72.832 75.2795 72.624C75.0475 72.416 74.7195 72.312 74.2955 72.312C73.9595 72.312 73.6395 72.364 73.3355 72.468C73.0315 72.564 72.7475 72.676 72.4835 72.804L72.1595 72.012C72.4395 71.86 72.7715 71.732 73.1555 71.628C73.5395 71.516 73.9395 71.46 74.3555 71.46ZM74.6675 74.892C73.8675 74.924 73.3115 75.052 72.9995 75.276C72.6955 75.5 72.5435 75.816 72.5435 76.224C72.5435 76.584 72.6515 76.848 72.8675 77.016C73.0915 77.184 73.3755 77.268 73.7195 77.268C74.2635 77.268 74.7155 77.12 75.0755 76.824C75.4355 76.52 75.6155 76.056 75.6155 75.432V74.856L74.6675 74.892ZM79.9901 74.712L77.7701 71.568H78.9701L80.6261 73.992L82.2701 71.568H83.4581L81.2381 74.712L83.5781 78H82.3781L80.6261 75.432L78.8501 78H77.6621L79.9901 74.712ZM95.7713 71.568L93.1193 74.688L95.9993 78H94.7993L92.0153 74.736V78H91.0313V74.736L88.2473 78H87.0473L89.9273 74.688L87.2753 71.568H88.4273L91.0313 74.688V71.568H92.0153V74.688L94.6313 71.568H95.7713ZM95.8673 71.568H96.9953L98.3873 75.228C98.4673 75.444 98.5393 75.652 98.6033 75.852C98.6753 76.052 98.7393 76.248 98.7953 76.44C98.8513 76.624 98.8953 76.804 98.9273 76.98H98.9753C99.0233 76.78 99.0993 76.52 99.2033 76.2C99.3073 75.872 99.4153 75.544 99.5273 75.216L100.835 71.568H101.975L99.2033 78.888C99.0513 79.288 98.8713 79.636 98.6633 79.932C98.4633 80.236 98.2153 80.468 97.9193 80.628C97.6313 80.796 97.2793 80.88 96.8633 80.88C96.6713 80.88 96.5033 80.868 96.3593 80.844C96.2153 80.828 96.0913 80.808 95.9873 80.784V79.944C96.0753 79.96 96.1793 79.976 96.2993 79.992C96.4273 80.008 96.5593 80.016 96.6953 80.016C96.9433 80.016 97.1553 79.968 97.3313 79.872C97.5153 79.784 97.6713 79.652 97.7993 79.476C97.9273 79.308 98.0353 79.108 98.1233 78.876L98.4593 78.024L95.8673 71.568ZM105.873 71.448C106.665 71.448 107.301 71.724 107.781 72.276C108.269 72.828 108.513 73.66 108.513 74.772C108.513 75.5 108.401 76.116 108.177 76.62C107.961 77.116 107.653 77.492 107.253 77.748C106.861 77.996 106.397 78.12 105.861 78.12C105.533 78.12 105.241 78.076 104.985 77.988C104.729 77.9 104.509 77.788 104.325 77.652C104.149 77.508 103.997 77.352 103.869 77.184H103.797C103.813 77.32 103.829 77.492 103.845 77.7C103.861 77.908 103.869 78.088 103.869 78.24V80.88H102.813V71.568H103.677L103.821 72.444H103.869C103.997 72.26 104.149 72.092 104.325 71.94C104.509 71.788 104.725 71.668 104.973 71.58C105.229 71.492 105.529 71.448 105.873 71.448ZM105.681 72.336C105.249 72.336 104.901 72.42 104.637 72.588C104.373 72.748 104.181 72.992 104.061 73.32C103.941 73.648 103.877 74.064 103.869 74.568V74.772C103.869 75.3 103.925 75.748 104.037 76.116C104.149 76.484 104.337 76.764 104.601 76.956C104.873 77.148 105.241 77.244 105.705 77.244C106.097 77.244 106.417 77.136 106.665 76.92C106.921 76.704 107.109 76.412 107.229 76.044C107.357 75.668 107.421 75.24 107.421 74.76C107.421 74.024 107.277 73.436 106.989 72.996C106.709 72.556 106.273 72.336 105.681 72.336ZM111.071 71.568V74.244H114.563V71.568H115.619V78H114.563V75.132H111.071V78H110.015V71.568H111.071ZM119.912 71.46C120.696 71.46 121.276 71.632 121.652 71.976C122.028 72.32 122.216 72.868 122.216 73.62V78H121.448L121.244 77.088H121.196C121.012 77.32 120.82 77.516 120.62 77.676C120.428 77.828 120.204 77.94 119.948 78.012C119.7 78.084 119.396 78.12 119.036 78.12C118.652 78.12 118.304 78.052 117.992 77.916C117.688 77.78 117.448 77.572 117.272 77.292C117.096 77.004 117.008 76.644 117.008 76.212C117.008 75.572 117.26 75.08 117.764 74.736C118.268 74.384 119.044 74.192 120.092 74.16L121.184 74.124V73.74C121.184 73.204 121.068 72.832 120.836 72.624C120.604 72.416 120.276 72.312 119.852 72.312C119.516 72.312 119.196 72.364 118.892 72.468C118.588 72.564 118.304 72.676 118.04 72.804L117.716 72.012C117.996 71.86 118.328 71.732 118.712 71.628C119.096 71.516 119.496 71.46 119.912 71.46ZM120.224 74.892C119.424 74.924 118.868 75.052 118.556 75.276C118.252 75.5 118.1 75.816 118.1 76.224C118.1 76.584 118.208 76.848 118.424 77.016C118.648 77.184 118.932 77.268 119.276 77.268C119.82 77.268 120.272 77.12 120.632 76.824C120.992 76.52 121.172 76.056 121.172 75.432V74.856L120.224 74.892ZM128.919 78H127.851V72.444H125.955C125.875 73.46 125.775 74.328 125.655 75.048C125.535 75.76 125.383 76.34 125.199 76.788C125.015 77.236 124.795 77.564 124.539 77.772C124.283 77.98 123.983 78.084 123.639 78.084C123.535 78.084 123.431 78.076 123.327 78.06C123.231 78.052 123.151 78.032 123.087 78V77.208C123.135 77.224 123.187 77.236 123.243 77.244C123.299 77.252 123.355 77.256 123.411 77.256C123.587 77.256 123.747 77.184 123.891 77.04C124.035 76.896 124.163 76.676 124.275 76.38C124.395 76.084 124.503 75.712 124.599 75.264C124.695 74.808 124.779 74.272 124.851 73.656C124.923 73.04 124.987 72.344 125.043 71.568H128.919V78ZM136.372 74.772C136.372 75.308 136.3 75.784 136.156 76.2C136.02 76.608 135.82 76.956 135.556 77.244C135.3 77.532 134.984 77.752 134.608 77.904C134.24 78.048 133.828 78.12 133.372 78.12C132.948 78.12 132.556 78.048 132.196 77.904C131.836 77.752 131.524 77.532 131.26 77.244C130.996 76.956 130.788 76.608 130.636 76.2C130.492 75.784 130.42 75.308 130.42 74.772C130.42 74.06 130.54 73.46 130.78 72.972C131.02 72.476 131.364 72.1 131.812 71.844C132.26 71.58 132.792 71.448 133.408 71.448C133.992 71.448 134.504 71.58 134.944 71.844C135.392 72.1 135.74 72.476 135.988 72.972C136.244 73.46 136.372 74.06 136.372 74.772ZM131.512 74.772C131.512 75.276 131.576 75.716 131.704 76.092C131.84 76.46 132.048 76.744 132.328 76.944C132.608 77.144 132.964 77.244 133.396 77.244C133.828 77.244 134.184 77.144 134.464 76.944C134.744 76.744 134.948 76.46 135.076 76.092C135.212 75.716 135.28 75.276 135.28 74.772C135.28 74.26 135.212 73.824 135.076 73.464C134.94 73.104 134.732 72.828 134.452 72.636C134.18 72.436 133.824 72.336 133.384 72.336C132.728 72.336 132.252 72.552 131.956 72.984C131.66 73.416 131.512 74.012 131.512 74.772ZM143.038 73.188C143.038 73.588 142.918 73.9 142.678 74.124C142.438 74.348 142.13 74.5 141.754 74.58V74.628C142.154 74.684 142.502 74.828 142.798 75.06C143.094 75.284 143.242 75.636 143.242 76.116C143.242 76.388 143.19 76.64 143.086 76.872C142.99 77.104 142.838 77.304 142.63 77.472C142.422 77.64 142.154 77.772 141.826 77.868C141.498 77.956 141.102 78 140.638 78H137.866V71.568H140.626C141.082 71.568 141.49 71.62 141.85 71.724C142.218 71.82 142.506 71.988 142.714 72.228C142.93 72.46 143.038 72.78 143.038 73.188ZM142.15 76.116C142.15 75.748 142.01 75.484 141.73 75.324C141.45 75.164 141.038 75.084 140.494 75.084H138.922V77.148H140.518C141.046 77.148 141.45 77.072 141.73 76.92C142.01 76.76 142.15 76.492 142.15 76.116ZM141.97 73.32C141.97 73.016 141.858 72.796 141.634 72.66C141.418 72.516 141.062 72.444 140.566 72.444H138.922V74.208H140.374C140.894 74.208 141.29 74.136 141.562 73.992C141.834 73.848 141.97 73.624 141.97 73.32ZM150.429 69.432C151.549 69.432 152.365 69.652 152.877 70.092C153.389 70.532 153.645 71.152 153.645 71.952C153.645 72.304 153.585 72.644 153.465 72.972C153.353 73.292 153.165 73.58 152.901 73.836C152.637 74.092 152.285 74.296 151.845 74.448C151.405 74.592 150.865 74.664 150.225 74.664H149.241V78H148.161V69.432H150.429ZM150.333 70.356H149.241V73.74H150.105C150.649 73.74 151.101 73.684 151.461 73.572C151.821 73.452 152.089 73.264 152.265 73.008C152.441 72.752 152.529 72.416 152.529 72C152.529 71.448 152.353 71.036 152.001 70.764C151.649 70.492 151.093 70.356 150.333 70.356ZM160.695 74.772C160.695 75.308 160.623 75.784 160.479 76.2C160.343 76.608 160.143 76.956 159.879 77.244C159.623 77.532 159.307 77.752 158.931 77.904C158.563 78.048 158.151 78.12 157.695 78.12C157.271 78.12 156.879 78.048 156.519 77.904C156.159 77.752 155.847 77.532 155.583 77.244C155.319 76.956 155.111 76.608 154.959 76.2C154.815 75.784 154.743 75.308 154.743 74.772C154.743 74.06 154.863 73.46 155.103 72.972C155.343 72.476 155.687 72.1 156.135 71.844C156.583 71.58 157.115 71.448 157.731 71.448C158.315 71.448 158.827 71.58 159.267 71.844C159.715 72.1 160.063 72.476 160.311 72.972C160.567 73.46 160.695 74.06 160.695 74.772ZM155.835 74.772C155.835 75.276 155.899 75.716 156.027 76.092C156.163 76.46 156.371 76.744 156.651 76.944C156.931 77.144 157.287 77.244 157.719 77.244C158.151 77.244 158.507 77.144 158.787 76.944C159.067 76.744 159.271 76.46 159.399 76.092C159.535 75.716 159.603 75.276 159.603 74.772C159.603 74.26 159.535 73.824 159.399 73.464C159.263 73.104 159.055 72.828 158.775 72.636C158.503 72.436 158.147 72.336 157.707 72.336C157.051 72.336 156.575 72.552 156.279 72.984C155.983 73.416 155.835 74.012 155.835 74.772ZM164.769 78.12C164.201 78.12 163.693 78.004 163.245 77.772C162.805 77.54 162.457 77.18 162.201 76.692C161.953 76.204 161.829 75.58 161.829 74.82C161.829 74.028 161.961 73.384 162.225 72.888C162.489 72.392 162.845 72.028 163.293 71.796C163.749 71.564 164.265 71.448 164.841 71.448C165.169 71.448 165.485 71.484 165.789 71.556C166.093 71.62 166.341 71.7 166.533 71.796L166.209 72.672C166.017 72.6 165.793 72.532 165.537 72.468C165.281 72.404 165.041 72.372 164.817 72.372C164.385 72.372 164.029 72.464 163.749 72.648C163.469 72.832 163.261 73.104 163.125 73.464C162.989 73.824 162.921 74.272 162.921 74.808C162.921 75.32 162.989 75.756 163.125 76.116C163.261 76.476 163.465 76.748 163.737 76.932C164.009 77.116 164.349 77.208 164.757 77.208C165.109 77.208 165.417 77.172 165.681 77.1C165.953 77.028 166.201 76.94 166.425 76.836V77.772C166.209 77.884 165.969 77.968 165.705 78.024C165.449 78.088 165.137 78.12 164.769 78.12ZM170.354 78.12C169.786 78.12 169.278 78.004 168.83 77.772C168.39 77.54 168.042 77.18 167.786 76.692C167.538 76.204 167.414 75.58 167.414 74.82C167.414 74.028 167.546 73.384 167.81 72.888C168.074 72.392 168.43 72.028 168.878 71.796C169.334 71.564 169.85 71.448 170.426 71.448C170.754 71.448 171.07 71.484 171.374 71.556C171.678 71.62 171.926 71.7 172.118 71.796L171.794 72.672C171.602 72.6 171.378 72.532 171.122 72.468C170.866 72.404 170.626 72.372 170.402 72.372C169.97 72.372 169.614 72.464 169.334 72.648C169.054 72.832 168.846 73.104 168.71 73.464C168.574 73.824 168.506 74.272 168.506 74.808C168.506 75.32 168.574 75.756 168.71 76.116C168.846 76.476 169.05 76.748 169.322 76.932C169.594 77.116 169.934 77.208 170.342 77.208C170.694 77.208 171.002 77.172 171.266 77.1C171.538 77.028 171.786 76.94 172.01 76.836V77.772C171.794 77.884 171.554 77.968 171.29 78.024C171.034 78.088 170.722 78.12 170.354 78.12ZM174.356 75.492C174.356 75.564 174.352 75.668 174.344 75.804C174.344 75.932 174.34 76.072 174.332 76.224C174.324 76.368 174.316 76.508 174.308 76.644C174.3 76.772 174.292 76.876 174.284 76.956L177.728 71.568H179.024V78H178.04V74.208C178.04 74.08 178.04 73.912 178.04 73.704C178.048 73.496 178.056 73.292 178.064 73.092C178.072 72.884 178.08 72.728 178.088 72.624L174.668 78H173.36V71.568H174.356V75.492ZM181.887 75.492C181.887 75.564 181.883 75.668 181.875 75.804C181.875 75.932 181.871 76.072 181.863 76.224C181.855 76.368 181.847 76.508 181.839 76.644C181.831 76.772 181.823 76.876 181.815 76.956L185.259 71.568H186.555V78H185.571V74.208C185.571 74.08 185.571 73.912 185.571 73.704C185.579 73.496 185.587 73.292 185.595 73.092C185.603 72.884 185.611 72.728 185.619 72.624L182.199 78H180.891V71.568H181.887V75.492ZM19.456 86.568V93H18.4V87.468H15.076V93H14.02V86.568H19.456ZM26.9203 89.772C26.9203 90.308 26.8483 90.784 26.7043 91.2C26.5683 91.608 26.3683 91.956 26.1043 92.244C25.8483 92.532 25.5323 92.752 25.1563 92.904C24.7883 93.048 24.3763 93.12 23.9203 93.12C23.4963 93.12 23.1043 93.048 22.7443 92.904C22.3843 92.752 22.0723 92.532 21.8083 92.244C21.5443 91.956 21.3363 91.608 21.1843 91.2C21.0403 90.784 20.9683 90.308 20.9683 89.772C20.9683 89.06 21.0883 88.46 21.3283 87.972C21.5683 87.476 21.9123 87.1 22.3603 86.844C22.8083 86.58 23.3403 86.448 23.9563 86.448C24.5403 86.448 25.0523 86.58 25.4923 86.844C25.9403 87.1 26.2883 87.476 26.5363 87.972C26.7923 88.46 26.9203 89.06 26.9203 89.772ZM22.0603 89.772C22.0603 90.276 22.1243 90.716 22.2523 91.092C22.3883 91.46 22.5963 91.744 22.8763 91.944C23.1563 92.144 23.5123 92.244 23.9443 92.244C24.3763 92.244 24.7323 92.144 25.0123 91.944C25.2923 91.744 25.4963 91.46 25.6243 91.092C25.7603 90.716 25.8283 90.276 25.8283 89.772C25.8283 89.26 25.7603 88.824 25.6243 88.464C25.4883 88.104 25.2803 87.828 25.0003 87.636C24.7283 87.436 24.3723 87.336 23.9323 87.336C23.2763 87.336 22.8003 87.552 22.5043 87.984C22.2083 88.416 22.0603 89.012 22.0603 89.772ZM37.0036 88.188C37.0036 88.588 36.8836 88.9 36.6436 89.124C36.4036 89.348 36.0956 89.5 35.7196 89.58V89.628C36.1196 89.684 36.4676 89.828 36.7636 90.06C37.0596 90.284 37.2076 90.636 37.2076 91.116C37.2076 91.388 37.1556 91.64 37.0516 91.872C36.9556 92.104 36.8036 92.304 36.5956 92.472C36.3876 92.64 36.1196 92.772 35.7916 92.868C35.4636 92.956 35.0676 93 34.6036 93H31.8316V86.568H34.5916C35.0476 86.568 35.4556 86.62 35.8156 86.724C36.1836 86.82 36.4716 86.988 36.6796 87.228C36.8956 87.46 37.0036 87.78 37.0036 88.188ZM36.1156 91.116C36.1156 90.748 35.9756 90.484 35.6956 90.324C35.4156 90.164 35.0036 90.084 34.4596 90.084H32.8876V92.148H34.4836C35.0116 92.148 35.4156 92.072 35.6956 91.92C35.9756 91.76 36.1156 91.492 36.1156 91.116ZM35.9356 88.32C35.9356 88.016 35.8236 87.796 35.5996 87.66C35.3836 87.516 35.0276 87.444 34.5316 87.444H32.8876V89.208H34.3396C34.8596 89.208 35.2556 89.136 35.5276 88.992C35.7996 88.848 35.9356 88.624 35.9356 88.32ZM41.0496 86.448C41.6016 86.448 42.0736 86.568 42.4656 86.808C42.8656 87.048 43.1696 87.388 43.3776 87.828C43.5936 88.26 43.7016 88.768 43.7016 89.352V89.988H39.2976C39.3136 90.716 39.4976 91.272 39.8496 91.656C40.2096 92.032 40.7096 92.22 41.3496 92.22C41.7576 92.22 42.1176 92.184 42.4296 92.112C42.7496 92.032 43.0776 91.92 43.4136 91.776V92.7C43.0856 92.844 42.7616 92.948 42.4416 93.012C42.1216 93.084 41.7416 93.12 41.3016 93.12C40.6936 93.12 40.1536 92.996 39.6816 92.748C39.2176 92.5 38.8536 92.132 38.5896 91.644C38.3336 91.148 38.2056 90.544 38.2056 89.832C38.2056 89.128 38.3216 88.524 38.5536 88.02C38.7936 87.516 39.1256 87.128 39.5496 86.856C39.9816 86.584 40.4816 86.448 41.0496 86.448ZM41.0376 87.312C40.5336 87.312 40.1336 87.476 39.8376 87.804C39.5496 88.124 39.3776 88.572 39.3216 89.148H42.5976C42.5976 88.78 42.5416 88.46 42.4296 88.188C42.3176 87.916 42.1456 87.704 41.9136 87.552C41.6896 87.392 41.3976 87.312 41.0376 87.312ZM48.2191 86.448C49.0111 86.448 49.6471 86.724 50.1271 87.276C50.6151 87.828 50.8591 88.66 50.8591 89.772C50.8591 90.5 50.7471 91.116 50.5231 91.62C50.3071 92.116 49.9991 92.492 49.5991 92.748C49.2071 92.996 48.7431 93.12 48.2071 93.12C47.8791 93.12 47.5871 93.076 47.3311 92.988C47.0751 92.9 46.8551 92.788 46.6711 92.652C46.4951 92.508 46.3431 92.352 46.2151 92.184H46.1431C46.1591 92.32 46.1751 92.492 46.1911 92.7C46.2071 92.908 46.2151 93.088 46.2151 93.24V95.88H45.1591V86.568H46.0231L46.1671 87.444H46.2151C46.3431 87.26 46.4951 87.092 46.6711 86.94C46.8551 86.788 47.0711 86.668 47.3191 86.58C47.5751 86.492 47.8751 86.448 48.2191 86.448ZM48.0271 87.336C47.5951 87.336 47.2471 87.42 46.9831 87.588C46.7191 87.748 46.5271 87.992 46.4071 88.32C46.2871 88.648 46.2231 89.064 46.2151 89.568V89.772C46.2151 90.3 46.2711 90.748 46.3831 91.116C46.4951 91.484 46.6831 91.764 46.9471 91.956C47.2191 92.148 47.5871 92.244 48.0511 92.244C48.4431 92.244 48.7631 92.136 49.0111 91.92C49.2671 91.704 49.4551 91.412 49.5751 91.044C49.7031 90.668 49.7671 90.24 49.7671 89.76C49.7671 89.024 49.6231 88.436 49.3351 87.996C49.0551 87.556 48.6191 87.336 48.0271 87.336ZM54.9419 93.12C54.3739 93.12 53.8659 93.004 53.4179 92.772C52.9779 92.54 52.6299 92.18 52.3739 91.692C52.1259 91.204 52.0019 90.58 52.0019 89.82C52.0019 89.028 52.1339 88.384 52.3979 87.888C52.6619 87.392 53.0179 87.028 53.4659 86.796C53.9219 86.564 54.4379 86.448 55.0139 86.448C55.3419 86.448 55.6579 86.484 55.9619 86.556C56.2659 86.62 56.5139 86.7 56.7059 86.796L56.3819 87.672C56.1899 87.6 55.9659 87.532 55.7099 87.468C55.4539 87.404 55.2139 87.372 54.9899 87.372C54.5579 87.372 54.2019 87.464 53.9219 87.648C53.6419 87.832 53.4339 88.104 53.2979 88.464C53.1619 88.824 53.0939 89.272 53.0939 89.808C53.0939 90.32 53.1619 90.756 53.2979 91.116C53.4339 91.476 53.6379 91.748 53.9099 91.932C54.1819 92.116 54.5219 92.208 54.9299 92.208C55.2819 92.208 55.5899 92.172 55.8539 92.1C56.1259 92.028 56.3739 91.94 56.5979 91.836V92.772C56.3819 92.884 56.1419 92.968 55.8779 93.024C55.6219 93.088 55.3099 93.12 54.9419 93.12ZM58.9435 90.492C58.9435 90.564 58.9395 90.668 58.9315 90.804C58.9315 90.932 58.9275 91.072 58.9195 91.224C58.9115 91.368 58.9035 91.508 58.8955 91.644C58.8875 91.772 58.8795 91.876 58.8715 91.956L62.3155 86.568H63.6115V93H62.6275V89.208C62.6275 89.08 62.6275 88.912 62.6275 88.704C62.6355 88.496 62.6435 88.292 62.6515 88.092C62.6595 87.884 62.6675 87.728 62.6755 87.624L59.2555 93H57.9475V86.568H58.9435V90.492ZM65.8744 93H64.6504L66.4864 90.3C66.2384 90.236 65.9984 90.136 65.7664 90C65.5344 89.856 65.3464 89.66 65.2024 89.412C65.0584 89.156 64.9864 88.84 64.9864 88.464C64.9864 87.848 65.1944 87.38 65.6104 87.06C66.0264 86.732 66.5784 86.568 67.2664 86.568H70.1464V93H69.0904V90.444H67.5304L65.8744 93ZM66.0064 88.476C66.0064 88.844 66.1424 89.12 66.4144 89.304C66.6944 89.48 67.0824 89.568 67.5784 89.568H69.0904V87.444H67.3744C66.8864 87.444 66.5344 87.54 66.3184 87.732C66.1104 87.924 66.0064 88.172 66.0064 88.476ZM78.9016 86.568V93H77.9536V88.896C77.9536 88.728 77.9576 88.552 77.9656 88.368C77.9816 88.184 77.9976 88.004 78.0136 87.828H77.9776L75.8776 93H74.9896L72.9496 87.828H72.9136C72.9296 88.004 72.9376 88.184 72.9376 88.368C72.9456 88.552 72.9496 88.74 72.9496 88.932V93H72.0016V86.568H73.4056L75.4336 91.74L77.4976 86.568H78.9016ZM89.7843 89.772C89.7843 90.308 89.7123 90.784 89.5683 91.2C89.4323 91.608 89.2323 91.956 88.9683 92.244C88.7123 92.532 88.3963 92.752 88.0203 92.904C87.6523 93.048 87.2403 93.12 86.7843 93.12C86.3603 93.12 85.9683 93.048 85.6083 92.904C85.2483 92.752 84.9363 92.532 84.6723 92.244C84.4083 91.956 84.2003 91.608 84.0483 91.2C83.9043 90.784 83.8323 90.308 83.8323 89.772C83.8323 89.06 83.9523 88.46 84.1923 87.972C84.4323 87.476 84.7763 87.1 85.2243 86.844C85.6723 86.58 86.2043 86.448 86.8203 86.448C87.4043 86.448 87.9163 86.58 88.3563 86.844C88.8043 87.1 89.1523 87.476 89.4003 87.972C89.6563 88.46 89.7843 89.06 89.7843 89.772ZM84.9243 89.772C84.9243 90.276 84.9883 90.716 85.1163 91.092C85.2523 91.46 85.4603 91.744 85.7403 91.944C86.0203 92.144 86.3763 92.244 86.8083 92.244C87.2403 92.244 87.5963 92.144 87.8763 91.944C88.1563 91.744 88.3603 91.46 88.4883 91.092C88.6243 90.716 88.6923 90.276 88.6923 89.772C88.6923 89.26 88.6243 88.824 88.4883 88.464C88.3523 88.104 88.1443 87.828 87.8643 87.636C87.5923 87.436 87.2363 87.336 86.7963 87.336C86.1403 87.336 85.6643 87.552 85.3683 87.984C85.0723 88.416 84.9243 89.012 84.9243 89.772ZM95.6008 87.456H93.5008V93H92.4568V87.456H90.3808V86.568H95.6008V87.456ZM99.7478 86.448C100.54 86.448 101.176 86.724 101.656 87.276C102.144 87.828 102.388 88.66 102.388 89.772C102.388 90.5 102.276 91.116 102.052 91.62C101.836 92.116 101.528 92.492 101.128 92.748C100.736 92.996 100.272 93.12 99.7358 93.12C99.4078 93.12 99.1158 93.076 98.8598 92.988C98.6038 92.9 98.3838 92.788 98.1998 92.652C98.0238 92.508 97.8718 92.352 97.7438 92.184H97.6718C97.6878 92.32 97.7038 92.492 97.7198 92.7C97.7358 92.908 97.7438 93.088 97.7438 93.24V95.88H96.6878V86.568H97.5518L97.6958 87.444H97.7438C97.8718 87.26 98.0238 87.092 98.1998 86.94C98.3838 86.788 98.5998 86.668 98.8478 86.58C99.1038 86.492 99.4038 86.448 99.7478 86.448ZM99.5558 87.336C99.1238 87.336 98.7758 87.42 98.5118 87.588C98.2478 87.748 98.0558 87.992 97.9358 88.32C97.8158 88.648 97.7518 89.064 97.7438 89.568V89.772C97.7438 90.3 97.7998 90.748 97.9118 91.116C98.0238 91.484 98.2118 91.764 98.4758 91.956C98.7478 92.148 99.1158 92.244 99.5798 92.244C99.9718 92.244 100.292 92.136 100.54 91.92C100.796 91.704 100.984 91.412 101.104 91.044C101.232 90.668 101.296 90.24 101.296 89.76C101.296 89.024 101.152 88.436 100.864 87.996C100.584 87.556 100.148 87.336 99.5558 87.336ZM106.327 86.46C107.111 86.46 107.691 86.632 108.067 86.976C108.443 87.32 108.631 87.868 108.631 88.62V93H107.863L107.659 92.088H107.611C107.427 92.32 107.235 92.516 107.035 92.676C106.843 92.828 106.619 92.94 106.363 93.012C106.115 93.084 105.811 93.12 105.451 93.12C105.067 93.12 104.719 93.052 104.407 92.916C104.103 92.78 103.863 92.572 103.687 92.292C103.511 92.004 103.423 91.644 103.423 91.212C103.423 90.572 103.675 90.08 104.179 89.736C104.683 89.384 105.459 89.192 106.507 89.16L107.599 89.124V88.74C107.599 88.204 107.483 87.832 107.251 87.624C107.019 87.416 106.691 87.312 106.267 87.312C105.931 87.312 105.611 87.364 105.307 87.468C105.003 87.564 104.719 87.676 104.455 87.804L104.131 87.012C104.411 86.86 104.743 86.732 105.127 86.628C105.511 86.516 105.911 86.46 106.327 86.46ZM106.639 89.892C105.839 89.924 105.283 90.052 104.971 90.276C104.667 90.5 104.515 90.816 104.515 91.224C104.515 91.584 104.623 91.848 104.839 92.016C105.063 92.184 105.347 92.268 105.691 92.268C106.235 92.268 106.687 92.12 107.047 91.824C107.407 91.52 107.587 91.056 107.587 90.432V89.856L106.639 89.892ZM113.017 93.12C112.449 93.12 111.941 93.004 111.493 92.772C111.053 92.54 110.705 92.18 110.449 91.692C110.201 91.204 110.077 90.58 110.077 89.82C110.077 89.028 110.209 88.384 110.473 87.888C110.737 87.392 111.093 87.028 111.541 86.796C111.997 86.564 112.513 86.448 113.089 86.448C113.417 86.448 113.733 86.484 114.037 86.556C114.341 86.62 114.589 86.7 114.781 86.796L114.457 87.672C114.265 87.6 114.041 87.532 113.785 87.468C113.529 87.404 113.289 87.372 113.065 87.372C112.633 87.372 112.277 87.464 111.997 87.648C111.717 87.832 111.509 88.104 111.373 88.464C111.237 88.824 111.169 89.272 111.169 89.808C111.169 90.32 111.237 90.756 111.373 91.116C111.509 91.476 111.713 91.748 111.985 91.932C112.257 92.116 112.597 92.208 113.005 92.208C113.357 92.208 113.665 92.172 113.929 92.1C114.201 92.028 114.449 91.94 114.673 91.836V92.772C114.457 92.884 114.217 92.968 113.953 93.024C113.697 93.088 113.385 93.12 113.017 93.12ZM120.919 93H119.851V87.444H117.955C117.875 88.46 117.775 89.328 117.655 90.048C117.535 90.76 117.383 91.34 117.199 91.788C117.015 92.236 116.795 92.564 116.539 92.772C116.283 92.98 115.983 93.084 115.639 93.084C115.535 93.084 115.431 93.076 115.327 93.06C115.231 93.052 115.151 93.032 115.087 93V92.208C115.135 92.224 115.187 92.236 115.243 92.244C115.299 92.252 115.355 92.256 115.411 92.256C115.587 92.256 115.747 92.184 115.891 92.04C116.035 91.896 116.163 91.676 116.275 91.38C116.395 91.084 116.503 90.712 116.599 90.264C116.695 89.808 116.779 89.272 116.851 88.656C116.923 88.04 116.987 87.344 117.043 86.568H120.919V93ZM125.264 86.448C125.816 86.448 126.288 86.568 126.68 86.808C127.08 87.048 127.384 87.388 127.592 87.828C127.808 88.26 127.916 88.768 127.916 89.352V89.988H123.512C123.528 90.716 123.712 91.272 124.064 91.656C124.424 92.032 124.924 92.22 125.564 92.22C125.972 92.22 126.332 92.184 126.644 92.112C126.964 92.032 127.292 91.92 127.628 91.776V92.7C127.3 92.844 126.976 92.948 126.656 93.012C126.336 93.084 125.956 93.12 125.516 93.12C124.908 93.12 124.368 92.996 123.896 92.748C123.432 92.5 123.068 92.132 122.804 91.644C122.548 91.148 122.42 90.544 122.42 89.832C122.42 89.128 122.536 88.524 122.768 88.02C123.008 87.516 123.34 87.128 123.764 86.856C124.196 86.584 124.696 86.448 125.264 86.448ZM125.252 87.312C124.748 87.312 124.348 87.476 124.052 87.804C123.764 88.124 123.592 88.572 123.536 89.148H126.812C126.812 88.78 126.756 88.46 126.644 88.188C126.532 87.916 126.36 87.704 126.128 87.552C125.904 87.392 125.612 87.312 125.252 87.312ZM134.546 88.188C134.546 88.588 134.426 88.9 134.186 89.124C133.946 89.348 133.638 89.5 133.262 89.58V89.628C133.662 89.684 134.01 89.828 134.306 90.06C134.602 90.284 134.75 90.636 134.75 91.116C134.75 91.388 134.698 91.64 134.594 91.872C134.498 92.104 134.346 92.304 134.138 92.472C133.93 92.64 133.662 92.772 133.334 92.868C133.006 92.956 132.61 93 132.146 93H129.374V86.568H132.134C132.59 86.568 132.998 86.62 133.358 86.724C133.726 86.82 134.014 86.988 134.222 87.228C134.438 87.46 134.546 87.78 134.546 88.188ZM133.658 91.116C133.658 90.748 133.518 90.484 133.238 90.324C132.958 90.164 132.546 90.084 132.002 90.084H130.43V92.148H132.026C132.554 92.148 132.958 92.072 133.238 91.92C133.518 91.76 133.658 91.492 133.658 91.116ZM133.478 88.32C133.478 88.016 133.366 87.796 133.142 87.66C132.926 87.516 132.57 87.444 132.074 87.444H130.43V89.208H131.882C132.402 89.208 132.798 89.136 133.07 88.992C133.342 88.848 133.478 88.624 133.478 88.32ZM136.108 93V86.568H137.164V89.208H138.832C139.392 89.208 139.852 89.276 140.212 89.412C140.572 89.548 140.84 89.752 141.016 90.024C141.192 90.288 141.28 90.624 141.28 91.032C141.28 91.432 141.192 91.78 141.016 92.076C140.848 92.372 140.58 92.6 140.212 92.76C139.852 92.92 139.376 93 138.784 93H136.108ZM138.688 92.148C139.144 92.148 139.516 92.072 139.804 91.92C140.092 91.76 140.236 91.484 140.236 91.092C140.236 90.7 140.104 90.436 139.84 90.3C139.576 90.156 139.196 90.084 138.7 90.084H137.164V92.148H138.688ZM142.348 93V86.568H143.404V93H142.348ZM146.792 89.712L144.572 86.568H145.772L147.428 88.992L149.072 86.568H150.26L148.04 89.712L150.38 93H149.18L147.428 90.432L145.652 93H144.464L146.792 89.712ZM15.052 108.12C14.684 108.12 14.364 108.088 14.092 108.024C13.828 107.968 13.58 107.884 13.348 107.772V106.86C13.588 106.956 13.848 107.04 14.128 107.112C14.408 107.184 14.724 107.22 15.076 107.22C15.492 107.22 15.852 107.148 16.156 107.004C16.46 106.852 16.7 106.62 16.876 106.308C17.052 105.996 17.152 105.6 17.176 105.12H14.008V104.256H17.164C17.108 103.6 16.92 103.12 16.6 102.816C16.288 102.512 15.828 102.36 15.22 102.36C14.988 102.36 14.732 102.392 14.452 102.456C14.18 102.52 13.936 102.592 13.72 102.672L13.42 101.82C13.652 101.716 13.928 101.628 14.248 101.556C14.568 101.484 14.888 101.448 15.208 101.448C15.808 101.448 16.336 101.56 16.792 101.784C17.256 102.008 17.616 102.364 17.872 102.852C18.136 103.34 18.268 103.984 18.268 104.784C18.268 105.544 18.128 106.172 17.848 106.668C17.576 107.164 17.196 107.532 16.708 107.772C16.228 108.004 15.676 108.12 15.052 108.12ZM23.5737 101.568H24.7257L21.9777 104.664L24.9537 108H23.7297L20.8257 104.736V108H19.7697V101.568H20.8257V104.688L23.5737 101.568ZM28.2869 108.12C27.7189 108.12 27.2109 108.004 26.7629 107.772C26.3229 107.54 25.9749 107.18 25.7189 106.692C25.4709 106.204 25.3469 105.58 25.3469 104.82C25.3469 104.028 25.4789 103.384 25.7429 102.888C26.0069 102.392 26.3629 102.028 26.8109 101.796C27.2669 101.564 27.7829 101.448 28.3589 101.448C28.6869 101.448 29.0029 101.484 29.3069 101.556C29.6109 101.62 29.8589 101.7 30.0509 101.796L29.7269 102.672C29.5349 102.6 29.3109 102.532 29.0549 102.468C28.7989 102.404 28.5589 102.372 28.3349 102.372C27.9029 102.372 27.5469 102.464 27.2669 102.648C26.9869 102.832 26.7789 103.104 26.6429 103.464C26.5069 103.824 26.4389 104.272 26.4389 104.808C26.4389 105.32 26.5069 105.756 26.6429 106.116C26.7789 106.476 26.9829 106.748 27.2549 106.932C27.5269 107.116 27.8669 107.208 28.2749 107.208C28.6269 107.208 28.9349 107.172 29.1989 107.1C29.4709 107.028 29.7189 106.94 29.9429 106.836V107.772C29.7269 107.884 29.4869 107.968 29.2229 108.024C28.9669 108.088 28.6549 108.12 28.2869 108.12ZM36.7285 101.568V108H35.6725V102.468H32.3485V108H31.2925V101.568H36.7285ZM41.0848 101.448C41.6368 101.448 42.1088 101.568 42.5008 101.808C42.9008 102.048 43.2048 102.388 43.4128 102.828C43.6288 103.26 43.7368 103.768 43.7368 104.352V104.988H39.3328C39.3488 105.716 39.5328 106.272 39.8848 106.656C40.2448 107.032 40.7448 107.22 41.3848 107.22C41.7928 107.22 42.1528 107.184 42.4648 107.112C42.7848 107.032 43.1128 106.92 43.4488 106.776V107.7C43.1208 107.844 42.7968 107.948 42.4768 108.012C42.1568 108.084 41.7768 108.12 41.3368 108.12C40.7288 108.12 40.1888 107.996 39.7168 107.748C39.2528 107.5 38.8888 107.132 38.6248 106.644C38.3688 106.148 38.2408 105.544 38.2408 104.832C38.2408 104.128 38.3568 103.524 38.5888 103.02C38.8288 102.516 39.1608 102.128 39.5848 101.856C40.0168 101.584 40.5168 101.448 41.0848 101.448ZM41.0728 102.312C40.5688 102.312 40.1688 102.476 39.8728 102.804C39.5848 103.124 39.4128 103.572 39.3568 104.148H42.6328C42.6328 103.78 42.5768 103.46 42.4648 103.188C42.3528 102.916 42.1808 102.704 41.9488 102.552C41.7248 102.392 41.4328 102.312 41.0728 102.312ZM48.2542 101.448C49.0462 101.448 49.6822 101.724 50.1622 102.276C50.6502 102.828 50.8942 103.66 50.8942 104.772C50.8942 105.5 50.7822 106.116 50.5582 106.62C50.3422 107.116 50.0342 107.492 49.6342 107.748C49.2422 107.996 48.7782 108.12 48.2422 108.12C47.9142 108.12 47.6222 108.076 47.3662 107.988C47.1102 107.9 46.8902 107.788 46.7062 107.652C46.5302 107.508 46.3782 107.352 46.2502 107.184H46.1782C46.1942 107.32 46.2102 107.492 46.2262 107.7C46.2422 107.908 46.2502 108.088 46.2502 108.24V110.88H45.1942V101.568H46.0582L46.2022 102.444H46.2502C46.3782 102.26 46.5302 102.092 46.7062 101.94C46.8902 101.788 47.1062 101.668 47.3542 101.58C47.6102 101.492 47.9102 101.448 48.2542 101.448ZM48.0622 102.336C47.6302 102.336 47.2822 102.42 47.0182 102.588C46.7542 102.748 46.5622 102.992 46.4422 103.32C46.3222 103.648 46.2582 104.064 46.2502 104.568V104.772C46.2502 105.3 46.3062 105.748 46.4182 106.116C46.5302 106.484 46.7182 106.764 46.9822 106.956C47.2542 107.148 47.6222 107.244 48.0862 107.244C48.4782 107.244 48.7982 107.136 49.0462 106.92C49.3022 106.704 49.4902 106.412 49.6102 106.044C49.7382 105.668 49.8022 105.24 49.8022 104.76C49.8022 104.024 49.6582 103.436 49.3702 102.996C49.0902 102.556 48.6542 102.336 48.0622 102.336ZM56.7198 102.456H54.6198V108H53.5758V102.456H51.4998V101.568H56.7198V102.456ZM63.2817 104.772C63.2817 105.308 63.2097 105.784 63.0657 106.2C62.9297 106.608 62.7297 106.956 62.4657 107.244C62.2097 107.532 61.8937 107.752 61.5177 107.904C61.1497 108.048 60.7377 108.12 60.2817 108.12C59.8577 108.12 59.4657 108.048 59.1057 107.904C58.7457 107.752 58.4337 107.532 58.1697 107.244C57.9057 106.956 57.6977 106.608 57.5457 106.2C57.4017 105.784 57.3297 105.308 57.3297 104.772C57.3297 104.06 57.4497 103.46 57.6897 102.972C57.9297 102.476 58.2737 102.1 58.7217 101.844C59.1697 101.58 59.7017 101.448 60.3177 101.448C60.9017 101.448 61.4137 101.58 61.8537 101.844C62.3017 102.1 62.6497 102.476 62.8977 102.972C63.1537 103.46 63.2817 104.06 63.2817 104.772ZM58.4217 104.772C58.4217 105.276 58.4857 105.716 58.6137 106.092C58.7497 106.46 58.9577 106.744 59.2377 106.944C59.5177 107.144 59.8737 107.244 60.3057 107.244C60.7377 107.244 61.0937 107.144 61.3737 106.944C61.6537 106.744 61.8577 106.46 61.9857 106.092C62.1217 105.716 62.1897 105.276 62.1897 104.772C62.1897 104.26 62.1217 103.824 61.9857 103.464C61.8497 103.104 61.6417 102.828 61.3617 102.636C61.0897 102.436 60.7337 102.336 60.2937 102.336C59.6377 102.336 59.1617 102.552 58.8657 102.984C58.5697 103.416 58.4217 104.012 58.4217 104.772ZM69.9473 103.188C69.9473 103.588 69.8273 103.9 69.5873 104.124C69.3473 104.348 69.0393 104.5 68.6633 104.58V104.628C69.0633 104.684 69.4113 104.828 69.7073 105.06C70.0033 105.284 70.1513 105.636 70.1513 106.116C70.1513 106.388 70.0993 106.64 69.9953 106.872C69.8993 107.104 69.7473 107.304 69.5393 107.472C69.3313 107.64 69.0633 107.772 68.7353 107.868C68.4073 107.956 68.0113 108 67.5473 108H64.7753V101.568H67.5353C67.9913 101.568 68.3993 101.62 68.7593 101.724C69.1273 101.82 69.4153 101.988 69.6233 102.228C69.8393 102.46 69.9473 102.78 69.9473 103.188ZM69.0593 106.116C69.0593 105.748 68.9193 105.484 68.6393 105.324C68.3593 105.164 67.9473 105.084 67.4033 105.084H65.8313V107.148H67.4273C67.9553 107.148 68.3593 107.072 68.6393 106.92C68.9193 106.76 69.0593 106.492 69.0593 106.116ZM68.8793 103.32C68.8793 103.016 68.7673 102.796 68.5433 102.66C68.3273 102.516 67.9713 102.444 67.4753 102.444H65.8313V104.208H67.2833C67.8033 104.208 68.1993 104.136 68.4713 103.992C68.7433 103.848 68.8793 103.624 68.8793 103.32Z" fill="white"/>
<defs>
<filter id="filter0_d_10_77" x="59.1348" y="7.04004" width="83.2178" height="28.4043" filterUnits="userSpaceOnUse" color-interpolation-filters="sRGB">
<feFlood flood-opacity="0" result="BackgroundImageFix"/>
<feColorMatrix in="SourceAlpha" type="matrix" values="0 0 0 0 0 0 0 0 0 0 0 0 0 0 0 0 0 0 127 0" result="hardAlpha"/>
<feOffset dx="2" dy="4"/>
<feComposite in2="hardAlpha" operator="out"/>
<feColorMatrix type="matrix" values="0 0 0 0 0 0 0 0 0 0 0 0 0 0 0 0 0 0 0.75 0"/>
<feBlend mode="normal" in2="BackgroundImageFix" result="effect1_dropShadow_10_77"/>
<feBlend mode="normal" in="SourceGraphic" in2="effect1_dropShadow_10_77" result="shape"/>
</filter>
</defs>
</svg>
